<?xml version="1.0" standalone="no"?>
<!DOCTYPE svg PUBLIC "-//W3C//DTD SVG 1.1//EN" "http://www.w3.org/Graphics/SVG/1.1/DTD/svg11.dtd" >
<svg>
<metadata>
Created by FontForge 20090622 at Fri Aug 21 20:29:24 2015
 By deploy user
(C)2009 House Industries/Brand Design Co., Inc. All Rights Reserved.
</metadata>
<defs>
<font id="NeutrafaceSlabDisplay-Light" horiz-adv-x="679" >
  <font-face 
    font-family="Neutraface Slab Display Light"
    font-weight="300"
    font-stretch="normal"
    units-per-em="1000"
    panose-1="2 6 3 3 2 2 5 2 4 4"
    ascent="788"
    descent="-212"
    x-height="318"
    cap-height="680"
    bbox="-20 -223 962 880"
    underline-thickness="50"
    underline-position="-50"
    unicode-range="U+0020-U+FB04"
  />
<missing-glyph horiz-adv-x="500" 
 />
    <glyph glyph-name="ff" unicode="ff" horiz-adv-x="407" 
d="M266 292h-175v-266h75v-26h-150v26h45v266h-45v26h45v311q0 43 21.5 66t56.5 23q43 0 67 -32l-20 -19q-19 24 -47 24q-48 0 -48 -66v-307h175v311q0 43 21.5 66t56.5 23q43 0 67 -32l-20 -19q-19 24 -47 24q-48 0 -48 -66v-307h83v-26h-83v-266h75v-26h-150v26h45v266z
" />
    <glyph glyph-name="fi" unicode="fi" horiz-adv-x="368" 
d="M16 0v26h45v266h-45v26h45v311q0 43 21.5 66t56.5 23q43 0 67 -32l-20 -19q-19 24 -47 24q-48 0 -48 -66v-307h205v-292h58v-26h-133v26h45v266h-175v-266h75v-26h-150zM281 430q-10 0 -17.5 7.5t-7.5 17.5t7.5 17.5t17.5 7.5t17.5 -7.5t7.5 -17.5t-7.5 -17.5t-17.5 -7.5
z" />
    <glyph glyph-name="fl" unicode="fl" horiz-adv-x="371" 
d="M221 0v26h45v575q0 41 -24.5 65.5t-62.5 24.5q-40 0 -64 -24t-24 -66v-283h83v-26h-83v-266h75v-26h-150v26h45v266h-45v26h45v287q0 52 34.5 82.5t83.5 30.5q62 0 87 -44v36h30v-684h60v-26h-135z" />
    <glyph glyph-name="ffi" unicode="ffi" horiz-adv-x="573" 
d="M221 0v26h45v266h-175v-266h75v-26h-150v26h45v266h-45v26h45v311q0 43 21.5 66t56.5 23q43 0 67 -32l-20 -19q-19 24 -47 24q-48 0 -48 -66v-307h175v311q0 43 21.5 66t56.5 23q43 0 67 -32l-20 -19q-19 24 -47 24q-48 0 -48 -66v-307h205v-292h58v-26h-133v26h45v266
h-175v-266h75v-26h-150zM486 430q-10 0 -17.5 7.5t-7.5 17.5t7.5 17.5t17.5 7.5t17.5 -7.5t7.5 -17.5t-7.5 -17.5t-17.5 -7.5z" />
    <glyph glyph-name="ffl" unicode="ffl" horiz-adv-x="576" 
d="M266 292h-175v-266h75v-26h-150v26h45v266h-45v26h45v311q0 43 21.5 66t56.5 23q43 0 67 -32l-20 -19q-19 24 -47 24q-48 0 -48 -66v-307h175v287q0 52 34.5 82.5t83.5 30.5q62 0 87 -44v36h30v-684h60v-26h-135v26h45v575q0 41 -24.5 65.5t-62.5 24.5q-40 0 -64 -24
t-24 -66v-283h83v-26h-83v-266h75v-26h-150v26h45v266z" />
    <glyph glyph-name="f_b" unicode="fb" horiz-adv-x="621" 
d="M221 0v26h45v575q0 41 -24.5 65.5t-62.5 24.5q-40 0 -64 -24t-24 -66v-283h83v-26h-83v-266h75v-26h-150v26h45v266h-45v26h45v287q0 52 34.5 82.5t83.5 30.5q62 0 87 -44v36h30v-461q42 77 130 77q70 0 116.5 -48t46.5 -119t-46.5 -119t-116.5 -48q-88 0 -130 77v-69
h-75zM426 19q58 0 95 39.5t37 100.5t-37 100.5t-95 39.5t-95 -39.5t-37 -100.5t37 -100.5t95 -39.5z" />
    <glyph glyph-name="f_f_b" unicode="ffb" horiz-adv-x="826" 
d="M266 292h-175v-266h75v-26h-150v26h45v266h-45v26h45v311q0 43 21.5 66t56.5 23q43 0 67 -32l-20 -19q-19 24 -47 24q-48 0 -48 -66v-307h175v287q0 52 34.5 82.5t83.5 30.5q62 0 87 -44v36h30v-461q42 77 130 77q70 0 116.5 -48t46.5 -119t-46.5 -119t-116.5 -48
q-88 0 -130 77v-69h-75v26h45v575q0 41 -24.5 65.5t-62.5 24.5q-40 0 -64 -24t-24 -66v-283h83v-26h-83v-266h75v-26h-150v26h45v266zM631 19q58 0 95 39.5t37 100.5t-37 100.5t-95 39.5t-95 -39.5t-37 -100.5t37 -100.5t95 -39.5z" />
    <glyph glyph-name="f_f_f" unicode="fff" horiz-adv-x="612" 
d="M221 0v26h45v266h-175v-266h75v-26h-150v26h45v266h-45v26h45v311q0 43 21.5 66t56.5 23q43 0 67 -32l-20 -19q-19 24 -47 24q-48 0 -48 -66v-307h175v311q0 43 21.5 66t56.5 23q43 0 67 -32l-20 -19q-19 24 -47 24q-48 0 -48 -66v-307h175v311q0 43 21.5 66t56.5 23
q43 0 67 -32l-20 -19q-19 24 -47 24q-48 0 -48 -66v-307h83v-26h-83v-266h75v-26h-150v26h45v266h-175v-266h75v-26h-150z" />
    <glyph glyph-name="f_f_h" unicode="ffh" horiz-adv-x="818" 
d="M266 292h-175v-266h75v-26h-150v26h45v266h-45v26h45v311q0 43 21.5 66t56.5 23q43 0 67 -32l-20 -19q-19 24 -47 24q-48 0 -48 -66v-307h175v287q0 52 34.5 82.5t83.5 30.5q62 0 87 -44v36h30v-452q40 68 118 68q55 0 89.5 -32.5t34.5 -95.5v-172h60v-26h-150v26h60v167
q0 106 -95 106q-52 0 -84.5 -32t-32.5 -86v-155h60v-26h-135v26h45v575q0 41 -24.5 65.5t-62.5 24.5q-40 0 -64 -24t-24 -66v-283h83v-26h-83v-266h75v-26h-150v26h45v266z" />
    <glyph glyph-name="f_f_j" unicode="ffj" horiz-adv-x="561" 
d="M221 0v26h45v266h-175v-266h75v-26h-150v26h45v266h-45v26h45v311q0 43 21.5 66t56.5 23q43 0 67 -32l-20 -19q-19 24 -47 24q-48 0 -48 -66v-307h175v311q0 43 21.5 66t56.5 23q43 0 67 -32l-20 -19q-19 24 -47 24q-48 0 -48 -66v-307h205v-457q0 -39 -19 -60t-53 -21
q-27 0 -46 16l15 22q14 -11 31 -11q42 0 42 57v428h-175v-266h75v-26h-150zM486 430q-10 0 -17.5 7.5t-7.5 17.5t7.5 17.5t17.5 7.5t17.5 -7.5t7.5 -17.5t-7.5 -17.5t-17.5 -7.5z" />
    <glyph glyph-name="f_f_k" unicode="ffk" horiz-adv-x="760" 
d="M426 0v26h45v575q0 41 -24.5 65.5t-62.5 24.5q-40 0 -64 -24t-24 -66v-283h83v-26h-83v-266h75v-26h-150v26h45v266h-175v-266h75v-26h-150v26h45v266h-45v26h45v311q0 43 21.5 66t56.5 23q43 0 67 -32l-20 -19q-19 24 -47 24q-48 0 -48 -66v-307h175v287q0 52 34.5 82.5
t83.5 30.5q62 0 87 -44v36h30v-573l156 155h-60v26h150v-26h-55l-117 -115l129 -151h44v-26h-130v26h48l-110 129l-55 -58v-71h54v-26h-129z" />
    <glyph glyph-name="f_h" unicode="fh" horiz-adv-x="613" 
d="M221 0v26h45v575q0 41 -24.5 65.5t-62.5 24.5q-40 0 -64 -24t-24 -66v-283h83v-26h-83v-266h75v-26h-150v26h45v266h-45v26h45v287q0 52 34.5 82.5t83.5 30.5q62 0 87 -44v36h30v-452q40 68 118 68q55 0 89.5 -32.5t34.5 -95.5v-172h60v-26h-150v26h60v167q0 106 -95 106
q-52 0 -84.5 -32t-32.5 -86v-155h60v-26h-135z" />
    <glyph glyph-name="f_j" unicode="fj" horiz-adv-x="356" 
d="M16 0v26h45v266h-45v26h45v311q0 43 21.5 66t56.5 23q43 0 67 -32l-20 -19q-19 24 -47 24q-48 0 -48 -66v-307h205v-457q0 -39 -19 -60t-53 -21q-27 0 -46 16l15 22q14 -11 31 -11q42 0 42 57v428h-175v-266h75v-26h-150zM281 430q-10 0 -17.5 7.5t-7.5 17.5t7.5 17.5
t17.5 7.5t17.5 -7.5t7.5 -17.5t-7.5 -17.5t-17.5 -7.5z" />
    <glyph glyph-name="f_k" unicode="fk" horiz-adv-x="555" 
d="M16 0v26h45v266h-45v26h45v287q0 52 34.5 82.5t83.5 30.5q62 0 87 -44v36h30v-573l156 155h-60v26h150v-26h-55l-117 -115l129 -151h44v-26h-130v26h48l-110 129l-55 -58v-71h54v-26h-129v26h45v575q0 41 -24.5 65.5t-62.5 24.5q-40 0 -64 -24t-24 -66v-283h83v-26h-83
v-266h75v-26h-150z" />
    <glyph glyph-name=".notdef" horiz-adv-x="500" 
 />
    <glyph glyph-name=".null" horiz-adv-x="0" 
 />
    <glyph glyph-name="nonmarkingreturn" horiz-adv-x="333" 
 />
    <glyph glyph-name="space" unicode=" " horiz-adv-x="182" 
 />
    <glyph glyph-name="exclam" unicode="!" horiz-adv-x="212" 
d="M90 157v523h32v-523h-32zM106 -6q-11 0 -19.5 8t-8.5 20t8.5 20t19.5 8t19.5 -8t8.5 -20t-8.5 -20t-19.5 -8z" />
    <glyph glyph-name="quotedbl" unicode="&#x22;" horiz-adv-x="211" 
d="M140 534l-5 146h34l-5 -146h-24zM47 534l-5 146h34l-5 -146h-24z" />
    <glyph glyph-name="numbersign" unicode="#" horiz-adv-x="406" 
d="M133 355h-83v26h89l30 119h28l-30 -119h116l30 119h28l-30 -119h75v-26h-81l-33 -132h84v-26h-91l-28 -113h-28l28 113h-116l-28 -113h-28l28 113h-73v26h80zM277 355h-116l-33 -132h116z" />
    <glyph glyph-name="dollar" unicode="$" horiz-adv-x="387" 
d="M179 -116v109q-92 6 -133 70v-63h-26v146h23q6 -59 42.5 -91t93.5 -35v232l-14 4q-59 17 -89.5 47t-30.5 85q0 53 39.5 85.5t94.5 34.5v94h29v-95q76 -8 101 -56v49h26v-139h-23q-4 60 -29.5 87t-74.5 32v-206l23 -7q69 -21 100.5 -54t31.5 -88q0 -57 -42.5 -93
t-112.5 -39v-109h-29zM333 125q0 48 -27 72.5t-98 45.5v-224q56 3 90.5 31.5t34.5 74.5zM75 388q0 -46 23.5 -68t80.5 -38v199q-45 -2 -74.5 -25t-29.5 -68z" />
    <glyph glyph-name="percent" unicode="%" horiz-adv-x="578" 
d="M153 270q-49 0 -84.5 34.5t-35.5 84.5t35.5 84.5t84.5 34.5t84 -34.5t35 -84.5t-35 -84.5t-84 -34.5zM153 296q39 0 64.5 26t25.5 67q0 40 -26 66.5t-64 26.5q-39 0 -65 -26.5t-26 -66.5q0 -41 26 -67t65 -26zM119 0l309 500h32l-309 -500h-32zM426 -8q-49 0 -84.5 34.5
t-35.5 84.5q0 51 35.5 85.5t84.5 34.5t84.5 -34.5t35.5 -85.5q0 -50 -35.5 -84.5t-84.5 -34.5zM426 18q39 0 65 26.5t26 66.5q0 41 -26 67.5t-65 26.5t-65 -26.5t-26 -67.5q0 -40 26 -66.5t65 -26.5z" />
    <glyph glyph-name="ampersand" unicode="&#x26;" horiz-adv-x="660" 
d="M601 345h-71q-3 -116 -51 -206l92 -112h72v-27h-89l-91 112q-79 -120 -220 -120q-84 0 -142.5 49.5t-58.5 130.5q0 36 13 68t28.5 52t47 44t47.5 34t52 30l-25 31q-55 69 -55 129q0 56 36.5 92t92.5 36q54 0 87.5 -37t33.5 -91q0 -91 -127 -167l186 -229q38 78 41 181
h-71v27h172v-27zM243 21q132 0 201 114l-197 243q-44 -25 -69 -42t-52.5 -42t-39.5 -55t-12 -67q0 -68 49 -109.5t120 -41.5zM181 560q0 -51 52 -116l23 -29q113 69 113 145q0 44 -25 71.5t-65 27.5q-43 0 -70.5 -27t-27.5 -72z" />
    <glyph glyph-name="quotesingle" unicode="'" horiz-adv-x="118" 
d="M47 534l-5 146h34l-5 -146h-24z" />
    <glyph glyph-name="parenleft" unicode="(" horiz-adv-x="254" 
d="M203 -136q-163 177 -163 427t163 427l21 -19q-152 -172 -152 -408t152 -408z" />
    <glyph glyph-name="parenright" unicode=")" horiz-adv-x="254" 
d="M51 718q163 -177 163 -427t-163 -427l-21 19q152 172 152 408t-152 408z" />
    <glyph glyph-name="asterisk" unicode="*" horiz-adv-x="344" 
d="M157 446l5 100l-80 -52l-14 26l84 43l-84 43l14 26l80 -52l-5 100h30l-5 -100l80 52l14 -26l-84 -43l84 -43l-14 -26l-80 52l5 -100h-30z" />
    <glyph glyph-name="plus" unicode="+" horiz-adv-x="312" 
d="M171 229v-113h-30v113h-102v28h102v113h30v-113h102v-28h-102z" />
    <glyph glyph-name="comma" unicode="," horiz-adv-x="142" 
d="M44 -70l18 66q-19 4 -19 26q0 12 8.5 20t19.5 8t19.5 -8t8.5 -20q0 -8 -3 -14l-33 -78h-19z" />
    <glyph glyph-name="hyphen" unicode="-" horiz-adv-x="222" 
d="M39 160v26h144v-26h-144z" />
    <glyph glyph-name="period" unicode="." horiz-adv-x="142" 
d="M71 -6q-11 0 -19.5 8t-8.5 20t8.5 20t19.5 8t19.5 -8t8.5 -20t-8.5 -20t-19.5 -8z" />
    <glyph glyph-name="slash" unicode="/" horiz-adv-x="403" 
d="M13 -128l310 838h32l-310 -838h-32z" />
    <glyph glyph-name="zero" unicode="0" horiz-adv-x="488" 
d="M244 -8q-92 0 -148 72.5t-56 185.5t56 185.5t148 72.5t148 -72.5t56 -185.5t-56 -185.5t-148 -72.5zM244 20q81 0 126.5 64t45.5 166t-45.5 166t-126.5 64t-126.5 -64t-45.5 -166t45.5 -166t126.5 -64z" />
    <glyph glyph-name="one" unicode="1" horiz-adv-x="218" 
d="M28 0v27h75v445h-89v28h120v-473h70v-27h-176z" />
    <glyph glyph-name="two" unicode="2" horiz-adv-x="410" 
d="M15 0v18l174 152q133 116 133 199q0 57 -34 84t-83 27q-96 0 -130 -104l-27 9q17 58 59.5 90.5t97.5 32.5q59 0 103.5 -35t44.5 -104q0 -94 -147 -220l-141 -122h273v78h27v-105h-350z" />
    <glyph glyph-name="three" unicode="3" horiz-adv-x="419" 
d="M51 409v91h298v-17l-161 -172q83 4 135 -39t52 -119q0 -74 -50 -117.5t-127 -43.5q-59 0 -107.5 29.5t-70.5 80.5l27 13q46 -95 151 -95q65 0 105 35.5t40 97.5q0 63 -38.5 97.5t-108.5 34.5q-34 0 -72 -16l-5 6l185 199h-226v-65h-27z" />
    <glyph glyph-name="four" unicode="4" horiz-adv-x="438" 
d="M232 0v27h76v93h-290v18l301 363h19v-354h69v-27h-69v-93h70v-27h-176zM308 147v300l-248 -300h248z" />
    <glyph glyph-name="five" unicode="5" horiz-adv-x="418" 
d="M310 409v64h-221v-174q43 28 103 28q82 0 131 -46t49 -121t-49 -121.5t-125 -46.5q-58 0 -101.5 23.5t-65.5 60.5l25 17q42 -73 142 -73q64 0 103 39t39 101q0 64 -38.5 101.5t-109.5 37.5q-83 0 -125 -48l-7 2v247h277v-91h-27z" />
    <glyph glyph-name="six" unicode="6" horiz-adv-x="426" 
d="M215 -8q-74 0 -124.5 48.5t-50.5 121.5q0 52 50 127l147 211h33l-134 -194q32 26 83 26q71 0 120 -49t49 -121q0 -71 -49.5 -120.5t-123.5 -49.5zM215 20q63 0 102 39.5t39 102.5q0 64 -38 103t-101 39q-64 0 -104.5 -41.5t-40.5 -100.5q0 -63 39.5 -102.5t103.5 -39.5z
" />
    <glyph glyph-name="seven" unicode="7" horiz-adv-x="403" 
d="M36 409v91h347v-17l-260 -483h-32l255 473h-283v-64h-27z" />
    <glyph glyph-name="eight" unicode="8" horiz-adv-x="418" 
d="M209 -8q-74 0 -122.5 43t-48.5 107q0 49 29.5 86.5t79.5 52.5q-34 15 -54 43t-20 64q0 50 39 85t97 35q59 0 97.5 -35t38.5 -85q0 -36 -20 -64t-54 -43q50 -15 79.5 -52.5t29.5 -86.5q0 -64 -48 -107t-123 -43zM209 19q61 0 100 34.5t39 89.5q0 56 -37.5 90t-101.5 34
t-101.5 -34.5t-37.5 -89.5q0 -54 39.5 -89t99.5 -35zM209 292q45 0 75 27t30 68q0 40 -30.5 67t-74.5 27t-74.5 -27t-30.5 -67q0 -41 30 -68t75 -27z" />
    <glyph glyph-name="nine" unicode="9" horiz-adv-x="427" 
d="M212 508q74 0 124.5 -48.5t50.5 -121.5q0 -52 -50 -127l-147 -211h-33l135 195q-33 -27 -84 -27q-71 0 -120 49t-49 121q0 71 49.5 120.5t123.5 49.5zM212 480q-63 0 -102 -39.5t-39 -102.5q0 -64 38 -103t101 -39q64 0 104.5 41.5t40.5 100.5q0 63 -39.5 102.5
t-103.5 39.5z" />
    <glyph glyph-name="colon" unicode=":" horiz-adv-x="148" 
d="M73 222q-11 0 -19.5 8t-8.5 20t8.5 20t19.5 8t19.5 -8t8.5 -20t-8.5 -20t-19.5 -8zM73 -6q-11 0 -19.5 8t-8.5 20t8.5 20t19.5 8t19.5 -8t8.5 -20t-8.5 -20t-19.5 -8z" />
    <glyph glyph-name="semicolon" unicode=";" horiz-adv-x="149" 
d="M73 222q-11 0 -19.5 8t-8.5 20t8.5 20t19.5 8t19.5 -8t8.5 -20t-8.5 -20t-19.5 -8zM46 -70l18 66q-19 4 -19 26q0 12 8.5 20t19.5 8t19.5 -8t8.5 -20q0 -8 -3 -14l-33 -78h-19z" />
    <glyph glyph-name="less" unicode="&#x3c;" horiz-adv-x="312" 
d="M273 119l-241 123v4l241 121v-31l-185 -93l185 -93v-31z" />
    <glyph glyph-name="equal" unicode="=" horiz-adv-x="312" 
d="M39 279v28h234v-28h-234zM39 179v28h234v-28h-234z" />
    <glyph glyph-name="greater" unicode="&#x3e;" horiz-adv-x="312" 
d="M39 119v31l185 93l-185 93v31l241 -123v-4z" />
    <glyph glyph-name="question" unicode="?" horiz-adv-x="435" 
d="M176 157v201h24q68 0 110 43.5t42 107.5q0 73 -40 112t-107 39q-99 0 -150 -97l-24 14q55 111 174 111q81 0 129.5 -49t48.5 -130q0 -74 -51 -125.5t-128 -52.5v-174h-28zM190 -6q-11 0 -19.5 8t-8.5 20t8.5 20t19.5 8t19.5 -8t8.5 -20t-8.5 -20t-19.5 -8z" />
    <glyph glyph-name="at" unicode="@" horiz-adv-x="710" 
d="M355 -172q-134 0 -224.5 95t-90.5 231t90.5 230.5t224.5 94.5q138 0 226.5 -91.5t88.5 -221.5q0 -85 -33 -131.5t-81 -46.5q-38 0 -61.5 22.5t-28.5 60.5q-38 -79 -121 -79q-62 0 -104.5 45.5t-42.5 111.5t42.5 112.5t104.5 46.5q83 0 119 -77v69h30v-206q0 -79 62 -79
q37 0 60.5 39t23.5 112q0 119 -78.5 202.5t-206.5 83.5q-124 0 -204.5 -87t-80.5 -211q0 -125 80.5 -212t204.5 -87q78 0 139 38l14 -23q-68 -42 -153 -42zM345 18q50 0 85 38.5t35 92.5q0 55 -35 94t-85 39t-83 -39t-33 -94q0 -54 33 -92.5t83 -38.5z" />
    <glyph glyph-name="A" unicode="A" 
d="M669 27v-27h-167v27h71l-66 174h-335l-67 -174h72v-27h-167v27h63l234 626h-56v27h178v-27h-57l234 -626h63zM340 653l-157 -424h313z" />
    <glyph glyph-name="B" unicode="B" horiz-adv-x="596" 
d="M40 653v27h288q91 0 140 -48t49 -123q0 -123 -101 -156q136 -37 136 -170q0 -82 -55.5 -132.5t-156.5 -50.5h-300v27h70v626h-70zM142 28h193q92 0 138.5 41.5t46.5 113.5q0 71 -47.5 113t-137.5 42h-193v-310zM142 366h203q71 0 105.5 39t34.5 104q0 64 -40 103.5
t-120 39.5h-183v-286z" />
    <glyph glyph-name="C" unicode="C" horiz-adv-x="707" 
d="M43 340q1 151 99 249.5t243 98.5q83 0 145 -30t95 -84v106h29v-182h-29q-12 76 -80 118.5t-160 42.5q-132 0 -220.5 -91t-88.5 -228t90 -228t225 -91q79 0 144.5 33t109.5 91l24 -18q-49 -64 -121 -99.5t-157 -35.5q-148 0 -248.5 98.5t-99.5 249.5z" />
    <glyph glyph-name="D" unicode="D" horiz-adv-x="662" 
d="M40 653v27h222q168 0 264 -93.5t96 -246.5q0 -154 -95.5 -247t-264.5 -93h-222v27h70v626h-70zM142 29h115q161 0 246.5 84.5t85.5 226.5t-85.5 226.5t-246.5 84.5h-115v-622z" />
    <glyph glyph-name="E" unicode="E" horiz-adv-x="558" 
d="M475 538v114h-333v-297h293v-28h-293v-299h347v114h29v-142h-478v27h70v626h-70v27h464v-142h-29z" />
    <glyph glyph-name="F" unicode="F" horiz-adv-x="537" 
d="M475 538v114h-333v-317h297v-28h-297v-280h71v-27h-173v27h70v626h-70v27h464v-142h-29z" />
    <glyph glyph-name="G" unicode="G" horiz-adv-x="724" 
d="M632 0v79q-89 -87 -241 -87q-147 0 -248 99t-101 249q0 149 100 248.5t242 99.5q78 0 138 -27t91 -77v96h29v-162h-29q-16 66 -75 103.5t-154 37.5q-132 0 -220.5 -91t-88.5 -228t90.5 -228t225.5 -91q147 0 241 88v168h-224v28h256v-305h-32z" />
    <glyph glyph-name="H" unicode="H" horiz-adv-x="690" 
d="M40 653v27h172v-27h-70v-298h406v298h-70v27h172v-27h-70v-626h70v-27h-172v27h70v300h-406v-300h70v-27h-172v27h70v626h-70z" />
    <glyph glyph-name="I" unicode="I" horiz-adv-x="252" 
d="M40 653v27h172v-27h-70v-626h70v-27h-172v27h70v626h-70z" />
    <glyph glyph-name="J" unicode="J" horiz-adv-x="449" 
d="M242 653v27h172v-27h-69v-494q0 -81 -46 -124t-119 -43q-102 0 -155 89l25 17q42 -77 130 -77q61 0 97 35t36 105v492h-71z" />
    <glyph glyph-name="K" unicode="K" horiz-adv-x="603" 
d="M40 653v27h172v-27h-70v-383l324 383h-70v27h172v-27h-65l-235 -278l261 -348h54v-27h-163v27h70l-243 324l-105 -122v-202h70v-27h-172v27h70v626h-70z" />
    <glyph glyph-name="L" unicode="L" horiz-adv-x="515" 
d="M40 653v27h172v-27h-70v-625h311v114h29v-142h-441v27h69v626h-70z" />
    <glyph glyph-name="M" unicode="M" horiz-adv-x="832" 
d="M792 27v-27h-172v27h72v611l-270 -397h-15l-267 397v-611h72v-27h-172v27h70v626h-70v27h106l269 -400l272 400h105v-27h-70v-626h70z" />
    <glyph glyph-name="N" unicode="N" horiz-adv-x="724" 
d="M689 680v-27h-70v-653h-21l-458 638v-611h72v-27h-172v27h70v626h-70v27h105l445 -622v595h-73v27h172z" />
    <glyph glyph-name="O" unicode="O" horiz-adv-x="780" 
d="M390 -8q-146 0 -247 99.5t-101 248.5t101 248.5t247 99.5t247 -99.5t101 -248.5t-101 -248.5t-247 -99.5zM390 21q135 0 225 91t90 228t-90 228t-225 91t-225 -91t-90 -228t90 -228t225 -91z" />
    <glyph glyph-name="P" unicode="P" horiz-adv-x="535" 
d="M40 653v27h257q99 0 153.5 -54.5t54.5 -137.5t-54.5 -137t-153.5 -54h-155v-270h70v-27h-172v27h70v626h-70zM142 325h151q86 0 133 45t47 118t-47 118.5t-133 45.5h-151v-327z" />
    <glyph glyph-name="Q" unicode="Q" horiz-adv-x="793" 
d="M390 21q114 0 199 67l-107 111l22 20l107 -111q94 91 94 232q0 137 -90 228t-225 91t-225 -91t-90 -228t90 -228t225 -91zM390 -8q-146 0 -247 99.5t-101 248.5t101 248.5t247 99.5t247 -99.5t101 -248.5q0 -151 -106 -254l57 -59h92v-27h-107l-65 67q-92 -75 -219 -75z
" />
    <glyph glyph-name="R" unicode="R" horiz-adv-x="606" 
d="M505 0l-190 300h-173v-273h71v-27h-173v27h70v626h-70v27h261q99 0 153.5 -55t54.5 -137q0 -71 -42 -121t-119 -63l176 -277h67v-27h-86zM142 328h155q87 0 133.5 44t46.5 116t-47 118t-133 46h-155v-324z" />
    <glyph glyph-name="S" unicode="S" horiz-adv-x="506" 
d="M395 528q-10 63 -50 97.5t-101 34.5q-59 0 -97.5 -35t-38.5 -87t30.5 -83t104.5 -67l61 -30q90 -44 126 -85.5t36 -110.5q0 -76 -54.5 -123t-145.5 -47q-70 0 -123 31.5t-76 81.5v-105h-29v184h29q11 -74 64 -118.5t135 -44.5q78 0 123.5 39t45.5 102q0 61 -32 96.5
t-112 73.5l-62 30q-79 39 -115.5 77t-36.5 99q0 67 48.5 108.5t118.5 41.5q104 0 151 -81v73h29v-152h-29z" />
    <glyph glyph-name="T" unicode="T" horiz-adv-x="564" 
d="M504 538v114h-206v-625h70v-27h-172v27h70v625h-206v-114h-29v142h502v-142h-29z" />
    <glyph glyph-name="U" unicode="U" horiz-adv-x="660" 
d="M625 680v-27h-70v-429q0 -110 -63 -171t-163 -61q-99 0 -161.5 61t-62.5 171v429h-70v27h172v-27h-70v-426q0 -98 52.5 -152.5t139.5 -54.5t140.5 54.5t53.5 152.5v426h-70v27h172z" />
    <glyph glyph-name="V" unicode="V" horiz-adv-x="675" 
d="M660 680v-27h-56l-255 -653h-20l-256 653h-58v27h156v-27h-65l233 -599l234 599h-70v27h157z" />
    <glyph glyph-name="W" unicode="W" horiz-adv-x="977" 
d="M962 680v-27h-57l-192 -653h-19l-205 618l-206 -618h-19l-192 653h-57v27h156v-27h-67l171 -586l204 613h20l204 -613l171 586h-69v27h157z" />
    <glyph glyph-name="X" unicode="X" horiz-adv-x="630" 
d="M448 0v27h72l-205 315l-206 -315h73v-27h-172v27h66l223 340l-186 286h-68v27h172v-27h-69l168 -259l169 259h-71v27h172v-27h-68l-185 -284l222 -342h65v-27h-172z" />
    <glyph glyph-name="Y" unicode="Y" horiz-adv-x="625" 
d="M227 0v27h70v246l-222 380h-60v27h160v-27h-64l202 -346l203 346h-67v27h161v-27h-60l-221 -378v-248h70v-27h-172z" />
    <glyph glyph-name="Z" unicode="Z" horiz-adv-x="566" 
d="M66 538v142h446v-17l-435 -635h425v114h29v-142h-496v19l435 633h-375v-114h-29z" />
    <glyph glyph-name="bracketleft" unicode="[" horiz-adv-x="265" 
d="M84 -128v838h141v-27h-110v-784h110v-27h-141z" />
    <glyph glyph-name="backslash" unicode="\" horiz-adv-x="403" 
d="M358 -128l-310 838h32l310 -838h-32z" />
    <glyph glyph-name="bracketright" unicode="]" horiz-adv-x="265" 
d="M40 -128v27h110v784h-110v27h141v-838h-141z" />
    <glyph glyph-name="asciicircum" unicode="^" horiz-adv-x="349" 
d="M174 650l-122 -193h-32l153 240h4l152 -240h-32z" />
    <glyph glyph-name="underscore" unicode="_" horiz-adv-x="240" 
d="M-2 -128v26h244v-26h-244z" />
    <glyph glyph-name="grave" unicode="`" horiz-adv-x="500" 
d="M240 396l-68 132h33l60 -132h-25z" />
    <glyph glyph-name="a" unicode="a" horiz-adv-x="368" 
d="M267 190v12q0 98 -89 98q-66 0 -101 -55l-22 15q44 66 123 66q56 0 87.5 -30.5t31.5 -91.5v-178h59v-26h-89v42q-36 -50 -109 -50q-54 0 -89 26.5t-35 74.5t36 72.5t89 24.5h108zM267 164h-104q-43 0 -71 -17t-28 -54q0 -74 98 -74q43 0 74 22.5t31 64.5v58z" />
    <glyph glyph-name="b" unicode="b" horiz-adv-x="430" 
d="M15 684v26h90v-461q42 77 130 77q70 0 116.5 -48t46.5 -119t-46.5 -119t-116.5 -48q-88 0 -130 77v-69h-90v26h60v658h-60zM235 19q58 0 95 39.5t37 100.5t-37 100.5t-95 39.5t-95 -39.5t-37 -100.5t37 -100.5t95 -39.5z" />
    <glyph glyph-name="c" unicode="c" horiz-adv-x="354" 
d="M193 326q63 0 95 -42v34h26v-94h-26q-15 76 -95 76q-57 0 -93.5 -40t-36.5 -101t36 -101t93 -40q70 0 109 46l21 -18q-45 -54 -130 -54q-68 0 -114 48.5t-46 118.5q0 71 46.5 119t114.5 48z" />
    <glyph glyph-name="d" unicode="d" horiz-adv-x="430" 
d="M325 0v69q-42 -77 -130 -77q-70 0 -116.5 48t-46.5 119t46.5 119t116.5 48q88 0 130 -77v435h-61v26h91v-684h60v-26h-90zM195 299q-58 0 -95 -39.5t-37 -100.5t37 -100.5t95 -39.5t95 39.5t37 100.5t-37 100.5t-95 39.5z" />
    <glyph glyph-name="e" unicode="e" horiz-adv-x="381" 
d="M63 153q2 -62 40.5 -98.5t95.5 -36.5q73 0 114 51l20 -18q-46 -59 -134 -59q-73 0 -120 48t-47 119q0 70 47 118.5t113 48.5q70 0 112.5 -48t44.5 -125h-286zM64 179h254q-6 54 -38 87.5t-88 33.5q-52 0 -87 -34t-41 -87z" />
    <glyph glyph-name="f" unicode="f" horiz-adv-x="202" 
d="M16 0v26h45v266h-45v26h45v311q0 43 21.5 66t56.5 23q43 0 67 -32l-20 -19q-19 24 -47 24q-48 0 -48 -66v-307h83v-26h-83v-266h75v-26h-150z" />
    <glyph glyph-name="g" unicode="g" horiz-adv-x="350" 
d="M217 318h114v-26h-74q39 -37 39 -89q0 -53 -36 -88t-88 -35q-34 0 -60 15q-39 -6 -39 -34q0 -21 20 -30.5t87 -11.5q82 -3 123 -34.5t41 -82.5q0 -57 -49 -91t-121 -34q-73 0 -118.5 31.5t-45.5 88.5q0 81 91 106q-55 8 -55 57q0 19 12 32.5t31 18.5q-41 36 -41 92
q0 53 36 88t88 35q23 0 45 -8zM172 105q42 0 68.5 27.5t26.5 70.5t-26.5 70.5t-68.5 27.5t-68.5 -27.5t-26.5 -70.5t26.5 -70.5t68.5 -27.5zM174 -197q60 0 100 26t40 73q0 89 -143 89q-66 0 -99 -26t-33 -68q0 -46 37 -70t98 -24z" />
    <glyph glyph-name="h" unicode="h" horiz-adv-x="422" 
d="M257 0v26h60v167q0 106 -95 106q-52 0 -84.5 -32t-32.5 -86v-155h60v-26h-150v26h60v658h-60v26h90v-452q40 68 118 68q55 0 89.5 -32.5t34.5 -95.5v-172h60v-26h-150z" />
    <glyph glyph-name="i" unicode="i" horiz-adv-x="180" 
d="M16 292v26h90v-292h60v-26h-150v26h60v266h-60zM91 430q-10 0 -17.5 7.5t-7.5 17.5t7.5 17.5t17.5 7.5t17.5 -7.5t7.5 -17.5t-7.5 -17.5t-17.5 -7.5z" />
    <glyph glyph-name="j" unicode="j" horiz-adv-x="172" 
d="M22 292v26h90v-457q0 -39 -19 -60t-53 -21q-27 0 -46 16l15 22q14 -11 31 -11q42 0 42 57v428h-60zM97 430q-10 0 -17.5 7.5t-7.5 17.5t7.5 17.5t17.5 7.5t17.5 -7.5t7.5 -17.5t-7.5 -17.5t-17.5 -7.5z" />
    <glyph glyph-name="k" unicode="k" horiz-adv-x="364" 
d="M222 0v26h48l-110 129l-55 -58v-71h54v-26h-144v26h60v658h-60v26h90v-573l156 155h-60v26h150v-26h-55l-117 -115l129 -151h44v-26h-130z" />
    <glyph glyph-name="l" unicode="l" horiz-adv-x="180" 
d="M15 684v26h90v-684h60v-26h-150v26h60v658h-60z" />
    <glyph glyph-name="m" unicode="m" horiz-adv-x="604" 
d="M227 0v26h60v179q0 46 -21.5 70t-61.5 24q-46 0 -72.5 -27.5t-26.5 -78.5v-167h60v-26h-150v26h60v266h-60v26h90v-49q12 26 38.5 41.5t60.5 15.5q73 0 103 -64q35 64 110 64q48 0 80 -30.5t32 -84.5v-185h60v-26h-150v26h60v180q0 45 -22 69t-60 24q-47 0 -73.5 -27
t-26.5 -76v-170h60v-26h-150z" />
    <glyph glyph-name="n" unicode="n" horiz-adv-x="422" 
d="M257 0v26h60v167q0 106 -95 106q-52 0 -84.5 -32t-32.5 -86v-155h60v-26h-150v26h60v266h-60v26h90v-60q16 32 47.5 50t70.5 18q55 0 89.5 -32.5t34.5 -95.5v-172h60v-26h-150z" />
    <glyph glyph-name="o" unicode="o" horiz-adv-x="392" 
d="M196 -8q-68 0 -116 48.5t-48 118.5t48 118.5t116 48.5t116 -48.5t48 -118.5t-48 -118.5t-116 -48.5zM196 18q57 0 95 40.5t38 100.5t-38 100.5t-95 40.5t-95 -40.5t-38 -100.5t38 -100.5t95 -40.5z" />
    <glyph glyph-name="p" unicode="p" horiz-adv-x="432" 
d="M16 293v25h91v-69q42 77 130 77q70 0 116.5 -48t46.5 -119t-46.5 -119t-116.5 -48q-88 0 -130 77v-255h59v-26h-150v26h61v479h-61zM237 19q58 0 95 39.5t37 100.5t-37 100.5t-95 39.5t-95 -39.5t-37 -100.5t37 -100.5t95 -39.5z" />
    <glyph glyph-name="q" unicode="q" horiz-adv-x="432" 
d="M416 -186v-26h-150v26h59v255q-42 -77 -130 -77q-70 0 -116.5 48t-46.5 119t46.5 119t116.5 48q88 0 130 -77v69h91v-25h-61v-479h61zM195 299q-58 0 -95 -39.5t-37 -100.5t37 -100.5t95 -39.5t95 39.5t37 100.5t-37 100.5t-95 39.5z" />
    <glyph glyph-name="r" unicode="r" horiz-adv-x="259" 
d="M15 292v26h90v-56q33 64 95 64q29 0 49 -11l-11 -25q-13 8 -40 8q-38 0 -65.5 -33t-27.5 -81v-158h60v-26h-150v26h60v266h-60z" />
    <glyph glyph-name="s" unicode="s" horiz-adv-x="307" 
d="M245 238h-26q-10 62 -75 62q-29 0 -47 -14t-18 -38q0 -14 4.5 -24t17 -17.5t22 -11.5t31.5 -11q59 -19 87 -40t28 -63t-30.5 -65.5t-79.5 -23.5q-77 0 -105 49v-41h-26v100h26q5 -41 34.5 -61.5t70.5 -20.5q36 0 58 16.5t22 45.5t-21.5 44.5t-70.5 31.5q-51 17 -74 36
t-23 56q0 35 26 56.5t68 21.5q55 0 75 -38v30h26v-80z" />
    <glyph glyph-name="t" unicode="t" horiz-adv-x="221" 
d="M67 292h-45v26h45v131h30v-131h83v-26h-83v-223q0 -50 40 -50q21 0 41 16l15 -22q-23 -21 -56 -21t-51.5 20t-18.5 53v227z" />
    <glyph glyph-name="u" unicode="u" horiz-adv-x="412" 
d="M247 292v26h90v-292h60v-26h-90v60q-16 -32 -47.5 -50t-70.5 -18q-57 0 -90.5 32t-33.5 96v172h-60v26h90v-193q0 -106 95 -106q52 0 84.5 32t32.5 86v155h-60z" />
    <glyph glyph-name="v" unicode="v" horiz-adv-x="370" 
d="M242 292v26h123v-26h-43l-126 -292h-15l-133 292h-43v26h123v-26h-49l110 -242l104 242h-51z" />
    <glyph glyph-name="w" unicode="w" horiz-adv-x="561" 
d="M552 318v-26h-39l-111 -292h-14l-107 262l-108 -262h-14l-111 292h-39v26h121v-26h-51l89 -236l106 263h13l108 -262l88 235h-52v26h121z" />
    <glyph glyph-name="x" unicode="x" horiz-adv-x="371" 
d="M337 318v-26h-46l-87 -119l106 -147h46v-26h-138v26h57l-89 124l-90 -124h59v-26h-140v26h48l106 146l-87 120h-45v26h130v-26h-50l70 -96l71 96h-49v26h128z" />
    <glyph glyph-name="y" unicode="y" horiz-adv-x="368" 
d="M5 292v26h125v-26h-48l106 -235l101 235h-51v26h125v-26h-43l-205 -478h58v-26h-144v26h55l89 207l-123 271h-45z" />
    <glyph glyph-name="z" unicode="z" horiz-adv-x="322" 
d="M42 223v95h246v-15l-215 -277h193v81h26v-107h-262v15l215 277h-177v-69h-26z" />
    <glyph glyph-name="braceleft" unicode="{" horiz-adv-x="310" 
d="M251 -128q-118 0 -118 145v178q0 41 -15 57t-45 16h-47v27h47q30 0 45 16t15 56v198q0 145 118 145h19v-27h-19q-43 0 -65 -26t-22 -92v-198q0 -71 -50 -85q50 -12 50 -87v-178q0 -66 22 -92t65 -26h19v-27h-19z" />
    <glyph glyph-name="bar" unicode="|" horiz-adv-x="217" 
d="M93 -128v838h31v-838h-31z" />
    <glyph glyph-name="braceright" unicode="}" horiz-adv-x="310" 
d="M59 710q118 0 118 -145v-197q0 -41 15 -57t45 -16h47v-27h-47q-30 0 -45 -16t-15 -56v-179q0 -145 -118 -145h-19v27h19q43 0 65 26t22 92v179q0 71 50 85q-50 13 -50 87v197q0 66 -22 92t-65 26h-19v27h19z" />
    <glyph glyph-name="asciitilde" unicode="~" horiz-adv-x="326" 
d="M216 226q-22 0 -57.5 22t-49.5 22q-26 0 -38 -42l-26 5q12 66 65 66q22 0 57.5 -22t49.5 -22q26 0 38 42l26 -5q-12 -66 -65 -66z" />
    <glyph glyph-name="uni00A0" unicode="&#xa0;" horiz-adv-x="182" 
 />
    <glyph glyph-name="exclamdown" unicode="&#xa1;" horiz-adv-x="202" 
d="M101 630q-11 0 -19.5 8t-8.5 20t8.5 20t19.5 8t19.5 -8t8.5 -20t-8.5 -20t-19.5 -8zM85 0v523h32v-523h-32z" />
    <glyph glyph-name="cent" unicode="&#xa2;" horiz-adv-x="354" 
d="M172 -106v99q-60 8 -100 54.5t-40 111.5q0 64 39.5 111t100.5 55v99h29v-98q57 -3 87 -42v34h26v-94h-26q-15 73 -87 76v-282q62 3 100 46l21 -18q-43 -51 -121 -54v-98h-29zM63 159q0 -55 30 -94t79 -46v279q-49 -7 -79 -46t-30 -93z" />
    <glyph glyph-name="sterling" unicode="&#xa3;" horiz-adv-x="428" 
d="M149 75q-31 24 -59 24q-19 0 -31.5 -11t-12.5 -30t12.5 -29.5t32.5 -10.5q25 0 39.5 17t18.5 40zM414 44q-47 -52 -112 -52q-27 0 -53.5 11.5t-38.5 21l-38 31.5q-8 -27 -29 -45.5t-52 -18.5q-32 0 -53 18.5t-21 47.5t20.5 48t52.5 19q31 0 59 -18q-4 46 -41 131h-72v27
h60q-21 54 -21 99q0 63 42.5 103.5t112.5 40.5q96 0 129 -67v59h27v-139h-26q-2 56 -36.5 87.5t-93.5 31.5q-58 0 -90.5 -32t-32.5 -85q0 -45 21 -98h164v-27h-153q38 -88 38 -151v-1q1 -1 17 -14.5t20 -16.5t18 -12.5t22.5 -12.5t21.5 -6.5t26 -3.5q53 0 90 44z" />
    <glyph glyph-name="yen" unicode="&#xa5;" horiz-adv-x="490" 
d="M10 500h138v-27h-55l153 -266l153 266h-57v27h138v-27h-47l-106 -181h101v-27h-116l-45 -77h161v-27h-167v-134h60v-27h-151v27h60v134h-173v27h167l-45 77h-122v27h106l-105 181h-48v27z" />
    <glyph glyph-name="section" unicode="&#xa7;" horiz-adv-x="469" 
d="M84 -150v-63h-26v134h23q6 -57 51 -85.5t106 -28.5q57 0 89 28.5t32 73.5q0 41 -25 66t-78 46l-114 46q-57 23 -84 54t-27 77q0 69 65 105q-17 29 -17 70q0 59 42 97t108 38q99 0 134 -68v60h26v-139h-23q-5 55 -40 88t-97 33q-53 0 -86 -31t-33 -78t22.5 -71t73.5 -45
l117 -44q115 -46 115 -132q0 -71 -73 -99q25 -31 25 -73q0 -56 -40 -92t-112 -36q-111 0 -154 69zM348 0q60 21 60 81q0 38 -20.5 60.5t-74.5 44.5l-117 44q-60 24 -86 54q-49 -25 -49 -86q0 -39 21 -61.5t70 -42.5l114 -46q55 -22 82 -48z" />
    <glyph glyph-name="dieresis" unicode="&#xa8;" horiz-adv-x="500" 
d="M302 431q-9 0 -16.5 7t-7.5 17t7.5 17t16.5 7t16.5 -7t7.5 -17t-7.5 -17t-16.5 -7zM198 431q-9 0 -16.5 7t-7.5 17t7.5 17t16.5 7t16.5 -7t7.5 -17t-7.5 -17t-16.5 -7z" />
    <glyph glyph-name="copyright" unicode="&#xa9;" horiz-adv-x="600" 
d="M300 -8q-108 0 -183.5 74t-75.5 184t75.5 184t183.5 74t183.5 -74t75.5 -184t-75.5 -184t-183.5 -74zM300 19q98 0 163.5 66t65.5 165q0 100 -65.5 165.5t-163.5 65.5t-163.5 -65.5t-65.5 -165.5q0 -99 65.5 -165t163.5 -66zM406 158l22 -19q-47 -56 -130 -56
q-68 0 -114 48.5t-46 118.5q0 71 46.5 119t114.5 48q33 0 59.5 -12t34.5 -26v31h27v-102h-24q-6 82 -97 82q-56 0 -92 -40t-36 -100t35.5 -100t91.5 -40q67 0 108 48z" />
    <glyph glyph-name="ordfeminine" unicode="&#xaa;" horiz-adv-x="333" 
d="M244 384v11q0 50 -20.5 69t-60.5 19q-54 0 -91 -50l-19 15q36 60 110 60q110 0 110 -109v-158h50v-26h-79v38q-32 -45 -99 -45q-49 0 -80 23t-31 66t32 65t80 22h98zM244 359h-94q-87 0 -87 -62q0 -64 86 -64q39 0 67 19.5t28 57.5v49z" />
    <glyph glyph-name="guillemotleft" unicode="&#xab;" horiz-adv-x="277" 
d="M66 157l77 -125h-34l-77 123v4l77 121h34zM168 157l77 -125h-34l-77 123v4l77 121h34z" />
    <glyph glyph-name="registered" unicode="&#xae;" horiz-adv-x="371" 
d="M185 391q-63 0 -106.5 42.5t-43.5 105.5t43.5 106t106.5 43t107 -43t44 -106t-44 -105.5t-107 -42.5zM185 413q55 0 90.5 35t35.5 91t-35.5 91.5t-90.5 35.5t-90 -35.5t-35 -91.5t35 -91t90 -35zM133 475v131h-18v20h71q30 0 47 -14t17 -38q0 -36 -36 -50l30 -49h17v-20
h-32l-39 65h-33v-45h18v-20h-60v20h18zM157 539h28q40 0 40 35q0 32 -40 32h-28v-67z" />
    <glyph glyph-name="macron" unicode="&#xaf;" horiz-adv-x="500" 
d="M171 448v26h158v-26h-158z" />
    <glyph glyph-name="degree" unicode="&#xb0;" horiz-adv-x="303" 
d="M151 311q-41 0 -70 28.5t-29 68.5q0 41 29 69.5t70 28.5t69.5 -28.5t28.5 -69.5q0 -40 -28.5 -68.5t-69.5 -28.5zM151 336q31 0 50.5 20.5t19.5 51.5t-19.5 52t-50.5 21t-51 -21t-20 -52t20 -51.5t51 -20.5z" />
    <glyph glyph-name="two.superior" unicode="&#xb2;" horiz-adv-x="244" 
d="M19 394v8l94 94q24 24 34.5 35.5t22.5 32t12 38.5q0 27 -16.5 41t-41.5 14q-49 0 -68 -55l-26 9q10 35 35.5 54t58.5 19q37 0 63 -21.5t26 -60.5q0 -20 -13.5 -43.5t-25 -36.5t-39.5 -41l-64 -61h127v40h26v-66h-205z" />
    <glyph glyph-name="three.superior" unicode="&#xb3;" horiz-adv-x="258" 
d="M24 455l25 13q27 -52 81 -52q33 0 53 20t20 53t-20.5 52t-55.5 19q-21 0 -36 -5l-2 7l82 92h-113v-40h-26v66h185v-9l-78 -88q41 0 68 -26t27 -68q0 -45 -28.5 -72.5t-75.5 -27.5q-37 0 -65 18.5t-41 47.5z" />
    <glyph glyph-name="acute" unicode="&#xb4;" horiz-adv-x="500" 
d="M235 396l60 132h33l-68 -132h-25z" />
    <glyph glyph-name="paragraph" unicode="&#xb6;" horiz-adv-x="457" 
d="M236 378h-26q-73 0 -119.5 43t-46.5 108t46.5 108t119.5 43h179v-680h-32v652h-89v-652h-32v378z" />
    <glyph glyph-name="periodcentered" unicode="&#xb7;" horiz-adv-x="142" 
d="M71 186q-11 0 -19.5 8t-8.5 20t8.5 20t19.5 8t19.5 -8t8.5 -20t-8.5 -20t-19.5 -8z" />
    <glyph glyph-name="cedilla" unicode="&#xb8;" horiz-adv-x="500" 
d="M254 -186q-53 0 -72 45l22 12q14 -32 50 -32q17 0 28.5 10t11.5 29q0 44 -49 44h-9v78h25v-55q26 -2 43.5 -20.5t17.5 -46.5q0 -30 -20 -47t-48 -17z" />
    <glyph glyph-name="one.superior" unicode="&#xb9;" horiz-adv-x="208" 
d="M42 394v26h53v234h-59v26h89v-260h53v-26h-136z" />
    <glyph glyph-name="ordmasculine" unicode="&#xba;" horiz-adv-x="355" 
d="M177 208q-62 0 -104.5 43t-42.5 107t42.5 107t104.5 43t105 -43.5t43 -106.5t-43 -106.5t-105 -43.5zM177 232q51 0 84.5 36t33.5 90t-33.5 90t-84.5 36t-84.5 -36t-33.5 -90t33.5 -90t84.5 -36z" />
    <glyph glyph-name="guillemotright" unicode="&#xbb;" horiz-adv-x="277" 
d="M134 32l77 123l-77 125h34l77 -123v-4l-77 -121h-34zM32 32l77 123l-77 125h34l77 -123v-4l-77 -121h-34z" />
    <glyph glyph-name="onequarter" unicode="&#xbc;" horiz-adv-x="345" 
d="M170 26h42v29h-158v14l176 221h12v-210h39v-25h-39v-29h39v-26h-111v26zM212 80v151l-116 -151h116zM30 328v25h282v-25h-282zM102 394v26h53v234h-59v26h89v-260h53v-26h-136z" />
    <glyph glyph-name="onehalf" unicode="&#xbd;" horiz-adv-x="326" 
d="M32 328v25h262v-25h-262zM94 394v26h53v234h-59v26h89v-260h53v-26h-136zM60 0v8l94 94q24 24 34.5 35.5t22.5 32t12 38.5q0 27 -16.5 41t-41.5 14q-49 0 -68 -55l-26 9q10 35 35.5 54t58.5 19q37 0 63 -21.5t26 -60.5q0 -20 -13.5 -43.5t-25 -36.5t-39.5 -41l-64 -61
h127v40h26v-66h-205z" />
    <glyph glyph-name="threequarters" unicode="&#xbe;" horiz-adv-x="345" 
d="M170 26h42v29h-158v14l176 221h12v-210h39v-25h-39v-29h39v-26h-111v26zM212 80v151l-116 -151h116zM23 328v25h299v-25h-299zM61 455l25 13q27 -52 81 -52q33 0 53 20t20 53t-20.5 52t-55.5 19q-21 0 -36 -5l-2 7l82 92h-113v-40h-26v66h185v-9l-78 -88q41 0 68 -26
t27 -68q0 -45 -28.5 -72.5t-75.5 -27.5q-37 0 -65 18.5t-41 47.5z" />
    <glyph glyph-name="questiondown" unicode="&#xbf;" horiz-adv-x="436" 
d="M260 523v-201h-24q-68 0 -110 -43.5t-42 -107.5q0 -73 40 -112t107 -39q99 0 150 97l24 -14q-55 -111 -174 -111q-81 0 -129.5 49t-48.5 130q0 74 51 125.5t128 52.5v174h28zM246 686q11 0 19.5 -8t8.5 -20t-8.5 -20t-19.5 -8t-19.5 8t-8.5 20t8.5 20t19.5 8z" />
    <glyph glyph-name="Agrave" unicode="&#xc0;" 
d="M669 27v-27h-167v27h71l-66 174h-335l-67 -174h72v-27h-167v27h63l234 626h-56v27h178v-27h-57l234 -626h63zM340 653l-157 -424h313zM327 721l-68 132h33l60 -132h-25z" />
    <glyph glyph-name="Aacute" unicode="&#xc1;" 
d="M669 27v-27h-167v27h71l-66 174h-335l-67 -174h72v-27h-167v27h63l234 626h-56v27h178v-27h-57l234 -626h63zM340 653l-157 -424h313zM320 721l60 132h33l-68 -132h-25z" />
    <glyph glyph-name="Acircumflex" unicode="&#xc2;" 
d="M669 27v-27h-167v27h71l-66 174h-335l-67 -174h72v-27h-167v27h63l234 626h-56v27h178v-27h-57l234 -626h63zM340 653l-157 -424h313zM244 724l92 112h3l92 -112h-26l-67 70l-68 -70h-26z" />
    <glyph glyph-name="Atilde" unicode="&#xc3;" 
d="M669 27v-27h-167v27h71l-66 174h-335l-67 -174h72v-27h-167v27h63l234 626h-56v27h178v-27h-57l234 -626h63zM340 653l-157 -424h313zM380 731q-20 0 -48 21t-39 21q-12 0 -18 -9.5t-11 -30.5l-25 4q12 63 55 63q20 0 48 -21t39 -21q12 0 18 9.5t11 30.5l25 -4
q-12 -63 -55 -63z" />
    <glyph glyph-name="Adieresis" unicode="&#xc4;" 
d="M669 27v-27h-167v27h71l-66 174h-335l-67 -174h72v-27h-167v27h63l234 626h-56v27h178v-27h-57l234 -626h63zM340 653l-157 -424h313zM389 741q-9 0 -16.5 7t-7.5 17t7.5 17t16.5 7t16.5 -7t7.5 -17t-7.5 -17t-16.5 -7zM285 741q-9 0 -16.5 7t-7.5 17t7.5 17t16.5 7
t16.5 -7t7.5 -17t-7.5 -17t-16.5 -7z" />
    <glyph glyph-name="Aring" unicode="&#xc5;" 
d="M669 27v-27h-167v27h71l-66 174h-335l-67 -174h72v-27h-167v27h63l234 626h-56v27h178v-27h-57l234 -626h63zM340 653l-157 -424h313zM337 711q-30 0 -51 21t-21 50t21 50.5t51 21.5t51 -21.5t21 -50.5t-21 -50t-51 -21zM337 735q20 0 32.5 13t12.5 34t-12.5 34.5
t-32.5 13.5t-32.5 -13.5t-12.5 -34.5t12.5 -34t32.5 -13z" />
    <glyph glyph-name="AE" unicode="&#xc6;" horiz-adv-x="931" 
d="M848 538v114h-333v-297h313v-28h-313v-299h347v114h29v-142h-477v27h69v174h-265l-114 -174h73v-27h-167v27h60l411 626h-67v27h463v-142h-29zM237 229h246v375z" />
    <glyph glyph-name="Ccedilla" unicode="&#xc7;" horiz-adv-x="707" 
d="M390 -186q-53 0 -72 45l22 12q14 -32 50 -32q17 0 28.5 10t11.5 29q0 44 -49 44h-9v71q-142 6 -236 103.5t-93 243.5q1 151 99 249.5t243 98.5q83 0 145 -30t95 -84v106h29v-182h-29q-12 76 -80 118.5t-160 42.5q-132 0 -220.5 -91t-88.5 -228t90 -228t225 -91
q79 0 144.5 33t109.5 91l24 -18q-48 -63 -118.5 -98.5t-153.5 -36.5v-47q26 -2 43.5 -20.5t17.5 -46.5q0 -30 -20 -47t-48 -17z" />
    <glyph glyph-name="Egrave" unicode="&#xc8;" horiz-adv-x="558" 
d="M475 538v114h-333v-297h293v-28h-293v-299h347v114h29v-142h-478v27h70v626h-70v27h464v-142h-29zM291 721l-68 132h33l60 -132h-25z" />
    <glyph glyph-name="Eacute" unicode="&#xc9;" horiz-adv-x="558" 
d="M475 538v114h-333v-297h293v-28h-293v-299h347v114h29v-142h-478v27h70v626h-70v27h464v-142h-29zM274 721l60 132h33l-68 -132h-25z" />
    <glyph glyph-name="Ecircumflex" unicode="&#xca;" horiz-adv-x="558" 
d="M475 538v114h-333v-297h293v-28h-293v-299h347v114h29v-142h-478v27h70v626h-70v27h464v-142h-29zM206 724l92 112h3l92 -112h-26l-67 70l-68 -70h-26z" />
    <glyph glyph-name="Edieresis" unicode="&#xcb;" horiz-adv-x="558" 
d="M475 538v114h-333v-297h293v-28h-293v-299h347v114h29v-142h-478v27h70v626h-70v27h464v-142h-29zM353 741q-9 0 -16.5 7t-7.5 17t7.5 17t16.5 7t16.5 -7t7.5 -17t-7.5 -17t-16.5 -7zM249 741q-9 0 -16.5 7t-7.5 17t7.5 17t16.5 7t16.5 -7t7.5 -17t-7.5 -17t-16.5 -7z
" />
    <glyph glyph-name="Igrave" unicode="&#xcc;" horiz-adv-x="252" 
d="M40 653v27h172v-27h-70v-626h70v-27h-172v27h70v626h-70zM116 721l-68 132h33l60 -132h-25z" />
    <glyph glyph-name="Iacute" unicode="&#xcd;" horiz-adv-x="252" 
d="M40 653v27h172v-27h-70v-626h70v-27h-172v27h70v626h-70zM113 721l60 132h33l-68 -132h-25z" />
    <glyph glyph-name="Icircumflex" unicode="&#xce;" horiz-adv-x="252" 
d="M40 653v27h172v-27h-70v-626h70v-27h-172v27h70v626h-70zM33 724l92 112h3l92 -112h-26l-67 70l-68 -70h-26z" />
    <glyph glyph-name="Idieresis" unicode="&#xcf;" horiz-adv-x="252" 
d="M40 653v27h172v-27h-70v-626h70v-27h-172v27h70v626h-70zM178 741q-9 0 -16.5 7t-7.5 17t7.5 17t16.5 7t16.5 -7t7.5 -17t-7.5 -17t-16.5 -7zM74 741q-9 0 -16.5 7t-7.5 17t7.5 17t16.5 7t16.5 -7t7.5 -17t-7.5 -17t-16.5 -7z" />
    <glyph glyph-name="Eth" unicode="&#xd0;" horiz-adv-x="661" 
d="M31 327v28h78v298h-70v27h222q168 0 264 -93.5t96 -246.5q0 -154 -95.5 -247t-264.5 -93h-222v27h70v300h-78zM141 29h115q161 0 246.5 84.5t85.5 226.5t-85.5 226.5t-246.5 84.5h-115v-296h188v-28h-188v-298z" />
    <glyph glyph-name="Ntilde" unicode="&#xd1;" horiz-adv-x="724" 
d="M689 680v-27h-70v-653h-21l-458 638v-611h72v-27h-172v27h70v626h-70v27h105l445 -622v595h-73v27h172zM408 731q-20 0 -48 21t-39 21q-12 0 -18 -9.5t-11 -30.5l-25 4q12 63 55 63q20 0 48 -21t39 -21q12 0 18 9.5t11 30.5l25 -4q-12 -63 -55 -63z" />
    <glyph glyph-name="Ograve" unicode="&#xd2;" horiz-adv-x="780" 
d="M390 -8q-146 0 -247 99.5t-101 248.5t101 248.5t247 99.5t247 -99.5t101 -248.5t-101 -248.5t-247 -99.5zM390 21q135 0 225 91t90 228t-90 228t-225 91t-225 -91t-90 -228t90 -228t225 -91zM380 721l-68 132h33l60 -132h-25z" />
    <glyph glyph-name="Oacute" unicode="&#xd3;" horiz-adv-x="780" 
d="M390 -8q-146 0 -247 99.5t-101 248.5t101 248.5t247 99.5t247 -99.5t101 -248.5t-101 -248.5t-247 -99.5zM390 21q135 0 225 91t90 228t-90 228t-225 91t-225 -91t-90 -228t90 -228t225 -91zM373 721l60 132h33l-68 -132h-25z" />
    <glyph glyph-name="Ocircumflex" unicode="&#xd4;" horiz-adv-x="780" 
d="M390 -8q-146 0 -247 99.5t-101 248.5t101 248.5t247 99.5t247 -99.5t101 -248.5t-101 -248.5t-247 -99.5zM390 21q135 0 225 91t90 228t-90 228t-225 91t-225 -91t-90 -228t90 -228t225 -91zM297 724l92 112h3l92 -112h-26l-67 70l-68 -70h-26z" />
    <glyph glyph-name="Otilde" unicode="&#xd5;" horiz-adv-x="780" 
d="M390 -8q-146 0 -247 99.5t-101 248.5t101 248.5t247 99.5t247 -99.5t101 -248.5t-101 -248.5t-247 -99.5zM390 21q135 0 225 91t90 228t-90 228t-225 91t-225 -91t-90 -228t90 -228t225 -91zM433 731q-21 0 -48 21t-39 21t-18 -9.5t-11 -30.5l-25 4q12 63 55 63
q21 0 48 -21t39 -21t18 9.5t11 30.5l25 -4q-12 -63 -55 -63z" />
    <glyph glyph-name="Odieresis" unicode="&#xd6;" horiz-adv-x="780" 
d="M390 -8q-146 0 -247 99.5t-101 248.5t101 248.5t247 99.5t247 -99.5t101 -248.5t-101 -248.5t-247 -99.5zM390 21q135 0 225 91t90 228t-90 228t-225 91t-225 -91t-90 -228t90 -228t225 -91zM442 741q-9 0 -16.5 7t-7.5 17t7.5 17t16.5 7t16.5 -7t7.5 -17t-7.5 -17
t-16.5 -7zM338 741q-9 0 -16.5 7t-7.5 17t7.5 17t16.5 7t16.5 -7t7.5 -17t-7.5 -17t-16.5 -7z" />
    <glyph glyph-name="multiply" unicode="&#xd7;" horiz-adv-x="278" 
d="M159 237l85 -85l-20 -20l-85 85l-85 -85l-20 20l85 85l-85 85l20 20l85 -85l85 85l20 -20z" />
    <glyph glyph-name="Oslash" unicode="&#xd8;" horiz-adv-x="784" 
d="M392 -8q-136 0 -235 89l-89 -91l-20 19l89 91q-93 98 -93 240q0 149 101 248.5t247 99.5q136 0 235 -89l88 90l20 -19l-88 -90q93 -98 93 -240q0 -149 -101 -248.5t-247 -99.5zM392 21q135 0 225 91t90 228q0 130 -81 219l-449 -457q89 -81 215 -81zM77 340
q0 -130 81 -219l448 457q-87 81 -214 81q-135 0 -225 -91t-90 -228z" />
    <glyph glyph-name="Ugrave" unicode="&#xd9;" horiz-adv-x="660" 
d="M625 680v-27h-70v-429q0 -110 -63 -171t-163 -61q-99 0 -161.5 61t-62.5 171v429h-70v27h172v-27h-70v-426q0 -98 52.5 -152.5t139.5 -54.5t140.5 54.5t53.5 152.5v426h-70v27h172zM324 721l-68 132h33l60 -132h-25z" />
    <glyph glyph-name="Uacute" unicode="&#xda;" horiz-adv-x="660" 
d="M625 680v-27h-70v-429q0 -110 -63 -171t-163 -61q-99 0 -161.5 61t-62.5 171v429h-70v27h172v-27h-70v-426q0 -98 52.5 -152.5t139.5 -54.5t140.5 54.5t53.5 152.5v426h-70v27h172zM313 721l60 132h33l-68 -132h-25z" />
    <glyph glyph-name="Ucircumflex" unicode="&#xdb;" horiz-adv-x="660" 
d="M625 680v-27h-70v-429q0 -110 -63 -171t-163 -61q-99 0 -161.5 61t-62.5 171v429h-70v27h172v-27h-70v-426q0 -98 52.5 -152.5t139.5 -54.5t140.5 54.5t53.5 152.5v426h-70v27h172zM237 724l92 112h3l92 -112h-26l-67 70l-68 -70h-26z" />
    <glyph glyph-name="Udieresis" unicode="&#xdc;" horiz-adv-x="660" 
d="M625 680v-27h-70v-429q0 -110 -63 -171t-163 -61q-99 0 -161.5 61t-62.5 171v429h-70v27h172v-27h-70v-426q0 -98 52.5 -152.5t139.5 -54.5t140.5 54.5t53.5 152.5v426h-70v27h172zM382 741q-9 0 -16.5 7t-7.5 17t7.5 17t16.5 7t16.5 -7t7.5 -17t-7.5 -17t-16.5 -7z
M278 741q-9 0 -16.5 7t-7.5 17t7.5 17t16.5 7t16.5 -7t7.5 -17t-7.5 -17t-16.5 -7z" />
    <glyph glyph-name="Yacute" unicode="&#xdd;" horiz-adv-x="625" 
d="M227 0v27h70v246l-222 380h-60v27h160v-27h-64l202 -346l203 346h-67v27h161v-27h-60l-221 -378v-248h70v-27h-172zM296 721l60 132h33l-68 -132h-25z" />
    <glyph glyph-name="Thorn" unicode="&#xde;" horiz-adv-x="545" 
d="M40 653v27h172v-27h-70v-116h155q99 0 153.5 -54.5t54.5 -137.5t-54.5 -137t-153.5 -54h-155v-127h70v-27h-172v27h70v626h-70zM142 182h151q86 0 133 45t47 118t-47 118.5t-133 45.5h-151v-327z" />
    <glyph glyph-name="germandbls" unicode="&#xdf;" horiz-adv-x="396" 
d="M16 0v26h45v266h-45v26h45v273q0 63 36.5 95t83.5 32q48 0 79 -27.5t31 -78.5q0 -23 -9 -53l-78 -264q-7 -26 -7 -42q0 -26 18.5 -41.5t54.5 -27.5q48 -16 71.5 -38.5t23.5 -65.5q0 -41 -26.5 -64.5t-74.5 -23.5q-83 0 -119 74l24 13q17 -31 38.5 -46t56.5 -15
q34 0 52.5 16.5t18.5 44.5q0 33 -15.5 47.5t-56.5 29.5q-48 17 -72 39t-24 58q0 20 7 42l81 273q7 24 7 44q0 38 -23 58.5t-58 20.5q-38 0 -64 -25.5t-26 -78.5v-587h-75z" />
    <glyph glyph-name="agrave" unicode="&#xe0;" horiz-adv-x="368" 
d="M267 190v12q0 98 -89 98q-66 0 -101 -55l-22 15q44 66 123 66q56 0 87.5 -30.5t31.5 -91.5v-178h59v-26h-89v42q-36 -50 -109 -50q-54 0 -89 26.5t-35 74.5t36 72.5t89 24.5h108zM267 164h-104q-43 0 -71 -17t-28 -54q0 -74 98 -74q43 0 74 22.5t31 64.5v58zM170 396
l-68 132h33l60 -132h-25z" />
    <glyph glyph-name="aacute" unicode="&#xe1;" horiz-adv-x="368" 
d="M267 190v12q0 98 -89 98q-66 0 -101 -55l-22 15q44 66 123 66q56 0 87.5 -30.5t31.5 -91.5v-178h59v-26h-89v42q-36 -50 -109 -50q-54 0 -89 26.5t-35 74.5t36 72.5t89 24.5h108zM267 164h-104q-43 0 -71 -17t-28 -54q0 -74 98 -74q43 0 74 22.5t31 64.5v58zM163 396
l60 132h33l-68 -132h-25z" />
    <glyph glyph-name="acircumflex" unicode="&#xe2;" horiz-adv-x="368" 
d="M267 190v12q0 98 -89 98q-66 0 -101 -55l-22 15q44 66 123 66q56 0 87.5 -30.5t31.5 -91.5v-178h59v-26h-89v42q-36 -50 -109 -50q-54 0 -89 26.5t-35 74.5t36 72.5t89 24.5h108zM267 164h-104q-43 0 -71 -17t-28 -54q0 -74 98 -74q43 0 74 22.5t31 64.5v58zM87 414
l92 112h3l92 -112h-26l-67 70l-68 -70h-26z" />
    <glyph glyph-name="atilde" unicode="&#xe3;" horiz-adv-x="368" 
d="M267 190v12q0 98 -89 98q-66 0 -101 -55l-22 15q44 66 123 66q56 0 87.5 -30.5t31.5 -91.5v-178h59v-26h-89v42q-36 -50 -109 -50q-54 0 -89 26.5t-35 74.5t36 72.5t89 24.5h108zM267 164h-104q-43 0 -71 -17t-28 -54q0 -74 98 -74q43 0 74 22.5t31 64.5v58zM223 421
q-20 0 -47.5 21t-39.5 21t-18 -9.5t-11 -30.5l-25 4q12 63 55 63q21 0 48 -21t39 -21t18 9.5t11 30.5l25 -4q-12 -63 -55 -63z" />
    <glyph glyph-name="adieresis" unicode="&#xe4;" horiz-adv-x="368" 
d="M267 190v12q0 98 -89 98q-66 0 -101 -55l-22 15q44 66 123 66q56 0 87.5 -30.5t31.5 -91.5v-178h59v-26h-89v42q-36 -50 -109 -50q-54 0 -89 26.5t-35 74.5t36 72.5t89 24.5h108zM267 164h-104q-43 0 -71 -17t-28 -54q0 -74 98 -74q43 0 74 22.5t31 64.5v58zM232 431
q-9 0 -16.5 7t-7.5 17t7.5 17t16.5 7t16.5 -7t7.5 -17t-7.5 -17t-16.5 -7zM128 431q-9 0 -16.5 7t-7.5 17t7.5 17t16.5 7t16.5 -7t7.5 -17t-7.5 -17t-16.5 -7z" />
    <glyph glyph-name="aring" unicode="&#xe5;" horiz-adv-x="368" 
d="M267 190v12q0 98 -89 98q-66 0 -101 -55l-22 15q44 66 123 66q56 0 87.5 -30.5t31.5 -91.5v-178h59v-26h-89v42q-36 -50 -109 -50q-54 0 -89 26.5t-35 74.5t36 72.5t89 24.5h108zM267 164h-104q-43 0 -71 -17t-28 -54q0 -74 98 -74q43 0 74 22.5t31 64.5v58zM180 381
q-30 0 -51 21t-21 50t21 50.5t51 21.5t51 -21.5t21 -50.5t-21 -50t-51 -21zM180 405q20 0 32.5 13t12.5 34t-12.5 34.5t-32.5 13.5t-32.5 -13.5t-12.5 -34.5t12.5 -34t32.5 -13z" />
    <glyph glyph-name="ae" unicode="&#xe6;" horiz-adv-x="615" 
d="M267 158h-106q-97 0 -97 -68q0 -35 27 -53t71 -18q42 0 73.5 24t31.5 66v49zM547 69l20 -18q-46 -59 -134 -59q-50 0 -87.5 23.5t-57.5 64.5q-9 -34 -33 -54.5t-47.5 -27t-49.5 -6.5q-54 0 -89 26t-35 72q0 48 35 71t88 23h110v18q0 98 -89 98q-66 0 -101 -55l-22 15
q44 66 123 66q96 0 112 -86q20 40 56 63t80 23q69 0 111.5 -46.5t45.5 -121.5h-286q0 -64 38.5 -102t97.5 -38q73 0 114 51zM299 184h253q-8 52 -39 84t-87 32q-50 0 -84.5 -32.5t-42.5 -83.5z" />
    <glyph glyph-name="ccedilla" unicode="&#xe7;" horiz-adv-x="354" 
d="M190 -186q-53 0 -72 45l22 12q14 -32 50 -32q17 0 28.5 10t11.5 29q0 44 -49 44h-9v71q-60 8 -100 54.5t-40 111.5q0 71 46.5 119t114.5 48q63 0 95 -42v34h26v-94h-26q-15 76 -95 76q-57 0 -93.5 -40t-36.5 -101t36 -101t93 -40q70 0 109 46l21 -18q-43 -52 -125 -54
v-47q26 -2 43.5 -20.5t17.5 -46.5q0 -30 -20 -47t-48 -17z" />
    <glyph glyph-name="egrave" unicode="&#xe8;" horiz-adv-x="381" 
d="M63 153q2 -62 40.5 -98.5t95.5 -36.5q73 0 114 51l20 -18q-46 -59 -134 -59q-73 0 -120 48t-47 119q0 70 47 118.5t113 48.5q70 0 112.5 -48t44.5 -125h-286zM64 179h254q-6 54 -38 87.5t-88 33.5q-52 0 -87 -34t-41 -87zM180 396l-68 132h33l60 -132h-25z" />
    <glyph glyph-name="eacute" unicode="&#xe9;" horiz-adv-x="381" 
d="M63 153q2 -62 40.5 -98.5t95.5 -36.5q73 0 114 51l20 -18q-46 -59 -134 -59q-73 0 -120 48t-47 119q0 70 47 118.5t113 48.5q70 0 112.5 -48t44.5 -125h-286zM64 179h254q-6 54 -38 87.5t-88 33.5q-52 0 -87 -34t-41 -87zM173 396l60 132h33l-68 -132h-25z" />
    <glyph glyph-name="ecircumflex" unicode="&#xea;" horiz-adv-x="381" 
d="M63 153q2 -62 40.5 -98.5t95.5 -36.5q73 0 114 51l20 -18q-46 -59 -134 -59q-73 0 -120 48t-47 119q0 70 47 118.5t113 48.5q70 0 112.5 -48t44.5 -125h-286zM64 179h254q-6 54 -38 87.5t-88 33.5q-52 0 -87 -34t-41 -87zM97 414l92 112h3l92 -112h-26l-67 70l-68 -70
h-26z" />
    <glyph glyph-name="edieresis" unicode="&#xeb;" horiz-adv-x="381" 
d="M63 153q2 -62 40.5 -98.5t95.5 -36.5q73 0 114 51l20 -18q-46 -59 -134 -59q-73 0 -120 48t-47 119q0 70 47 118.5t113 48.5q70 0 112.5 -48t44.5 -125h-286zM64 179h254q-6 54 -38 87.5t-88 33.5q-52 0 -87 -34t-41 -87zM242 431q-9 0 -16.5 7t-7.5 17t7.5 17t16.5 7
t16.5 -7t7.5 -17t-7.5 -17t-16.5 -7zM138 431q-9 0 -16.5 7t-7.5 17t7.5 17t16.5 7t16.5 -7t7.5 -17t-7.5 -17t-16.5 -7z" />
    <glyph glyph-name="igrave" unicode="&#xec;" horiz-adv-x="180" 
d="M16 292v26h90v-292h60v-26h-150v26h60v266h-60zM81 396l-68 132h33l60 -132h-25z" />
    <glyph glyph-name="iacute" unicode="&#xed;" horiz-adv-x="180" 
d="M16 292v26h90v-292h60v-26h-150v26h60v266h-60zM74 396l60 132h33l-68 -132h-25z" />
    <glyph glyph-name="icircumflex" unicode="&#xee;" horiz-adv-x="180" 
d="M16 292v26h90v-292h60v-26h-150v26h60v266h-60zM-2 414l92 112h3l92 -112h-26l-67 70l-68 -70h-26z" />
    <glyph glyph-name="idieresis" unicode="&#xef;" horiz-adv-x="180" 
d="M16 292v26h90v-292h60v-26h-150v26h60v266h-60zM143 431q-9 0 -16.5 7t-7.5 17t7.5 17t16.5 7t16.5 -7t7.5 -17t-7.5 -17t-16.5 -7zM39 431q-9 0 -16.5 7t-7.5 17t7.5 17t16.5 7t16.5 -7t7.5 -17t-7.5 -17t-16.5 -7z" />
    <glyph glyph-name="eth" unicode="&#xf0;" horiz-adv-x="401" 
d="M138 520l63 53q-37 45 -103 106l16 20q62 -56 107 -110l60 51l16 -19l-61 -51q57 -73 91.5 -174.5t34.5 -215.5q0 -92 -45.5 -140t-118.5 -48q-68 0 -116 48.5t-48 118.5t48 118.5t116 48.5q92 0 132 -81q-13 179 -114 308l-62 -52zM198 300q-57 0 -95 -40.5t-38 -100.5
t38 -100.5t95 -40.5t95 40.5t38 100.5t-38 100.5t-95 40.5z" />
    <glyph glyph-name="ntilde" unicode="&#xf1;" horiz-adv-x="422" 
d="M257 0v26h60v167q0 106 -95 106q-52 0 -84.5 -32t-32.5 -86v-155h60v-26h-150v26h60v266h-60v26h90v-60q16 32 47.5 50t70.5 18q55 0 89.5 -32.5t34.5 -95.5v-172h60v-26h-150zM245 421q-21 0 -48.5 21t-38.5 21q-12 0 -18 -9.5t-11 -30.5l-25 4q12 63 55 63q21 0 48 -21
t39 -21t18 9.5t11 30.5l25 -4q-12 -63 -55 -63z" />
    <glyph glyph-name="ograve" unicode="&#xf2;" horiz-adv-x="392" 
d="M196 -8q-68 0 -116 48.5t-48 118.5t48 118.5t116 48.5t116 -48.5t48 -118.5t-48 -118.5t-116 -48.5zM196 18q57 0 95 40.5t38 100.5t-38 100.5t-95 40.5t-95 -40.5t-38 -100.5t38 -100.5t95 -40.5zM186 396l-68 132h33l60 -132h-25z" />
    <glyph glyph-name="oacute" unicode="&#xf3;" horiz-adv-x="392" 
d="M196 -8q-68 0 -116 48.5t-48 118.5t48 118.5t116 48.5t116 -48.5t48 -118.5t-48 -118.5t-116 -48.5zM196 18q57 0 95 40.5t38 100.5t-38 100.5t-95 40.5t-95 -40.5t-38 -100.5t38 -100.5t95 -40.5zM179 396l60 132h33l-68 -132h-25z" />
    <glyph glyph-name="ocircumflex" unicode="&#xf4;" horiz-adv-x="392" 
d="M196 -8q-68 0 -116 48.5t-48 118.5t48 118.5t116 48.5t116 -48.5t48 -118.5t-48 -118.5t-116 -48.5zM196 18q57 0 95 40.5t38 100.5t-38 100.5t-95 40.5t-95 -40.5t-38 -100.5t38 -100.5t95 -40.5zM103 414l92 112h3l92 -112h-26l-67 70l-68 -70h-26z" />
    <glyph glyph-name="otilde" unicode="&#xf5;" horiz-adv-x="392" 
d="M196 -8q-68 0 -116 48.5t-48 118.5t48 118.5t116 48.5t116 -48.5t48 -118.5t-48 -118.5t-116 -48.5zM196 18q57 0 95 40.5t38 100.5t-38 100.5t-95 40.5t-95 -40.5t-38 -100.5t38 -100.5t95 -40.5zM239 421q-21 0 -48 21t-39 21t-18 -9.5t-11 -30.5l-25 4q12 63 55 63
q21 0 48 -21t39 -21t18 9.5t11 30.5l25 -4q-12 -63 -55 -63z" />
    <glyph glyph-name="odieresis" unicode="&#xf6;" horiz-adv-x="392" 
d="M196 -8q-68 0 -116 48.5t-48 118.5t48 118.5t116 48.5t116 -48.5t48 -118.5t-48 -118.5t-116 -48.5zM196 18q57 0 95 40.5t38 100.5t-38 100.5t-95 40.5t-95 -40.5t-38 -100.5t38 -100.5t95 -40.5zM248 431q-9 0 -16.5 7t-7.5 17t7.5 17t16.5 7t16.5 -7t7.5 -17t-7.5 -17
t-16.5 -7zM144 431q-9 0 -16.5 7t-7.5 17t7.5 17t16.5 7t16.5 -7t7.5 -17t-7.5 -17t-16.5 -7z" />
    <glyph glyph-name="divide" unicode="&#xf7;" horiz-adv-x="312" 
d="M273 229h-234v28h234v-28zM156 319q-11 0 -19.5 8t-8.5 20t8.5 20t19.5 8t19.5 -8t8.5 -20t-8.5 -20t-19.5 -8zM156 111q-11 0 -19.5 8t-8.5 20t8.5 20t19.5 8t19.5 -8t8.5 -20t-8.5 -20t-19.5 -8z" />
    <glyph glyph-name="oslash" unicode="&#xf8;" horiz-adv-x="394" 
d="M197 -8q-65 0 -113 45l-49 -46l-17 18l50 46q-35 46 -35 104q0 70 48 118.5t116 48.5q65 0 112 -45l50 46l17 -18l-50 -47q35 -45 35 -103q0 -70 -48 -118.5t-116 -48.5zM64 159q0 -48 24 -85l202 189q-35 37 -93 37q-57 0 -95 -40.5t-38 -100.5zM197 18q57 0 95 40.5
t38 100.5q0 48 -24 85l-202 -189q35 -37 93 -37z" />
    <glyph glyph-name="ugrave" unicode="&#xf9;" horiz-adv-x="412" 
d="M247 292v26h90v-292h60v-26h-90v60q-16 -32 -47.5 -50t-70.5 -18q-57 0 -90.5 32t-33.5 96v172h-60v26h90v-193q0 -106 95 -106q52 0 84.5 32t32.5 86v155h-60zM183 396l-68 132h33l60 -132h-25z" />
    <glyph glyph-name="uacute" unicode="&#xfa;" horiz-adv-x="412" 
d="M247 292v26h90v-292h60v-26h-90v60q-16 -32 -47.5 -50t-70.5 -18q-57 0 -90.5 32t-33.5 96v172h-60v26h90v-193q0 -106 95 -106q52 0 84.5 32t32.5 86v155h-60zM176 396l60 132h33l-68 -132h-25z" />
    <glyph glyph-name="ucircumflex" unicode="&#xfb;" horiz-adv-x="412" 
d="M247 292v26h90v-292h60v-26h-90v60q-16 -32 -47.5 -50t-70.5 -18q-57 0 -90.5 32t-33.5 96v172h-60v26h90v-193q0 -106 95 -106q52 0 84.5 32t32.5 86v155h-60zM100 414l92 112h3l92 -112h-26l-67 70l-68 -70h-26z" />
    <glyph glyph-name="udieresis" unicode="&#xfc;" horiz-adv-x="412" 
d="M247 292v26h90v-292h60v-26h-90v60q-16 -32 -47.5 -50t-70.5 -18q-57 0 -90.5 32t-33.5 96v172h-60v26h90v-193q0 -106 95 -106q52 0 84.5 32t32.5 86v155h-60zM245 431q-9 0 -16.5 7t-7.5 17t7.5 17t16.5 7t16.5 -7t7.5 -17t-7.5 -17t-16.5 -7zM141 431q-9 0 -16.5 7
t-7.5 17t7.5 17t16.5 7t16.5 -7t7.5 -17t-7.5 -17t-16.5 -7z" />
    <glyph glyph-name="yacute" unicode="&#xfd;" horiz-adv-x="368" 
d="M167 396l60 132h33l-68 -132h-25zM5 292v26h125v-26h-48l106 -235l101 235h-51v26h125v-26h-43l-205 -478h58v-26h-144v26h55l89 207l-123 271h-45z" />
    <glyph glyph-name="thorn" unicode="&#xfe;" horiz-adv-x="418" 
d="M61 -186v871h-61v25h91v-461q42 77 130 77q70 0 116.5 -48t46.5 -119t-46.5 -119t-116.5 -48q-88 0 -130 77v-255h59v-26h-150v26h61zM221 19q58 0 95 39.5t37 100.5t-37 100.5t-95 39.5t-95 -39.5t-37 -100.5t37 -100.5t95 -39.5z" />
    <glyph glyph-name="ydieresis" unicode="&#xff;" horiz-adv-x="368" 
d="M236 431q-9 0 -16.5 7t-7.5 17t7.5 17t16.5 7t16.5 -7t7.5 -17t-7.5 -17t-16.5 -7zM132 431q-9 0 -16.5 7t-7.5 17t7.5 17t16.5 7t16.5 -7t7.5 -17t-7.5 -17t-16.5 -7zM5 292v26h125v-26h-48l106 -235l101 235h-51v26h125v-26h-43l-205 -478h58v-26h-144v26h55l89 207
l-123 271h-45z" />
    <glyph glyph-name="Amacron" unicode="&#x100;" 
d="M669 27v-27h-167v27h71l-66 174h-335l-67 -174h72v-27h-167v27h63l234 626h-56v27h178v-27h-57l234 -626h63zM340 653l-157 -424h313zM258 748v26h158v-26h-158z" />
    <glyph glyph-name="amacron" unicode="&#x101;" horiz-adv-x="368" 
d="M267 190v12q0 98 -89 98q-66 0 -101 -55l-22 15q44 66 123 66q56 0 87.5 -30.5t31.5 -91.5v-178h59v-26h-89v42q-36 -50 -109 -50q-54 0 -89 26.5t-35 74.5t36 72.5t89 24.5h108zM267 164h-104q-43 0 -71 -17t-28 -54q0 -74 98 -74q43 0 74 22.5t31 64.5v58zM101 448v26
h158v-26h-158z" />
    <glyph glyph-name="Abreve" unicode="&#x102;" 
d="M669 27v-27h-167v27h71l-66 174h-335l-67 -174h72v-27h-167v27h63l234 626h-56v27h178v-27h-57l234 -626h63zM340 653l-157 -424h313zM336 717q-35 0 -57.5 19.5t-31.5 51.5l26 9q17 -52 63 -52t63 52l27 -9q-9 -32 -32 -51.5t-58 -19.5z" />
    <glyph glyph-name="abreve" unicode="&#x103;" horiz-adv-x="368" 
d="M267 190v12q0 98 -89 98q-66 0 -101 -55l-22 15q44 66 123 66q56 0 87.5 -30.5t31.5 -91.5v-178h59v-26h-89v42q-36 -50 -109 -50q-54 0 -89 26.5t-35 74.5t36 72.5t89 24.5h108zM267 164h-104q-43 0 -71 -17t-28 -54q0 -74 98 -74q43 0 74 22.5t31 64.5v58zM179 407
q-35 0 -57.5 19.5t-31.5 51.5l26 9q17 -52 63 -52t63 52l27 -9q-9 -32 -32 -51.5t-58 -19.5z" />
    <glyph glyph-name="Aogonek" unicode="&#x104;" 
d="M552 -217q-29 0 -47 17t-18 47q0 23 13 50.5t27.5 47t44.5 55.5h-70v27h71l-66 174h-335l-67 -174h72v-27h-167v27h63l234 626h-56v27h178v-27h-57l234 -626h63v-27h-69q-51 -66 -67.5 -94.5t-16.5 -58.5q0 -19 10.5 -29.5t25.5 -10.5q26 0 41 24l20 -14q-21 -34 -61 -34
zM340 653l-157 -424h313z" />
    <glyph glyph-name="aogonek" unicode="&#x105;" horiz-adv-x="368" 
d="M247 -217q-29 0 -47 17t-18 47q0 23 13 50.5t27.5 47t44.5 55.5v42q-36 -50 -109 -50q-54 0 -89 26.5t-35 74.5t36 72.5t89 24.5h108v12q0 98 -89 98q-66 0 -101 -55l-22 15q44 66 123 66q56 0 87.5 -30.5t31.5 -91.5v-178h59v-26h-61q-51 -66 -67.5 -94.5t-16.5 -58.5
q0 -19 10.5 -29.5t25.5 -10.5q26 0 41 24l20 -14q-21 -34 -61 -34zM267 164h-104q-43 0 -71 -17t-28 -54q0 -74 98 -74q43 0 74 22.5t31 64.5v58z" />
    <glyph glyph-name="Cacute" unicode="&#x106;" horiz-adv-x="707" 
d="M43 340q1 151 99 249.5t243 98.5q83 0 145 -30t95 -84v106h29v-182h-29q-12 76 -80 118.5t-160 42.5q-132 0 -220.5 -91t-88.5 -228t90 -228t225 -91q79 0 144.5 33t109.5 91l24 -18q-49 -64 -121 -99.5t-157 -35.5q-148 0 -248.5 98.5t-99.5 249.5zM374 721l60 132h33
l-68 -132h-25z" />
    <glyph glyph-name="cacute" unicode="&#x107;" horiz-adv-x="354" 
d="M193 326q63 0 95 -42v34h26v-94h-26q-15 76 -95 76q-57 0 -93.5 -40t-36.5 -101t36 -101t93 -40q70 0 109 46l21 -18q-45 -54 -130 -54q-68 0 -114 48.5t-46 118.5q0 71 46.5 119t114.5 48zM181 396l60 132h33l-68 -132h-25z" />
    <glyph glyph-name="Ccircumflex" unicode="&#x108;" horiz-adv-x="707" 
d="M43 340q1 151 99 249.5t243 98.5q83 0 145 -30t95 -84v106h29v-182h-29q-12 76 -80 118.5t-160 42.5q-132 0 -220.5 -91t-88.5 -228t90 -228t225 -91q79 0 144.5 33t109.5 91l24 -18q-49 -64 -121 -99.5t-157 -35.5q-148 0 -248.5 98.5t-99.5 249.5zM298 724l92 112h3
l92 -112h-26l-67 70l-68 -70h-26z" />
    <glyph glyph-name="ccircumflex" unicode="&#x109;" horiz-adv-x="354" 
d="M193 326q63 0 95 -42v34h26v-94h-26q-15 76 -95 76q-57 0 -93.5 -40t-36.5 -101t36 -101t93 -40q70 0 109 46l21 -18q-45 -54 -130 -54q-68 0 -114 48.5t-46 118.5q0 71 46.5 119t114.5 48zM105 414l92 112h3l92 -112h-26l-67 70l-68 -70h-26z" />
    <glyph glyph-name="Cdotaccent" unicode="&#x10a;" horiz-adv-x="707" 
d="M43 340q1 151 99 249.5t243 98.5q83 0 145 -30t95 -84v106h29v-182h-29q-12 76 -80 118.5t-160 42.5q-132 0 -220.5 -91t-88.5 -228t90 -228t225 -91q79 0 144.5 33t109.5 91l24 -18q-49 -64 -121 -99.5t-157 -35.5q-148 0 -248.5 98.5t-99.5 249.5zM391 740
q-10 0 -17.5 7.5t-7.5 17.5t7.5 17.5t17.5 7.5t17.5 -7.5t7.5 -17.5t-7.5 -17.5t-17.5 -7.5z" />
    <glyph glyph-name="cdotaccent" unicode="&#x10b;" horiz-adv-x="354" 
d="M193 326q63 0 95 -42v34h26v-94h-26q-15 76 -95 76q-57 0 -93.5 -40t-36.5 -101t36 -101t93 -40q70 0 109 46l21 -18q-45 -54 -130 -54q-68 0 -114 48.5t-46 118.5q0 71 46.5 119t114.5 48zM198 430q-10 0 -17.5 7.5t-7.5 17.5t7.5 17.5t17.5 7.5t17.5 -7.5t7.5 -17.5
t-7.5 -17.5t-17.5 -7.5z" />
    <glyph glyph-name="Ccaron" unicode="&#x10c;" horiz-adv-x="707" 
d="M43 340q1 151 99 249.5t243 98.5q83 0 145 -30t95 -84v106h29v-182h-29q-12 76 -80 118.5t-160 42.5q-132 0 -220.5 -91t-88.5 -228t90 -228t225 -91q79 0 144.5 33t109.5 91l24 -18q-49 -64 -121 -99.5t-157 -35.5q-148 0 -248.5 98.5t-99.5 249.5zM390 719l-92 112h26
l67 -70l68 70h26l-92 -112h-3z" />
    <glyph glyph-name="ccaron" unicode="&#x10d;" horiz-adv-x="354" 
d="M193 326q63 0 95 -42v34h26v-94h-26q-15 76 -95 76q-57 0 -93.5 -40t-36.5 -101t36 -101t93 -40q70 0 109 46l21 -18q-45 -54 -130 -54q-68 0 -114 48.5t-46 118.5q0 71 46.5 119t114.5 48zM197 409l-92 112h26l67 -70l68 70h26l-92 -112h-3z" />
    <glyph glyph-name="Dcaron" unicode="&#x10e;" horiz-adv-x="662" 
d="M40 653v27h222q168 0 264 -93.5t96 -246.5q0 -154 -95.5 -247t-264.5 -93h-222v27h70v626h-70zM142 29h115q161 0 246.5 84.5t85.5 226.5t-85.5 226.5t-246.5 84.5h-115v-622zM283 719l-92 112h26l67 -70l68 70h26l-92 -112h-3z" />
    <glyph glyph-name="dcaron" unicode="&#x10f;" horiz-adv-x="429" 
d="M398 571l18 61q-19 4 -19 26q0 12 8.5 20t19.5 8t19.5 -8t8.5 -20q0 -6 -3 -14l-33 -73h-19zM325 0v69q-42 -77 -130 -77q-70 0 -116.5 48t-46.5 119t46.5 119t116.5 48q88 0 130 -77v435h-61v26h91v-684h60v-26h-90zM195 299q-58 0 -95 -39.5t-37 -100.5t37 -100.5
t95 -39.5t95 39.5t37 100.5t-37 100.5t-95 39.5z" />
    <glyph glyph-name="Dcroat" unicode="&#x110;" horiz-adv-x="661" 
d="M39 653v27h222q168 0 264 -93.5t96 -246.5q0 -154 -95.5 -247t-264.5 -93h-222v27h70v300h-78v28h78v298h-70zM141 29h115q161 0 246.5 84.5t85.5 226.5t-85.5 226.5t-246.5 84.5h-115v-296h188v-28h-188v-298z" />
    <glyph glyph-name="dcroat" unicode="&#x111;" horiz-adv-x="430" 
d="M325 0v69q-42 -77 -130 -77q-70 0 -116.5 48t-46.5 119t46.5 119t116.5 48q88 0 130 -77v225h-105v26h105v184h-61v26h91v-210h69v-26h-69v-448h60v-26h-90zM195 299q-58 0 -95 -39.5t-37 -100.5t37 -100.5t95 -39.5t95 39.5t37 100.5t-37 100.5t-95 39.5z" />
    <glyph glyph-name="Emacron" unicode="&#x112;" horiz-adv-x="558" 
d="M475 538v114h-333v-297h293v-28h-293v-299h347v114h29v-142h-478v27h70v626h-70v27h464v-142h-29zM212 748v26h158v-26h-158z" />
    <glyph glyph-name="emacron" unicode="&#x113;" horiz-adv-x="381" 
d="M63 153q2 -62 40.5 -98.5t95.5 -36.5q73 0 114 51l20 -18q-46 -59 -134 -59q-73 0 -120 48t-47 119q0 70 47 118.5t113 48.5q70 0 112.5 -48t44.5 -125h-286zM64 179h254q-6 54 -38 87.5t-88 33.5q-52 0 -87 -34t-41 -87zM111 448v26h158v-26h-158z" />
    <glyph glyph-name="Ebreve" unicode="&#x114;" horiz-adv-x="558" 
d="M475 538v114h-333v-297h293v-28h-293v-299h347v114h29v-142h-478v27h70v626h-70v27h464v-142h-29zM300 717q-35 0 -57.5 19.5t-31.5 51.5l26 9q17 -52 63 -52t63 52l27 -9q-9 -32 -32 -51.5t-58 -19.5z" />
    <glyph glyph-name="ebreve" unicode="&#x115;" horiz-adv-x="381" 
d="M63 153q2 -62 40.5 -98.5t95.5 -36.5q73 0 114 51l20 -18q-46 -59 -134 -59q-73 0 -120 48t-47 119q0 70 47 118.5t113 48.5q70 0 112.5 -48t44.5 -125h-286zM64 179h254q-6 54 -38 87.5t-88 33.5q-52 0 -87 -34t-41 -87zM189 407q-35 0 -57.5 19.5t-31.5 51.5l26 9
q17 -52 63 -52t63 52l27 -9q-9 -32 -32 -51.5t-58 -19.5z" />
    <glyph glyph-name="Edotaccent" unicode="&#x116;" horiz-adv-x="558" 
d="M475 538v114h-333v-297h293v-28h-293v-299h347v114h29v-142h-478v27h70v626h-70v27h464v-142h-29zM301 740q-10 0 -17.5 7.5t-7.5 17.5t7.5 17.5t17.5 7.5t17.5 -7.5t7.5 -17.5t-7.5 -17.5t-17.5 -7.5z" />
    <glyph glyph-name="edotaccent" unicode="&#x117;" horiz-adv-x="381" 
d="M63 153q2 -62 40.5 -98.5t95.5 -36.5q73 0 114 51l20 -18q-46 -59 -134 -59q-73 0 -120 48t-47 119q0 70 47 118.5t113 48.5q70 0 112.5 -48t44.5 -125h-286zM64 179h254q-6 54 -38 87.5t-88 33.5q-52 0 -87 -34t-41 -87zM190 430q-10 0 -17.5 7.5t-7.5 17.5t7.5 17.5
t17.5 7.5t17.5 -7.5t7.5 -17.5t-7.5 -17.5t-17.5 -7.5z" />
    <glyph glyph-name="Eogonek" unicode="&#x118;" horiz-adv-x="558" 
d="M475 538v114h-333v-297h293v-28h-293v-299h347v114h29v-142h-47l-19.5 -22.5l-17.5 -20.5l-14 -17.5t-12.5 -16.5t-10 -13.5t-9 -13.5l-6 -12t-4.5 -12.5l-2 -11.5t-1 -13q0 -19 10.5 -29.5t25.5 -10.5q26 0 41 24l20 -14q-21 -34 -61 -34q-29 0 -47 17t-18 47
q0 22 15.5 50t31.5 47t50 56h-403v27h70v626h-70v27h464v-142h-29z" />
    <glyph glyph-name="eogonek" unicode="&#x119;" horiz-adv-x="381" 
d="M199 -8q-73 0 -120 48t-47 119q0 70 47 118.5t113 48.5q70 0 112.5 -48t44.5 -125h-286q2 -62 40.5 -98.5t95.5 -36.5q73 0 114 51l20 -18q-11 -14 -37.5 -36t-41.5 -41q-29 -37 -40 -52.5t-20.5 -36t-9.5 -38.5q0 -19 10.5 -29.5t25.5 -10.5q26 0 41 24l20 -14
q-21 -34 -61 -34q-29 0 -47 17t-18 47q0 22 14.5 50t29 45.5l46.5 54.5q-23 -5 -46 -5zM64 179h254q-6 54 -38 87.5t-88 33.5q-52 0 -87 -34t-41 -87z" />
    <glyph glyph-name="Ecaron" unicode="&#x11a;" horiz-adv-x="558" 
d="M475 538v114h-333v-297h293v-28h-293v-299h347v114h29v-142h-478v27h70v626h-70v27h464v-142h-29zM300 719l-92 112h26l67 -70l68 70h26l-92 -112h-3z" />
    <glyph glyph-name="ecaron" unicode="&#x11b;" horiz-adv-x="381" 
d="M63 153q2 -62 40.5 -98.5t95.5 -36.5q73 0 114 51l20 -18q-46 -59 -134 -59q-73 0 -120 48t-47 119q0 70 47 118.5t113 48.5q70 0 112.5 -48t44.5 -125h-286zM64 179h254q-6 54 -38 87.5t-88 33.5q-52 0 -87 -34t-41 -87zM189 409l-92 112h26l67 -70l68 70h26l-92 -112
h-3z" />
    <glyph glyph-name="Gcircumflex" unicode="&#x11c;" horiz-adv-x="724" 
d="M632 0v79q-89 -87 -241 -87q-147 0 -248 99t-101 249q0 149 100 248.5t242 99.5q78 0 138 -27t91 -77v96h29v-162h-29q-16 66 -75 103.5t-154 37.5q-132 0 -220.5 -91t-88.5 -228t90.5 -228t225.5 -91q147 0 241 88v168h-224v28h256v-305h-32zM292 724l92 112h3l92 -112
h-26l-67 70l-68 -70h-26z" />
    <glyph glyph-name="gcircumflex" unicode="&#x11d;" horiz-adv-x="350" 
d="M217 318h114v-26h-74q39 -37 39 -89q0 -53 -36 -88t-88 -35q-34 0 -60 15q-39 -6 -39 -34q0 -21 20 -30.5t87 -11.5q82 -3 123 -34.5t41 -82.5q0 -57 -49 -91t-121 -34q-73 0 -118.5 31.5t-45.5 88.5q0 81 91 106q-55 8 -55 57q0 19 12 32.5t31 18.5q-41 36 -41 92
q0 53 36 88t88 35q23 0 45 -8zM172 105q42 0 68.5 27.5t26.5 70.5t-26.5 70.5t-68.5 27.5t-68.5 -27.5t-26.5 -70.5t26.5 -70.5t68.5 -27.5zM174 -197q60 0 100 26t40 73q0 89 -143 89q-66 0 -99 -26t-33 -68q0 -46 37 -70t98 -24zM84 414l92 112h3l92 -112h-26l-67 70
l-68 -70h-26z" />
    <glyph glyph-name="Gbreve" unicode="&#x11e;" horiz-adv-x="724" 
d="M632 0v79q-89 -87 -241 -87q-147 0 -248 99t-101 249q0 149 100 248.5t242 99.5q78 0 138 -27t91 -77v96h29v-162h-29q-16 66 -75 103.5t-154 37.5q-132 0 -220.5 -91t-88.5 -228t90.5 -228t225.5 -91q147 0 241 88v168h-224v28h256v-305h-32zM384 717q-35 0 -57.5 19.5
t-31.5 51.5l26 9q17 -52 63 -52t63 52l27 -9q-9 -32 -32 -51.5t-58 -19.5z" />
    <glyph glyph-name="gbreve" unicode="&#x11f;" horiz-adv-x="350" 
d="M217 318h114v-26h-74q39 -37 39 -89q0 -53 -36 -88t-88 -35q-34 0 -60 15q-39 -6 -39 -34q0 -21 20 -30.5t87 -11.5q82 -3 123 -34.5t41 -82.5q0 -57 -49 -91t-121 -34q-73 0 -118.5 31.5t-45.5 88.5q0 81 91 106q-55 8 -55 57q0 19 12 32.5t31 18.5q-41 36 -41 92
q0 53 36 88t88 35q23 0 45 -8zM172 105q42 0 68.5 27.5t26.5 70.5t-26.5 70.5t-68.5 27.5t-68.5 -27.5t-26.5 -70.5t26.5 -70.5t68.5 -27.5zM174 -197q60 0 100 26t40 73q0 89 -143 89q-66 0 -99 -26t-33 -68q0 -46 37 -70t98 -24zM176 407q-35 0 -57.5 19.5t-31.5 51.5
l26 9q17 -52 63 -52t63 52l27 -9q-9 -32 -32 -51.5t-58 -19.5z" />
    <glyph glyph-name="Gdotaccent" unicode="&#x120;" horiz-adv-x="724" 
d="M632 0v79q-89 -87 -241 -87q-147 0 -248 99t-101 249q0 149 100 248.5t242 99.5q78 0 138 -27t91 -77v96h29v-162h-29q-16 66 -75 103.5t-154 37.5q-132 0 -220.5 -91t-88.5 -228t90.5 -228t225.5 -91q147 0 241 88v168h-224v28h256v-305h-32zM385 740q-10 0 -17.5 7.5
t-7.5 17.5t7.5 17.5t17.5 7.5t17.5 -7.5t7.5 -17.5t-7.5 -17.5t-17.5 -7.5z" />
    <glyph glyph-name="gdotaccent" unicode="&#x121;" horiz-adv-x="350" 
d="M217 318h114v-26h-74q39 -37 39 -89q0 -53 -36 -88t-88 -35q-34 0 -60 15q-39 -6 -39 -34q0 -21 20 -30.5t87 -11.5q82 -3 123 -34.5t41 -82.5q0 -57 -49 -91t-121 -34q-73 0 -118.5 31.5t-45.5 88.5q0 81 91 106q-55 8 -55 57q0 19 12 32.5t31 18.5q-41 36 -41 92
q0 53 36 88t88 35q23 0 45 -8zM172 105q42 0 68.5 27.5t26.5 70.5t-26.5 70.5t-68.5 27.5t-68.5 -27.5t-26.5 -70.5t26.5 -70.5t68.5 -27.5zM174 -197q60 0 100 26t40 73q0 89 -143 89q-66 0 -99 -26t-33 -68q0 -46 37 -70t98 -24zM177 430q-10 0 -17.5 7.5t-7.5 17.5
t7.5 17.5t17.5 7.5t17.5 -7.5t7.5 -17.5t-7.5 -17.5t-17.5 -7.5z" />
    <glyph glyph-name="Gcommaaccent" unicode="&#x122;" horiz-adv-x="724" 
d="M632 0v79q-89 -87 -241 -87q-147 0 -248 99t-101 249q0 149 100 248.5t242 99.5q78 0 138 -27t91 -77v96h29v-162h-29q-16 66 -75 103.5t-154 37.5q-132 0 -220.5 -91t-88.5 -228t90.5 -228t225.5 -91q147 0 241 88v168h-224v28h256v-305h-32zM361 -157l16 59
q-17 4 -17 24q0 10 7.5 17.5t17.5 7.5q9 0 17 -7.5t8 -17.5q0 -7 -3 -13l-29 -70h-17z" />
    <glyph glyph-name="gcommaaccent" unicode="&#x123;" horiz-adv-x="350" 
d="M217 318h114v-26h-74q39 -37 39 -89q0 -53 -36 -88t-88 -35q-34 0 -60 15q-39 -6 -39 -34q0 -21 20 -30.5t87 -11.5q82 -3 123 -34.5t41 -82.5q0 -57 -49 -91t-121 -34q-73 0 -118.5 31.5t-45.5 88.5q0 81 91 106q-55 8 -55 57q0 19 12 32.5t31 18.5q-41 36 -41 92
q0 53 36 88t88 35q23 0 45 -8zM172 105q42 0 68.5 27.5t26.5 70.5t-26.5 70.5t-68.5 27.5t-68.5 -27.5t-26.5 -70.5t26.5 -70.5t68.5 -27.5zM174 -197q60 0 100 26t40 73q0 89 -143 89q-66 0 -99 -26t-33 -68q0 -46 37 -70t98 -24zM201 537l-16 -59q17 -4 17 -24
q0 -10 -7.5 -17.5t-17.5 -7.5q-9 0 -17 7.5t-8 17.5q0 7 3 13l29 70h17z" />
    <glyph glyph-name="Hcircumflex" unicode="&#x124;" horiz-adv-x="690" 
d="M40 653v27h172v-27h-70v-298h406v298h-70v27h172v-27h-70v-626h70v-27h-172v27h70v300h-406v-300h70v-27h-172v27h70v626h-70zM252 724l92 112h3l92 -112h-26l-67 70l-68 -70h-26z" />
    <glyph glyph-name="hcircumflex" unicode="&#x125;" horiz-adv-x="422" 
d="M257 0v26h60v167q0 106 -95 106q-52 0 -84.5 -32t-32.5 -86v-155h60v-26h-150v26h60v658h-60v26h90v-452q40 68 118 68q55 0 89.5 -32.5t34.5 -95.5v-172h60v-26h-150zM118 748l92 112h3l92 -112h-26l-67 70l-68 -70h-26z" />
    <glyph glyph-name="Hbar" unicode="&#x126;" horiz-adv-x="690" 
d="M40 653v27h172v-27h-70v-158h406v158h-70v27h172v-27h-70v-158h80v-28h-80v-440h70v-27h-172v27h70v300h-406v-300h70v-27h-172v27h70v440h-80v28h80v158h-70zM142 355h406v112h-406v-112z" />
    <glyph glyph-name="hbar" unicode="&#x127;" horiz-adv-x="422" 
d="M8 474v26h68v184h-60v26h90v-210h106v-26h-106v-216q40 68 118 68q55 0 89.5 -32.5t34.5 -95.5v-172h60v-26h-150v26h60v167q0 106 -95 106q-52 0 -84.5 -32t-32.5 -86v-155h60v-26h-150v26h60v448h-68z" />
    <glyph glyph-name="Imacron" unicode="&#x12a;" horiz-adv-x="252" 
d="M40 653v27h172v-27h-70v-626h70v-27h-172v27h70v626h-70zM47 748v26h158v-26h-158z" />
    <glyph glyph-name="imacron" unicode="&#x12b;" horiz-adv-x="180" 
d="M10 448v26h138v-26h-138zM16 292v26h90v-292h60v-26h-150v26h60v266h-60z" />
    <glyph glyph-name="Iogonek" unicode="&#x12e;" horiz-adv-x="252" 
d="M40 653v27h172v-27h-70v-626h70v-27h-71q-32 -62 -43 -92t-11 -61q0 -19 10.5 -29.5t25.5 -10.5q26 0 41 24l20 -14q-21 -34 -61 -34q-29 0 -47 17t-18 47q0 14 2.5 28t9.5 31.5l11.5 28t16 33.5t15.5 32h-73v27h70v626h-70z" />
    <glyph glyph-name="iogonek" unicode="&#x12f;" horiz-adv-x="180" 
d="M16 292v26h90v-292h60v-26h-61l-22 -48.5t-19 -43t-8.5 -28.5t-4.5 -33q0 -19 10.5 -29.5t25.5 -10.5q26 0 41 24l20 -14q-21 -34 -61 -34q-29 0 -47 17t-18 47q0 22 8.5 46t24 56t22.5 51h-61v26h60v266h-60zM91 430q-10 0 -17.5 7.5t-7.5 17.5t7.5 17.5t17.5 7.5
t17.5 -7.5t7.5 -17.5t-7.5 -17.5t-17.5 -7.5z" />
    <glyph glyph-name="Idotaccent" unicode="&#x130;" horiz-adv-x="252" 
d="M40 653v27h172v-27h-70v-626h70v-27h-172v27h70v626h-70zM126 740q-10 0 -17.5 7.5t-7.5 17.5t7.5 17.5t17.5 7.5t17.5 -7.5t7.5 -17.5t-7.5 -17.5t-17.5 -7.5z" />
    <glyph glyph-name="dotlessi" unicode="&#x131;" horiz-adv-x="180" 
d="M16 292v26h90v-292h60v-26h-150v26h60v266h-60z" />
    <glyph glyph-name="Jcircumflex" unicode="&#x134;" horiz-adv-x="449" 
d="M242 653v27h172v-27h-69v-494q0 -81 -46 -124t-119 -43q-102 0 -155 89l25 17q42 -77 130 -77q61 0 97 35t36 105v492h-71zM237 724l92 112h3l92 -112h-26l-67 70l-68 -70h-26z" />
    <glyph glyph-name="jcircumflex" unicode="&#x135;" horiz-adv-x="172" 
d="M22 292v26h90v-457q0 -39 -19 -60t-53 -21q-27 0 -46 16l15 22q14 -11 31 -11q42 0 42 57v428h-60zM-11 414l92 112h3l92 -112h-26l-67 70l-68 -70h-26z" />
    <glyph glyph-name="Kcommaaccent" unicode="&#x136;" horiz-adv-x="603" 
d="M40 653v27h172v-27h-70v-383l324 383h-70v27h172v-27h-65l-235 -278l261 -348h54v-27h-163v27h70l-243 324l-105 -122v-202h70v-27h-172v27h70v626h-70zM287 -157l16 59q-17 4 -17 24q0 10 7.5 17.5t17.5 7.5q9 0 17 -7.5t8 -17.5q0 -7 -3 -13l-29 -70h-17z" />
    <glyph glyph-name="kcommaaccent" unicode="&#x137;" horiz-adv-x="364" 
d="M222 0v26h48l-110 129l-55 -58v-71h54v-26h-144v26h60v658h-60v26h90v-573l156 155h-60v26h150v-26h-55l-117 -115l129 -151h44v-26h-130zM160 -157l16 59q-17 4 -17 24q0 10 7.5 17.5t17.5 7.5q9 0 17 -7.5t8 -17.5q0 -7 -3 -13l-29 -70h-17z" />
    <glyph glyph-name="Lacute" unicode="&#x139;" horiz-adv-x="515" 
d="M40 653v27h172v-27h-70v-625h311v114h29v-142h-441v27h69v626h-70zM118 721l60 132h33l-68 -132h-25z" />
    <glyph glyph-name="lacute" unicode="&#x13a;" horiz-adv-x="180" 
d="M15 684v26h90v-684h60v-26h-150v26h60v658h-60zM76 748l60 132h33l-68 -132h-25z" />
    <glyph glyph-name="Lcommaaccent" unicode="&#x13b;" horiz-adv-x="515" 
d="M40 653v27h172v-27h-70v-625h311v114h29v-142h-441v27h69v626h-70zM237 -157l16 59q-17 4 -17 24q0 10 7.5 17.5t17.5 7.5q9 0 17 -7.5t8 -17.5q0 -7 -3 -13l-29 -70h-17z" />
    <glyph glyph-name="lcommaaccent" unicode="&#x13c;" horiz-adv-x="180" 
d="M15 684v26h90v-684h60v-26h-150v26h60v658h-60zM66 -157l16 59q-17 4 -17 24q0 10 7.5 17.5t17.5 7.5q9 0 17 -7.5t8 -17.5q0 -7 -3 -13l-29 -70h-17z" />
    <glyph glyph-name="Lcaron" unicode="&#x13d;" horiz-adv-x="515" 
d="M337 571l18 61q-19 4 -19 26q0 12 8.5 20t19.5 8t19.5 -8t8.5 -20q0 -6 -3 -14l-33 -73h-19zM40 653v27h172v-27h-70v-625h311v114h29v-142h-441v27h69v626h-70z" />
    <glyph glyph-name="lcaron" unicode="&#x13e;" horiz-adv-x="180" 
d="M148 571l18 61q-19 4 -19 26q0 12 8.5 20t19.5 8t19.5 -8t8.5 -20q0 -6 -3 -14l-33 -73h-19zM15 684v26h90v-684h60v-26h-150v26h60v658h-60z" />
    <glyph glyph-name="Lslash" unicode="&#x141;" horiz-adv-x="515" 
d="M40 653v27h172v-27h-70v-346l198 64v-27l-198 -64v-252h311v114h29v-142h-441v27h69v242l-78 -25v27l78 25v357h-70z" />
    <glyph glyph-name="lslash" unicode="&#x142;" horiz-adv-x="188" 
d="M19 684v26h90v-417l69 42v-30l-69 -42v-237h60v-26h-150v26h60v218l-65 -39v30l65 39v410h-60z" />
    <glyph glyph-name="Nacute" unicode="&#x143;" horiz-adv-x="724" 
d="M689 680v-27h-70v-653h-21l-458 638v-611h72v-27h-172v27h70v626h-70v27h105l445 -622v595h-73v27h172zM348 721l60 132h33l-68 -132h-25z" />
    <glyph glyph-name="nacute" unicode="&#x144;" horiz-adv-x="422" 
d="M257 0v26h60v167q0 106 -95 106q-52 0 -84.5 -32t-32.5 -86v-155h60v-26h-150v26h60v266h-60v26h90v-60q16 32 47.5 50t70.5 18q55 0 89.5 -32.5t34.5 -95.5v-172h60v-26h-150zM194 396l60 132h33l-68 -132h-25z" />
    <glyph glyph-name="Ncommaaccent" unicode="&#x145;" horiz-adv-x="724" 
d="M689 680v-27h-70v-653h-21l-458 638v-611h72v-27h-172v27h70v626h-70v27h105l445 -622v595h-73v27h172zM341 -157l16 59q-17 4 -17 24q0 10 7.5 17.5t17.5 7.5q9 0 17 -7.5t8 -17.5q0 -7 -3 -13l-29 -70h-17z" />
    <glyph glyph-name="ncommaaccent" unicode="&#x146;" horiz-adv-x="422" 
d="M257 0v26h60v167q0 106 -95 106q-52 0 -84.5 -32t-32.5 -86v-155h60v-26h-150v26h60v266h-60v26h90v-60q16 32 47.5 50t70.5 18q55 0 89.5 -32.5t34.5 -95.5v-172h60v-26h-150zM187 -157l16 59q-17 4 -17 24q0 10 7.5 17.5t17.5 7.5q9 0 17 -7.5t8 -17.5q0 -7 -3 -13
l-29 -70h-17z" />
    <glyph glyph-name="Ncaron" unicode="&#x147;" horiz-adv-x="724" 
d="M689 680v-27h-70v-653h-21l-458 638v-611h72v-27h-172v27h70v626h-70v27h105l445 -622v595h-73v27h172zM364 719l-92 112h26l67 -70l68 70h26l-92 -112h-3z" />
    <glyph glyph-name="ncaron" unicode="&#x148;" horiz-adv-x="422" 
d="M257 0v26h60v167q0 106 -95 106q-52 0 -84.5 -32t-32.5 -86v-155h60v-26h-150v26h60v266h-60v26h90v-60q16 32 47.5 50t70.5 18q55 0 89.5 -32.5t34.5 -95.5v-172h60v-26h-150zM210 409l-92 112h26l67 -70l68 70h26l-92 -112h-3z" />
    <glyph glyph-name="Omacron" unicode="&#x14c;" horiz-adv-x="780" 
d="M390 -8q-146 0 -247 99.5t-101 248.5t101 248.5t247 99.5t247 -99.5t101 -248.5t-101 -248.5t-247 -99.5zM390 21q135 0 225 91t90 228t-90 228t-225 91t-225 -91t-90 -228t90 -228t225 -91zM311 748v26h158v-26h-158z" />
    <glyph glyph-name="omacron" unicode="&#x14d;" horiz-adv-x="392" 
d="M196 -8q-68 0 -116 48.5t-48 118.5t48 118.5t116 48.5t116 -48.5t48 -118.5t-48 -118.5t-116 -48.5zM196 18q57 0 95 40.5t38 100.5t-38 100.5t-95 40.5t-95 -40.5t-38 -100.5t38 -100.5t95 -40.5zM117 448v26h158v-26h-158z" />
    <glyph glyph-name="Ohungarumlaut" unicode="&#x150;" horiz-adv-x="780" 
d="M390 -8q-146 0 -247 99.5t-101 248.5t101 248.5t247 99.5t247 -99.5t101 -248.5t-101 -248.5t-247 -99.5zM390 21q135 0 225 91t90 228t-90 228t-225 91t-225 -91t-90 -228t90 -228t225 -91zM413 721l60 132h32l-67 -132h-25zM331 721l60 132h32l-67 -132h-25z" />
    <glyph glyph-name="ohungarumlaut" unicode="&#x151;" horiz-adv-x="392" 
d="M196 -8q-68 0 -116 48.5t-48 118.5t48 118.5t116 48.5t116 -48.5t48 -118.5t-48 -118.5t-116 -48.5zM196 18q57 0 95 40.5t38 100.5t-38 100.5t-95 40.5t-95 -40.5t-38 -100.5t38 -100.5t95 -40.5zM226 396l60 132h32l-67 -132h-25zM144 396l60 132h32l-67 -132h-25z" />
    <glyph glyph-name="OE" unicode="&#x152;" horiz-adv-x="950" 
d="M867 538v114h-333v-297h313v-28h-313v-299h347v114h29v-142h-508q-168 0 -264 93.5t-96 246.5q0 154 95.5 247t264.5 93h494v-142h-29zM407 29h95v622h-95q-161 0 -246.5 -84.5t-85.5 -226.5t85.5 -226.5t246.5 -84.5z" />
    <glyph glyph-name="oe" unicode="&#x153;" horiz-adv-x="678" 
d="M344 96q-17 -47 -56.5 -75.5t-91.5 -28.5q-68 0 -116 48.5t-48 118.5t48 118.5t116 48.5q52 0 91.5 -29t56.5 -76q17 47 56 76t89 29q70 0 112.5 -48t44.5 -125h-286q2 -62 40.5 -98.5t95.5 -36.5q73 0 114 51l20 -18q-46 -59 -134 -59q-55 0 -95 28t-57 76zM196 18
q57 0 95 40.5t38 100.5t-38 100.5t-95 40.5t-95 -40.5t-38 -100.5t38 -100.5t95 -40.5zM361 179h254q-6 54 -38 87.5t-88 33.5q-52 0 -87 -34t-41 -87z" />
    <glyph glyph-name="Racute" unicode="&#x154;" horiz-adv-x="606" 
d="M505 0l-190 300h-173v-273h71v-27h-173v27h70v626h-70v27h261q99 0 153.5 -55t54.5 -137q0 -71 -42 -121t-119 -63l176 -277h67v-27h-86zM142 328h155q87 0 133.5 44t46.5 116t-47 118t-133 46h-155v-324zM259 721l60 132h33l-68 -132h-25z" />
    <glyph glyph-name="racute" unicode="&#x155;" horiz-adv-x="259" 
d="M15 292v26h90v-56q33 64 95 64q29 0 49 -11l-11 -25q-13 8 -40 8q-38 0 -65.5 -33t-27.5 -81v-158h60v-26h-150v26h60v266h-60zM115 396l60 132h33l-68 -132h-25z" />
    <glyph glyph-name="Rcommaaccent" unicode="&#x156;" horiz-adv-x="606" 
d="M505 0l-190 300h-173v-273h71v-27h-173v27h70v626h-70v27h261q99 0 153.5 -55t54.5 -137q0 -71 -42 -121t-119 -63l176 -277h67v-27h-86zM142 328h155q87 0 133.5 44t46.5 116t-47 118t-133 46h-155v-324zM277 -157l16 59q-17 4 -17 24q0 10 7.5 17.5t17.5 7.5
q9 0 17 -7.5t8 -17.5q0 -7 -3 -13l-29 -70h-17z" />
    <glyph glyph-name="rcommaaccent" unicode="&#x157;" horiz-adv-x="259" 
d="M15 292v26h90v-56q33 64 95 64q29 0 49 -11l-11 -25q-13 8 -40 8q-38 0 -65.5 -33t-27.5 -81v-158h60v-26h-150v26h60v266h-60zM108 -157l16 59q-17 4 -17 24q0 10 7.5 17.5t17.5 7.5q9 0 17 -7.5t8 -17.5q0 -7 -3 -13l-29 -70h-17z" />
    <glyph glyph-name="Rcaron" unicode="&#x158;" horiz-adv-x="606" 
d="M505 0l-190 300h-173v-273h71v-27h-173v27h70v626h-70v27h261q99 0 153.5 -55t54.5 -137q0 -71 -42 -121t-119 -63l176 -277h67v-27h-86zM142 328h155q87 0 133.5 44t46.5 116t-47 118t-133 46h-155v-324zM275 719l-92 112h26l67 -70l68 70h26l-92 -112h-3z" />
    <glyph glyph-name="rcaron" unicode="&#x159;" horiz-adv-x="259" 
d="M15 292v26h90v-56q33 64 95 64q29 0 49 -11l-11 -25q-13 8 -40 8q-38 0 -65.5 -33t-27.5 -81v-158h60v-26h-150v26h60v266h-60zM131 409l-92 112h26l67 -70l68 70h26l-92 -112h-3z" />
    <glyph glyph-name="Sacute" unicode="&#x15a;" horiz-adv-x="506" 
d="M395 528q-10 63 -50 97.5t-101 34.5q-59 0 -97.5 -35t-38.5 -87t30.5 -83t104.5 -67l61 -30q90 -44 126 -85.5t36 -110.5q0 -76 -54.5 -123t-145.5 -47q-70 0 -123 31.5t-76 81.5v-105h-29v184h29q11 -74 64 -118.5t135 -44.5q78 0 123.5 39t45.5 102q0 61 -32 96.5
t-112 73.5l-62 30q-79 39 -115.5 77t-36.5 99q0 67 48.5 108.5t118.5 41.5q104 0 151 -81v73h29v-152h-29zM235 721l60 132h33l-68 -132h-25z" />
    <glyph glyph-name="sacute" unicode="&#x15b;" horiz-adv-x="307" 
d="M245 238h-26q-10 62 -75 62q-29 0 -47 -14t-18 -38q0 -14 4.5 -24t17 -17.5t22 -11.5t31.5 -11q59 -19 87 -40t28 -63t-30.5 -65.5t-79.5 -23.5q-77 0 -105 49v-41h-26v100h26q5 -41 34.5 -61.5t70.5 -20.5q36 0 58 16.5t22 45.5t-21.5 44.5t-70.5 31.5q-51 17 -74 36
t-23 56q0 35 26 56.5t68 21.5q55 0 75 -38v30h26v-80zM133 396l60 132h33l-68 -132h-25z" />
    <glyph glyph-name="Scircumflex" unicode="&#x15c;" horiz-adv-x="506" 
d="M395 528q-10 63 -50 97.5t-101 34.5q-59 0 -97.5 -35t-38.5 -87t30.5 -83t104.5 -67l61 -30q90 -44 126 -85.5t36 -110.5q0 -76 -54.5 -123t-145.5 -47q-70 0 -123 31.5t-76 81.5v-105h-29v184h29q11 -74 64 -118.5t135 -44.5q78 0 123.5 39t45.5 102q0 61 -32 96.5
t-112 73.5l-62 30q-79 39 -115.5 77t-36.5 99q0 67 48.5 108.5t118.5 41.5q104 0 151 -81v73h29v-152h-29zM159 724l92 112h3l92 -112h-26l-67 70l-68 -70h-26z" />
    <glyph glyph-name="scircumflex" unicode="&#x15d;" horiz-adv-x="307" 
d="M245 238h-26q-10 62 -75 62q-29 0 -47 -14t-18 -38q0 -14 4.5 -24t17 -17.5t22 -11.5t31.5 -11q59 -19 87 -40t28 -63t-30.5 -65.5t-79.5 -23.5q-77 0 -105 49v-41h-26v100h26q5 -41 34.5 -61.5t70.5 -20.5q36 0 58 16.5t22 45.5t-21.5 44.5t-70.5 31.5q-51 17 -74 36
t-23 56q0 35 26 56.5t68 21.5q55 0 75 -38v30h26v-80zM57 414l92 112h3l92 -112h-26l-67 70l-68 -70h-26z" />
    <glyph glyph-name="Scedilla" unicode="&#x15e;" horiz-adv-x="506" 
d="M253 -186q-53 0 -72 45l22 12q14 -32 50 -32q17 0 28.5 10t11.5 29q0 44 -49 44h-9v72q-59 7 -103.5 37t-64.5 74v-105h-29v184h29q11 -74 64 -118.5t135 -44.5q78 0 123.5 39t45.5 102q0 61 -32 96.5t-112 73.5l-62 30q-79 39 -115.5 77t-36.5 99q0 67 48.5 108.5
t118.5 41.5q104 0 151 -81v73h29v-152h-29q-10 63 -50 97.5t-101 34.5q-59 0 -97.5 -35t-38.5 -87t30.5 -83t104.5 -67l61 -30q90 -44 126 -85.5t36 -110.5q0 -76 -54.5 -123t-145.5 -47h-6v-47q26 -2 43.5 -20.5t17.5 -46.5q0 -30 -20 -47t-48 -17z" />
    <glyph glyph-name="scedilla" unicode="&#x15f;" horiz-adv-x="307" 
d="M149 -186q-53 0 -72 45l22 12q14 -32 50 -32q17 0 28.5 10t11.5 29q0 44 -49 44h-9v72q-57 9 -77 47v-41h-26v100h26q5 -41 34.5 -61.5t70.5 -20.5q36 0 58 16.5t22 45.5t-21.5 44.5t-70.5 31.5q-51 17 -74 36t-23 56q0 35 26 56.5t68 21.5q55 0 75 -38v30h26v-80h-26
q-10 62 -75 62q-29 0 -47 -14t-18 -38q0 -14 4.5 -24t17 -17.5t22 -11.5t31.5 -11q59 -19 87 -40t28 -63t-30.5 -65.5t-79.5 -23.5h-3v-47q26 -2 43.5 -20.5t17.5 -46.5q0 -30 -20 -47t-48 -17z" />
    <glyph glyph-name="Scaron" unicode="&#x160;" horiz-adv-x="506" 
d="M395 528q-10 63 -50 97.5t-101 34.5q-59 0 -97.5 -35t-38.5 -87t30.5 -83t104.5 -67l61 -30q90 -44 126 -85.5t36 -110.5q0 -76 -54.5 -123t-145.5 -47q-70 0 -123 31.5t-76 81.5v-105h-29v184h29q11 -74 64 -118.5t135 -44.5q78 0 123.5 39t45.5 102q0 61 -32 96.5
t-112 73.5l-62 30q-79 39 -115.5 77t-36.5 99q0 67 48.5 108.5t118.5 41.5q104 0 151 -81v73h29v-152h-29zM251 719l-92 112h26l67 -70l68 70h26l-92 -112h-3z" />
    <glyph glyph-name="scaron" unicode="&#x161;" horiz-adv-x="307" 
d="M245 238h-26q-10 62 -75 62q-29 0 -47 -14t-18 -38q0 -14 4.5 -24t17 -17.5t22 -11.5t31.5 -11q59 -19 87 -40t28 -63t-30.5 -65.5t-79.5 -23.5q-77 0 -105 49v-41h-26v100h26q5 -41 34.5 -61.5t70.5 -20.5q36 0 58 16.5t22 45.5t-21.5 44.5t-70.5 31.5q-51 17 -74 36
t-23 56q0 35 26 56.5t68 21.5q55 0 75 -38v30h26v-80zM149 409l-92 112h26l67 -70l68 70h26l-92 -112h-3z" />
    <glyph glyph-name="Tcommaaccent" unicode="&#x162;" horiz-adv-x="564" 
d="M504 538v114h-206v-625h70v-27h-172v27h70v625h-206v-114h-29v142h502v-142h-29zM258 -157l16 59q-17 4 -17 24q0 10 7.5 17.5t17.5 7.5q9 0 17 -7.5t8 -17.5q0 -7 -3 -13l-29 -70h-17z" />
    <glyph glyph-name="tcommaaccent" unicode="&#x163;" horiz-adv-x="221" 
d="M67 292h-45v26h45v131h30v-131h83v-26h-83v-223q0 -50 40 -50q21 0 41 16l15 -22q-23 -21 -56 -21t-51.5 20t-18.5 53v227zM84 -157l16 59q-17 4 -17 24q0 10 7.5 17.5t17.5 7.5q9 0 17 -7.5t8 -17.5q0 -7 -3 -13l-29 -70h-17z" />
    <glyph glyph-name="Tcaron" unicode="&#x164;" horiz-adv-x="564" 
d="M504 538v114h-206v-625h70v-27h-172v27h70v625h-206v-114h-29v142h502v-142h-29zM281 719l-92 112h26l67 -70l68 70h26l-92 -112h-3z" />
    <glyph glyph-name="tcaron" unicode="&#x165;" horiz-adv-x="221" 
d="M159 571l18 61q-19 4 -19 26q0 12 8.5 20t19.5 8t19.5 -8t8.5 -20q0 -6 -3 -14l-33 -73h-19zM67 292h-45v26h45v131h30v-131h83v-26h-83v-223q0 -50 40 -50q21 0 41 16l15 -22q-23 -21 -56 -21t-51.5 20t-18.5 53v227z" />
    <glyph glyph-name="Umacron" unicode="&#x16a;" horiz-adv-x="660" 
d="M625 680v-27h-70v-429q0 -110 -63 -171t-163 -61q-99 0 -161.5 61t-62.5 171v429h-70v27h172v-27h-70v-426q0 -98 52.5 -152.5t139.5 -54.5t140.5 54.5t53.5 152.5v426h-70v27h172zM251 748v26h158v-26h-158z" />
    <glyph glyph-name="umacron" unicode="&#x16b;" horiz-adv-x="412" 
d="M247 292v26h90v-292h60v-26h-90v60q-16 -32 -47.5 -50t-70.5 -18q-57 0 -90.5 32t-33.5 96v172h-60v26h90v-193q0 -106 95 -106q52 0 84.5 32t32.5 86v155h-60zM114 448v26h158v-26h-158z" />
    <glyph glyph-name="Ubreve" unicode="&#x16c;" horiz-adv-x="660" 
d="M625 680v-27h-70v-429q0 -110 -63 -171t-163 -61q-99 0 -161.5 61t-62.5 171v429h-70v27h172v-27h-70v-426q0 -98 52.5 -152.5t139.5 -54.5t140.5 54.5t53.5 152.5v426h-70v27h172zM329 717q-35 0 -57.5 19.5t-31.5 51.5l26 9q17 -52 63 -52t63 52l27 -9
q-9 -32 -32 -51.5t-58 -19.5z" />
    <glyph glyph-name="ubreve" unicode="&#x16d;" horiz-adv-x="412" 
d="M247 292v26h90v-292h60v-26h-90v60q-16 -32 -47.5 -50t-70.5 -18q-57 0 -90.5 32t-33.5 96v172h-60v26h90v-193q0 -106 95 -106q52 0 84.5 32t32.5 86v155h-60zM192 407q-35 0 -57.5 19.5t-31.5 51.5l26 9q17 -52 63 -52t63 52l27 -9q-9 -32 -32 -51.5t-58 -19.5z" />
    <glyph glyph-name="Uring" unicode="&#x16e;" horiz-adv-x="660" 
d="M625 680v-27h-70v-429q0 -110 -63 -171t-163 -61q-99 0 -161.5 61t-62.5 171v429h-70v27h172v-27h-70v-426q0 -98 52.5 -152.5t139.5 -54.5t140.5 54.5t53.5 152.5v426h-70v27h172zM330 691q-30 0 -51 21t-21 50t21 50.5t51 21.5t51 -21.5t21 -50.5t-21 -50t-51 -21z
M330 715q20 0 32.5 13t12.5 34t-12.5 34.5t-32.5 13.5t-32.5 -13.5t-12.5 -34.5t12.5 -34t32.5 -13z" />
    <glyph glyph-name="uring" unicode="&#x16f;" horiz-adv-x="412" 
d="M247 292v26h90v-292h60v-26h-90v60q-16 -32 -47.5 -50t-70.5 -18q-57 0 -90.5 32t-33.5 96v172h-60v26h90v-193q0 -106 95 -106q52 0 84.5 32t32.5 86v155h-60zM193 381q-30 0 -51 21t-21 50t21 50.5t51 21.5t51 -21.5t21 -50.5t-21 -50t-51 -21zM193 405q20 0 32.5 13
t12.5 34t-12.5 34.5t-32.5 13.5t-32.5 -13.5t-12.5 -34.5t12.5 -34t32.5 -13z" />
    <glyph glyph-name="Uhungarumlaut" unicode="&#x170;" horiz-adv-x="660" 
d="M625 680v-27h-70v-429q0 -110 -63 -171t-163 -61q-99 0 -161.5 61t-62.5 171v429h-70v27h172v-27h-70v-426q0 -98 52.5 -152.5t139.5 -54.5t140.5 54.5t53.5 152.5v426h-70v27h172zM353 721l60 132h32l-67 -132h-25zM271 721l60 132h32l-67 -132h-25z" />
    <glyph glyph-name="uhungarumlaut" unicode="&#x171;" horiz-adv-x="412" 
d="M247 292v26h90v-292h60v-26h-90v60q-16 -32 -47.5 -50t-70.5 -18q-57 0 -90.5 32t-33.5 96v172h-60v26h90v-193q0 -106 95 -106q52 0 84.5 32t32.5 86v155h-60zM216 396l60 132h32l-67 -132h-25zM134 396l60 132h32l-67 -132h-25z" />
    <glyph glyph-name="Uogonek" unicode="&#x172;" horiz-adv-x="660" 
d="M105 224v429h-70v27h172v-27h-70v-426q0 -98 52.5 -152.5t139.5 -54.5t140.5 54.5t53.5 152.5v426h-70v27h172v-27h-70v-429q0 -132 -95 -195q-11 -8 -31 -20t-32 -20.5t-21 -17.5q-65 -65 -65 -120q0 -21 10.5 -31.5t26.5 -10.5q26 0 41 24l20 -16q-21 -34 -61 -34
q-29 0 -48.5 18t-19.5 50q0 72 90 144q-27 -3 -41 -3q-99 0 -161.5 61t-62.5 171z" />
    <glyph glyph-name="uogonek" unicode="&#x173;" horiz-adv-x="412" 
d="M287 -217q-29 0 -47 17t-18 47q0 23 13 50.5t27.5 47t44.5 55.5v60q-16 -32 -47.5 -50t-70.5 -18q-57 0 -90.5 32t-33.5 96v172h-60v26h90v-193q0 -106 95 -106q52 0 84.5 32t32.5 86v155h-60v26h90v-292h60v-26h-62q-51 -66 -67.5 -94.5t-16.5 -58.5q0 -19 10.5 -29.5
t25.5 -10.5q26 0 41 24l20 -14q-21 -34 -61 -34z" />
    <glyph glyph-name="Ydieresis" unicode="&#x178;" horiz-adv-x="625" 
d="M227 0v27h70v246l-222 380h-60v27h160v-27h-64l202 -346l203 346h-67v27h161v-27h-60l-221 -378v-248h70v-27h-172zM365 741q-9 0 -16.5 7t-7.5 17t7.5 17t16.5 7t16.5 -7t7.5 -17t-7.5 -17t-16.5 -7zM261 741q-9 0 -16.5 7t-7.5 17t7.5 17t16.5 7t16.5 -7t7.5 -17
t-7.5 -17t-16.5 -7z" />
    <glyph glyph-name="Zacute" unicode="&#x179;" horiz-adv-x="566" 
d="M66 538v142h446v-17l-435 -635h425v114h29v-142h-496v19l435 633h-375v-114h-29zM266 721l60 132h33l-68 -132h-25z" />
    <glyph glyph-name="zacute" unicode="&#x17a;" horiz-adv-x="322" 
d="M42 223v95h246v-15l-215 -277h193v81h26v-107h-262v15l215 277h-177v-69h-26zM144 396l60 132h33l-68 -132h-25z" />
    <glyph glyph-name="Zdotaccent" unicode="&#x17b;" horiz-adv-x="566" 
d="M66 538v142h446v-17l-435 -635h425v114h29v-142h-496v19l435 633h-375v-114h-29zM283 740q-10 0 -17.5 7.5t-7.5 17.5t7.5 17.5t17.5 7.5t17.5 -7.5t7.5 -17.5t-7.5 -17.5t-17.5 -7.5z" />
    <glyph glyph-name="zdotaccent" unicode="&#x17c;" horiz-adv-x="322" 
d="M42 223v95h246v-15l-215 -277h193v81h26v-107h-262v15l215 277h-177v-69h-26zM161 430q-10 0 -17.5 7.5t-7.5 17.5t7.5 17.5t17.5 7.5t17.5 -7.5t7.5 -17.5t-7.5 -17.5t-17.5 -7.5z" />
    <glyph glyph-name="Zcaron" unicode="&#x17d;" horiz-adv-x="566" 
d="M66 538v142h446v-17l-435 -635h425v114h29v-142h-496v19l435 633h-375v-114h-29zM282 719l-92 112h26l67 -70l68 70h26l-92 -112h-3z" />
    <glyph glyph-name="zcaron" unicode="&#x17e;" horiz-adv-x="322" 
d="M42 223v95h246v-15l-215 -277h193v81h26v-107h-262v15l215 277h-177v-69h-26zM160 409l-92 112h26l67 -70l68 70h26l-92 -112h-3z" />
    <glyph glyph-name="florin" unicode="&#x192;" horiz-adv-x="322" 
d="M306 469l-23 -18q-22 29 -52 29q-52 0 -60 -65l-19 -167h92v-27h-95l-48 -433h-29l48 433h-74v27h77l19 171q5 45 29.5 67t59.5 22q47 0 75 -39z" />
    <glyph glyph-name="Scommaaccent" unicode="&#x218;" horiz-adv-x="506" 
d="M395 528q-10 63 -50 97.5t-101 34.5q-59 0 -97.5 -35t-38.5 -87t30.5 -83t104.5 -67l61 -30q90 -44 126 -85.5t36 -110.5q0 -76 -54.5 -123t-145.5 -47q-70 0 -123 31.5t-76 81.5v-105h-29v184h29q11 -74 64 -118.5t135 -44.5q78 0 123.5 39t45.5 102q0 61 -32 96.5
t-112 73.5l-62 30q-79 39 -115.5 77t-36.5 99q0 67 48.5 108.5t118.5 41.5q104 0 151 -81v73h29v-152h-29zM228 -157l16 59q-17 4 -17 24q0 10 7.5 17.5t17.5 7.5q9 0 17 -7.5t8 -17.5q0 -7 -3 -13l-29 -70h-17z" />
    <glyph glyph-name="scommaaccent" unicode="&#x219;" horiz-adv-x="307" 
d="M245 238h-26q-10 62 -75 62q-29 0 -47 -14t-18 -38q0 -14 4.5 -24t17 -17.5t22 -11.5t31.5 -11q59 -19 87 -40t28 -63t-30.5 -65.5t-79.5 -23.5q-77 0 -105 49v-41h-26v100h26q5 -41 34.5 -61.5t70.5 -20.5q36 0 58 16.5t22 45.5t-21.5 44.5t-70.5 31.5q-51 17 -74 36
t-23 56q0 35 26 56.5t68 21.5q55 0 75 -38v30h26v-80zM126 -157l16 59q-17 4 -17 24q0 10 7.5 17.5t17.5 7.5q9 0 17 -7.5t8 -17.5q0 -7 -3 -13l-29 -70h-17z" />
    <glyph glyph-name="uni021A" unicode="&#x21a;" horiz-adv-x="564" 
d="M287 -186q-53 0 -72 45l22 12q14 -32 50 -32q17 0 28.5 10t11.5 29q0 44 -49 44h-9v78h-73v27h70v625h-206v-114h-29v142h502v-142h-29v114h-206v-625h70v-27h-74v-55q26 -2 43.5 -20.5t17.5 -46.5q0 -30 -20 -47t-48 -17z" />
    <glyph glyph-name="uni021B" unicode="&#x21b;" horiz-adv-x="221" 
d="M125 -186q-53 0 -72 45l22 12q14 -32 50 -32q17 0 28.5 10t11.5 29q0 44 -49 44h-9v75q-40 18 -40 68v227h-45v26h45v131h30v-131h83v-26h-83v-223q0 -50 40 -50q21 0 41 16l15 -22q-23 -21 -56 -21h-5v-47q26 -2 43.5 -20.5t17.5 -46.5q0 -30 -20 -47t-48 -17z" />
    <glyph glyph-name="uni0237" unicode="&#x237;" horiz-adv-x="172" 
d="M22 292v26h90v-457q0 -39 -19 -60t-53 -21q-27 0 -46 16l15 22q14 -11 31 -11q42 0 42 57v428h-60z" />
    <glyph glyph-name="circumflex" unicode="&#x2c6;" horiz-adv-x="500" 
d="M156 414l92 112h3l92 -112h-26l-67 70l-68 -70h-26z" />
    <glyph glyph-name="caron" unicode="&#x2c7;" horiz-adv-x="500" 
d="M249 409l-92 112h26l67 -70l68 70h26l-92 -112h-3z" />
    <glyph glyph-name="breve" unicode="&#x2d8;" horiz-adv-x="500" 
d="M250 407q-35 0 -57.5 19.5t-31.5 51.5l26 9q17 -52 63 -52t63 52l27 -9q-9 -32 -32 -51.5t-58 -19.5z" />
    <glyph glyph-name="dotaccent" unicode="&#x2d9;" horiz-adv-x="500" 
d="M250 430q-10 0 -17.5 7.5t-7.5 17.5t7.5 17.5t17.5 7.5t17.5 -7.5t7.5 -17.5t-7.5 -17.5t-17.5 -7.5z" />
    <glyph glyph-name="ring" unicode="&#x2da;" horiz-adv-x="500" 
d="M250 381q-30 0 -51 21t-21 50t21 50.5t51 21.5t51 -21.5t21 -50.5t-21 -50t-51 -21zM250 405q20 0 32.5 13t12.5 34t-12.5 34.5t-32.5 13.5t-32.5 -13.5t-12.5 -34.5t12.5 -34t32.5 -13z" />
    <glyph glyph-name="ogonek" unicode="&#x2db;" horiz-adv-x="500" 
d="M224 -217q-29 0 -47 17t-18 47q0 23 13 50.5t27.5 47t44.5 55.5h28q-51 -66 -67.5 -94.5t-16.5 -58.5q0 -19 10.5 -29.5t25.5 -10.5q26 0 41 24l20 -14q-21 -34 -61 -34z" />
    <glyph glyph-name="tilde" unicode="&#x2dc;" horiz-adv-x="500" 
d="M293 421q-21 0 -48 21t-39 21t-18 -9.5t-11 -30.5l-25 4q12 63 55 63q21 0 48 -21t39 -21t18 9.5t11 30.5l25 -4q-12 -63 -55 -63z" />
    <glyph glyph-name="hungarumlaut" unicode="&#x2dd;" horiz-adv-x="500" 
d="M269 396l60 132h32l-67 -132h-25zM187 396l60 132h32l-67 -132h-25z" />
    <glyph glyph-name="uni2009" unicode="&#x2009;" horiz-adv-x="70" 
 />
    <glyph glyph-name="endash" unicode="&#x2013;" horiz-adv-x="387" 
d="M39 160v26h309v-26h-309z" />
    <glyph glyph-name="emdash" unicode="&#x2014;" horiz-adv-x="602" 
d="M39 160v26h524v-26h-524z" />
    <glyph glyph-name="quoteleft" unicode="&#x2018;" horiz-adv-x="142" 
d="M71 565q-11 0 -19.5 8t-8.5 20q0 7 3 14l33 73h19l-18 -61q19 -4 19 -26q0 -12 -8.5 -20t-19.5 -8z" />
    <glyph glyph-name="quoteright" unicode="&#x2019;" horiz-adv-x="142" 
d="M44 571l18 61q-19 4 -19 26q0 12 8.5 20t19.5 8t19.5 -8t8.5 -20q0 -6 -3 -14l-33 -73h-19z" />
    <glyph glyph-name="quotesinglbase" unicode="&#x201a;" horiz-adv-x="142" 
d="M44 -65l18 61q-19 4 -19 26q0 12 8.5 20t19.5 8t19.5 -8t8.5 -20q0 -7 -3 -14l-33 -73h-19z" />
    <glyph glyph-name="quotedblleft" unicode="&#x201c;" horiz-adv-x="244" 
d="M173 565q-11 0 -19.5 8t-8.5 20q0 7 3 14l33 73h19l-18 -61q19 -4 19 -26q0 -12 -8.5 -20t-19.5 -8zM71 565q-11 0 -19.5 8t-8.5 20q0 7 3 14l33 73h19l-18 -61q19 -4 19 -26q0 -12 -8.5 -20t-19.5 -8z" />
    <glyph glyph-name="quotedblright" unicode="&#x201d;" horiz-adv-x="244" 
d="M146 571l18 61q-19 4 -19 26q0 12 8.5 20t19.5 8t19.5 -8t8.5 -20q0 -6 -3 -14l-33 -73h-19zM44 571l18 61q-19 4 -19 26q0 12 8.5 20t19.5 8t19.5 -8t8.5 -20q0 -6 -3 -14l-33 -73h-19z" />
    <glyph glyph-name="quotedblbase" unicode="&#x201e;" horiz-adv-x="244" 
d="M146 -65l18 61q-19 4 -19 26q0 12 8.5 20t19.5 8t19.5 -8t8.5 -20q0 -7 -3 -14l-33 -73h-19zM44 -65l18 61q-19 4 -19 26q0 12 8.5 20t19.5 8t19.5 -8t8.5 -20q0 -7 -3 -14l-33 -73h-19z" />
    <glyph glyph-name="dagger" unicode="&#x2020;" horiz-adv-x="246" 
d="M108 554h-78v26h78v100h30v-100h78v-26h-78v-220h-30v220z" />
    <glyph glyph-name="daggerdbl" unicode="&#x2021;" horiz-adv-x="246" 
d="M108 554h-78v26h78v100h30v-100h78v-26h-78v-94h78v-26h-78v-100h-30v100h-78v26h78v94z" />
    <glyph glyph-name="bullet" unicode="&#x2022;" horiz-adv-x="248" 
d="M124 150q-29 0 -49.5 20.5t-20.5 49.5q0 30 20.5 50t49.5 20t49.5 -20t20.5 -50q0 -29 -20.5 -49.5t-49.5 -20.5z" />
    <glyph glyph-name="ellipsis" unicode="&#x2026;" horiz-adv-x="434" 
d="M363 -6q-11 0 -19.5 8t-8.5 20t8.5 20t19.5 8t19.5 -8t8.5 -20t-8.5 -20t-19.5 -8zM217 -6q-11 0 -19.5 8t-8.5 20t8.5 20t19.5 8t19.5 -8t8.5 -20t-8.5 -20t-19.5 -8zM71 -6q-11 0 -19.5 8t-8.5 20t8.5 20t19.5 8t19.5 -8t8.5 -20t-8.5 -20t-19.5 -8z" />
    <glyph glyph-name="perthousand" unicode="&#x2030;" horiz-adv-x="857" 
d="M153 270q-49 0 -84.5 34.5t-35.5 84.5t35.5 84.5t84.5 34.5t84 -34.5t35 -84.5t-35 -84.5t-84 -34.5zM153 296q39 0 64.5 26t25.5 67q0 40 -26 66.5t-64 26.5q-39 0 -65 -26.5t-26 -66.5q0 -41 26 -67t65 -26zM119 0l309 500h32l-309 -500h-32zM426 -8q-49 0 -84.5 34.5
t-35.5 84.5q0 51 35.5 85.5t84.5 34.5t84.5 -34.5t35.5 -85.5q0 -50 -35.5 -84.5t-84.5 -34.5zM426 18q39 0 65 26.5t26 66.5q0 41 -26 67.5t-65 26.5t-65 -26.5t-26 -67.5q0 -40 26 -66.5t65 -26.5zM704 -8q-49 0 -84.5 34.5t-35.5 84.5q0 51 35.5 85.5t84.5 34.5
t84.5 -34.5t35.5 -85.5q0 -50 -35.5 -84.5t-84.5 -34.5zM704 18q39 0 65 26.5t26 66.5q0 41 -26 67.5t-65 26.5t-65 -26.5t-26 -67.5q0 -40 26 -66.5t65 -26.5z" />
    <glyph glyph-name="guilsinglleft" unicode="&#x2039;" horiz-adv-x="175" 
d="M66 157l77 -125h-34l-77 123v4l77 121h34z" />
    <glyph glyph-name="guilsinglright" unicode="&#x203a;" horiz-adv-x="175" 
d="M32 32l77 123l-77 125h34l77 -123v-4l-77 -121h-34z" />
    <glyph glyph-name="fraction" unicode="&#x2044;" horiz-adv-x="321" 
d="M-10 0l309 500h32l-309 -500h-32z" />
    <glyph glyph-name="Euro" unicode="&#x20ac;" horiz-adv-x="614" 
d="M373 480q-79 0 -137 -46t-77 -121h271v-27h-277q-2 -24 -2 -36q0 -22 3 -41h276v-27h-270q21 -72 78.5 -117t134.5 -45q54 0 101 23.5t77 63.5l22 -17q-76 -98 -200 -98q-91 0 -158 53.5t-88 136.5h-88v27h83q-3 19 -3 41q0 12 2 36h-82v27h87q21 85 88 140t159 55
q113 0 169 -75v67h27v-142h-24q-6 58 -57 90t-115 32z" />
    <glyph glyph-name="trademark" unicode="&#x2122;" horiz-adv-x="536" 
d="M425 462v22h31v168l-82 -130h-1l-81 130v-168h31v-22h-87v22h30v174h-30v22h68l70 -113l70 113h68v-22h-30v-174h30v-22h-87zM182 628v27h-54v-171h30v-22h-87v22h30v171h-55v-27h-22v52h180v-52h-22z" />
    <glyph glyph-name="summation" unicode="&#x2211;" horiz-adv-x="537" 
d="M45 0v3l262 338l-266 336v3h463v-142h-28v114h-380l247 -310v-3l-243 -311h376v114h28v-142h-459z" />
    <glyph glyph-name="minus" unicode="&#x2212;" horiz-adv-x="312" 
d="M273 229h-234v28h234v-28z" />
    <glyph glyph-name="space_uni0326" horiz-adv-x="500" 
d="M226 -157l16 59q-17 4 -17 24q0 10 7.5 17.5t17.5 7.5q9 0 17 -7.5t8 -17.5q0 -7 -3 -13l-29 -70h-17z" />
    <glyph glyph-name="idotaccent" horiz-adv-x="180" 
d="M16 292v26h90v-292h60v-26h-150v26h60v266h-60zM91 430q-10 0 -17.5 7.5t-7.5 17.5t7.5 17.5t17.5 7.5t17.5 -7.5t7.5 -17.5t-7.5 -17.5t-17.5 -7.5z" />
    <glyph glyph-name="A.alt" 
d="M669 27v-27h-167v27h71l-66 174h-335l-67 -174h72v-27h-167v27h63l234 626h-56v27h111l244 -653h63zM340 653l-157 -424h313z" />
    <glyph glyph-name="G.alt" horiz-adv-x="755" 
d="M42 340q0 149 100 248.5t245 99.5q160 0 229 -101v93h27v-161h-27q-14 66 -73.5 103t-155.5 37q-134 0 -223 -91t-89 -228t90.5 -228t225.5 -91q130 0 202.5 72.5t84.5 186.5h-285v28h320q-8 -144 -93 -230t-227 -86q-147 0 -249 99t-102 249z" />
    <glyph glyph-name="K.alt" horiz-adv-x="576" 
d="M40 653v27h171v-27h-69v-310l309 310h-70v27h172v-27h-63l-310 -312l322 -314h54v-27h-172v27h75l-317 308v-308h69v-27h-171v27h70v626h-70z" />
    <glyph glyph-name="M.alt" horiz-adv-x="809" 
d="M799 27v-27h-172v27h74l-72 606l-219 -499h-17l-216 500l-72 -607h75v-27h-170v27h68l73 626h-71v27h108l214 -498l217 498h109v-27h-70l73 -626h68z" />
    <glyph glyph-name="Q.alt" horiz-adv-x="780" 
d="M405 -124h-30v116q-141 6 -237 104.5t-96 243.5q0 149 101 248.5t247 99.5t247 -99.5t101 -248.5q0 -145 -96 -243.5t-237 -104.5v-116zM405 158v-137q130 6 215 96t85 223q0 137 -90 228t-225 91t-225 -91t-90 -228q0 -133 85 -223t215 -96v137h30z" />
    <glyph glyph-name="Q.alt1" horiz-adv-x="780" 
d="M374 -5l56 -41q28 -22 47 -34t52 -23.5t68 -11.5q56 0 100 36l19 -22q-47 -43 -119 -43q-87 0 -186 78q-32 26 -54 41t-58 29.5t-69 14.5q-67 0 -114 -57l-21 17q47 57 111 64q-75 44 -119.5 122.5t-44.5 174.5q0 149 101 248.5t247 99.5t247 -99.5t101 -248.5
q0 -150 -100.5 -248t-250.5 -98q-8 0 -13 1zM390 21q135 0 225 91t90 228t-90 228t-225 91t-225 -91t-90 -228t90 -228t225 -91z" />
    <glyph glyph-name="W.alt" horiz-adv-x="955" 
d="M950 680v-27h-59l-248 -653h-19l-147 365l-147 -365h-18l-248 653h-59v27h156v-27h-65l227 -596l140 344l-102 252h-61v27h156v-27h-63l86 -212l85 212h-64v27h156v-27h-62l-101 -249l140 -346l226 595h-66v27h157z" />
    <glyph glyph-name="AE.alt" horiz-adv-x="949" 
d="M675 548v104h-314l105 -297h275v-28h-265l106 -299h305v104h29v-132h-440v27h73l-61 174h-313l-69 -174h71v-27h-167v27h64l249 626h-57v27h438v-132h-29zM341 621l-155 -392h292z" />
    <glyph glyph-name="a.alt" horiz-adv-x="423" 
d="M192 299q-57 0 -93 -39.5t-36 -100.5t36 -100.5t93 -39.5t92.5 39.5t35.5 100.5t-35.5 100.5t-92.5 39.5zM348 293v-268h60v-25h-90v69q-42 -77 -126 -77q-69 0 -114.5 48t-45.5 119t45.5 119t114.5 48q84 0 126 -77v69h90v-25h-60z" />
    <glyph glyph-name="g.alt" horiz-adv-x="428" 
d="M355 293v-356q0 -72 -41 -115.5t-111 -43.5q-56 0 -97 26t-59 69l27 10q15 -36 49.5 -56.5t79.5 -20.5q57 0 89.5 35.5t32.5 97.5v130q-42 -77 -130 -77q-70 0 -116.5 48t-46.5 119t46.5 119t116.5 48q88 0 130 -77v69h91v-25h-61zM195 299q-58 0 -95 -39.5t-37 -100.5
t37 -100.5t95 -39.5t95 39.5t37 100.5t-37 100.5t-95 39.5z" />
    <glyph glyph-name="k.alt" horiz-adv-x="344" 
d="M186 292v26h140v-26h-48l-141 -131l155 -135h40v-26h-130v26h46l-143 127v-127h54v-26h-144v26h60v658h-60v26h90v-543l136 125h-55z" />
    <glyph glyph-name="Aacute.alt" 
d="M669 27v-27h-167v27h71l-66 174h-335l-67 -174h72v-27h-167v27h63l234 626h-56v27h111l244 -653h63zM340 653l-157 -424h313zM328 721l60 132h33l-68 -132h-25z" />
    <glyph glyph-name="Abreve.alt" 
d="M669 27v-27h-167v27h71l-66 174h-335l-67 -174h72v-27h-167v27h63l234 626h-56v27h111l244 -653h63zM340 653l-157 -424h313zM340 717q-35 0 -57.5 19.5t-31.5 51.5l26 9q17 -52 63 -52t63 52l27 -9q-9 -32 -32 -51.5t-58 -19.5z" />
    <glyph glyph-name="Acircumflex.alt" 
d="M669 27v-27h-167v27h71l-66 174h-335l-67 -174h72v-27h-167v27h63l234 626h-56v27h111l244 -653h63zM340 653l-157 -424h313zM248 724l92 112h3l92 -112h-26l-67 70l-68 -70h-26z" />
    <glyph glyph-name="Adieresis.alt" 
d="M669 27v-27h-167v27h71l-66 174h-335l-67 -174h72v-27h-167v27h63l234 626h-56v27h111l244 -653h63zM340 653l-157 -424h313zM393 741q-9 0 -16.5 7t-7.5 17t7.5 17t16.5 7t16.5 -7t7.5 -17t-7.5 -17t-16.5 -7zM289 741q-9 0 -16.5 7t-7.5 17t7.5 17t16.5 7t16.5 -7
t7.5 -17t-7.5 -17t-16.5 -7z" />
    <glyph glyph-name="Agrave.alt" 
d="M669 27v-27h-167v27h71l-66 174h-335l-67 -174h72v-27h-167v27h63l234 626h-56v27h111l244 -653h63zM340 653l-157 -424h313zM331 721l-68 132h33l60 -132h-25z" />
    <glyph glyph-name="Amacron.alt" 
d="M669 27v-27h-167v27h71l-66 174h-335l-67 -174h72v-27h-167v27h63l234 626h-56v27h111l244 -653h63zM340 653l-157 -424h313zM252 748v26h158v-26h-158z" />
    <glyph glyph-name="Aogonek.alt" 
d="M559 -217q-29 0 -47 17t-18 47q0 23 13 50.5t27.5 47t44.5 55.5h-77v27h71l-66 174h-335l-67 -174h72v-27h-167v27h63l234 626h-56v27h111l244 -653h63v-27h-62q-51 -66 -67.5 -94.5t-16.5 -58.5q0 -19 10.5 -29.5t25.5 -10.5q26 0 41 24l20 -14q-21 -34 -61 -34z
M340 653l-157 -424h313z" />
    <glyph glyph-name="Aring.alt" 
d="M669 27v-27h-167v27h71l-66 174h-335l-67 -174h72v-27h-167v27h63l234 626h-56v27h111l244 -653h63zM340 653l-157 -424h313zM331 710q-30 0 -51 21t-21 50t21 50.5t51 21.5t51 -21.5t21 -50.5t-21 -50t-51 -21zM331 734q20 0 32.5 13t12.5 34t-12.5 34.5t-32.5 13.5
t-32.5 -13.5t-12.5 -34.5t12.5 -34t32.5 -13z" />
    <glyph glyph-name="Atilde.alt" 
d="M669 27v-27h-167v27h71l-66 174h-335l-67 -174h72v-27h-167v27h63l234 626h-56v27h111l244 -653h63zM340 653l-157 -424h313zM384 731q-20 0 -48 21t-39 21q-12 0 -18 -9.5t-11 -30.5l-25 4q12 63 55 63q20 0 48 -21t39 -21q12 0 18 9.5t11 30.5l25 -4q-12 -63 -55 -63z
" />
    <glyph glyph-name="Gbreve.alt" horiz-adv-x="755" 
d="M42 340q0 149 100 248.5t245 99.5q160 0 229 -101v93h27v-161h-27q-14 66 -73.5 103t-155.5 37q-134 0 -223 -91t-89 -228t90.5 -228t225.5 -91q130 0 202.5 72.5t84.5 186.5h-285v28h320q-8 -144 -93 -230t-227 -86q-147 0 -249 99t-102 249zM389 717q-35 0 -57.5 19.5
t-31.5 51.5l26 9q17 -52 63 -52t63 52l27 -9q-9 -32 -32 -51.5t-58 -19.5z" />
    <glyph glyph-name="Gcircumflex.alt" horiz-adv-x="755" 
d="M42 340q0 149 100 248.5t245 99.5q160 0 229 -101v93h27v-161h-27q-14 66 -73.5 103t-155.5 37q-134 0 -223 -91t-89 -228t90.5 -228t225.5 -91q130 0 202.5 72.5t84.5 186.5h-285v28h320q-8 -144 -93 -230t-227 -86q-147 0 -249 99t-102 249zM297 724l92 112h3l92 -112
h-26l-67 70l-68 -70h-26z" />
    <glyph glyph-name="Gcommaaccent.alt" horiz-adv-x="755" 
d="M42 340q0 149 100 248.5t245 99.5q160 0 229 -101v93h27v-161h-27q-14 66 -73.5 103t-155.5 37q-134 0 -223 -91t-89 -228t90.5 -228t225.5 -91q130 0 202.5 72.5t84.5 186.5h-285v28h320q-8 -144 -93 -230t-227 -86q-147 0 -249 99t-102 249zM371 -157l16 59
q-17 4 -17 24q0 10 7.5 17.5t17.5 7.5q9 0 17 -7.5t8 -17.5q0 -7 -3 -13l-29 -70h-17z" />
    <glyph glyph-name="Gdotaccent.alt" horiz-adv-x="755" 
d="M42 340q0 149 100 248.5t245 99.5q160 0 229 -101v93h27v-161h-27q-14 66 -73.5 103t-155.5 37q-134 0 -223 -91t-89 -228t90.5 -228t225.5 -91q130 0 202.5 72.5t84.5 186.5h-285v28h320q-8 -144 -93 -230t-227 -86q-147 0 -249 99t-102 249zM390 740q-10 0 -17.5 7.5
t-7.5 17.5t7.5 17.5t17.5 7.5t17.5 -7.5t7.5 -17.5t-7.5 -17.5t-17.5 -7.5z" />
    <glyph glyph-name="Kcommaaccent.alt" horiz-adv-x="576" 
d="M40 653v27h171v-27h-69v-310l309 310h-70v27h172v-27h-63l-310 -312l322 -314h54v-27h-172v27h75l-317 308v-308h69v-27h-171v27h70v626h-70zM274 -157l16 59q-17 4 -17 24q0 10 7.5 17.5t17.5 7.5q9 0 17 -7.5t8 -17.5q0 -7 -3 -13l-29 -70h-17z" />
    <glyph glyph-name="aacute.alt" horiz-adv-x="423" 
d="M192 299q-57 0 -93 -39.5t-36 -100.5t36 -100.5t93 -39.5t92.5 39.5t35.5 100.5t-35.5 100.5t-92.5 39.5zM348 293v-268h60v-25h-90v69q-42 -77 -126 -77q-69 0 -114.5 48t-45.5 119t45.5 119t114.5 48q84 0 126 -77v69h90v-25h-60zM177 396l60 132h33l-68 -132h-25z" />
    <glyph glyph-name="abreve.alt" horiz-adv-x="423" 
d="M192 299q-57 0 -93 -39.5t-36 -100.5t36 -100.5t93 -39.5t92.5 39.5t35.5 100.5t-35.5 100.5t-92.5 39.5zM348 293v-268h60v-25h-90v69q-42 -77 -126 -77q-69 0 -114.5 48t-45.5 119t45.5 119t114.5 48q84 0 126 -77v69h90v-25h-60zM199 407q-35 0 -57.5 19.5t-31.5 51.5
l26 9q17 -52 63 -52t63 52l27 -9q-9 -32 -32 -51.5t-58 -19.5z" />
    <glyph glyph-name="acircumflex.alt" horiz-adv-x="423" 
d="M192 299q-57 0 -93 -39.5t-36 -100.5t36 -100.5t93 -39.5t92.5 39.5t35.5 100.5t-35.5 100.5t-92.5 39.5zM348 293v-268h60v-25h-90v69q-42 -77 -126 -77q-69 0 -114.5 48t-45.5 119t45.5 119t114.5 48q84 0 126 -77v69h90v-25h-60zM107 414l92 112h3l92 -112h-26l-67 70
l-68 -70h-26z" />
    <glyph glyph-name="adieresis.alt" horiz-adv-x="423" 
d="M192 299q-57 0 -93 -39.5t-36 -100.5t36 -100.5t93 -39.5t92.5 39.5t35.5 100.5t-35.5 100.5t-92.5 39.5zM348 293v-268h60v-25h-90v69q-42 -77 -126 -77q-69 0 -114.5 48t-45.5 119t45.5 119t114.5 48q84 0 126 -77v69h90v-25h-60zM255 431q-9 0 -16.5 7t-7.5 17t7.5 17
t16.5 7t16.5 -7t7.5 -17t-7.5 -17t-16.5 -7zM151 431q-9 0 -16.5 7t-7.5 17t7.5 17t16.5 7t16.5 -7t7.5 -17t-7.5 -17t-16.5 -7z" />
    <glyph glyph-name="agrave.alt" horiz-adv-x="423" 
d="M192 299q-57 0 -93 -39.5t-36 -100.5t36 -100.5t93 -39.5t92.5 39.5t35.5 100.5t-35.5 100.5t-92.5 39.5zM348 293v-268h60v-25h-90v69q-42 -77 -126 -77q-69 0 -114.5 48t-45.5 119t45.5 119t114.5 48q84 0 126 -77v69h90v-25h-60zM189 396l-68 132h33l60 -132h-25z" />
    <glyph glyph-name="amacron.alt" horiz-adv-x="423" 
d="M192 299q-57 0 -93 -39.5t-36 -100.5t36 -100.5t93 -39.5t92.5 39.5t35.5 100.5t-35.5 100.5t-92.5 39.5zM348 293v-268h60v-25h-90v69q-42 -77 -126 -77q-69 0 -114.5 48t-45.5 119t45.5 119t114.5 48q84 0 126 -77v69h90v-25h-60zM123 448v26h158v-26h-158z" />
    <glyph glyph-name="aogonek.alt" horiz-adv-x="423" 
d="M348 293v-268h60v-25h-62q-51 -66 -67.5 -94.5t-16.5 -58.5q0 -19 10.5 -29.5t25.5 -10.5q26 0 41 24l20 -14q-21 -34 -61 -34q-29 0 -47 17t-18 47q0 23 13 50.5t27.5 47t44.5 55.5v69q-42 -77 -126 -77q-69 0 -114.5 48t-45.5 119t45.5 119t114.5 48q84 0 126 -77v69
h90v-25h-60zM192 299q-57 0 -93 -39.5t-36 -100.5t36 -100.5t93 -39.5t92.5 39.5t35.5 100.5t-35.5 100.5t-92.5 39.5z" />
    <glyph glyph-name="aring.alt" horiz-adv-x="423" 
d="M192 299q-57 0 -93 -39.5t-36 -100.5t36 -100.5t93 -39.5t92.5 39.5t35.5 100.5t-35.5 100.5t-92.5 39.5zM348 293v-268h60v-25h-90v69q-42 -77 -126 -77q-69 0 -114.5 48t-45.5 119t45.5 119t114.5 48q84 0 126 -77v69h90v-25h-60zM201 381q-30 0 -51 21t-21 50t21 50.5
t51 21.5t51 -21.5t21 -50.5t-21 -50t-51 -21zM201 405q20 0 32.5 13t12.5 34t-12.5 34.5t-32.5 13.5t-32.5 -13.5t-12.5 -34.5t12.5 -34t32.5 -13z" />
    <glyph glyph-name="atilde.alt" horiz-adv-x="423" 
d="M192 299q-57 0 -93 -39.5t-36 -100.5t36 -100.5t93 -39.5t92.5 39.5t35.5 100.5t-35.5 100.5t-92.5 39.5zM348 293v-268h60v-25h-90v69q-42 -77 -126 -77q-69 0 -114.5 48t-45.5 119t45.5 119t114.5 48q84 0 126 -77v69h90v-25h-60zM245 421q-21 0 -48.5 21t-38.5 21
q-12 0 -18 -9.5t-11 -30.5l-25 4q12 63 55 63q21 0 48 -21t39 -21t18 9.5t11 30.5l25 -4q-12 -63 -55 -63z" />
    <glyph glyph-name="gbreve.alt" horiz-adv-x="428" 
d="M355 293v-356q0 -72 -41 -115.5t-111 -43.5q-56 0 -97 26t-59 69l27 10q15 -36 49.5 -56.5t79.5 -20.5q57 0 89.5 35.5t32.5 97.5v130q-42 -77 -130 -77q-70 0 -116.5 48t-46.5 119t46.5 119t116.5 48q88 0 130 -77v69h91v-25h-61zM195 299q-58 0 -95 -39.5t-37 -100.5
t37 -100.5t95 -39.5t95 39.5t37 100.5t-37 100.5t-95 39.5zM201 407q-35 0 -57.5 19.5t-31.5 51.5l26 9q17 -52 63 -52t63 52l27 -9q-9 -32 -32 -51.5t-58 -19.5z" />
    <glyph glyph-name="gcircumflex.alt" horiz-adv-x="428" 
d="M355 293v-356q0 -72 -41 -115.5t-111 -43.5q-56 0 -97 26t-59 69l27 10q15 -36 49.5 -56.5t79.5 -20.5q57 0 89.5 35.5t32.5 97.5v130q-42 -77 -130 -77q-70 0 -116.5 48t-46.5 119t46.5 119t116.5 48q88 0 130 -77v69h91v-25h-61zM195 299q-58 0 -95 -39.5t-37 -100.5
t37 -100.5t95 -39.5t95 39.5t37 100.5t-37 100.5t-95 39.5zM108 414l92 112h3l92 -112h-26l-67 70l-68 -70h-26z" />
    <glyph glyph-name="gcommaaccent.alt" horiz-adv-x="428" 
d="M355 293v-356q0 -72 -41 -115.5t-111 -43.5q-56 0 -97 26t-59 69l27 10q15 -36 49.5 -56.5t79.5 -20.5q57 0 89.5 35.5t32.5 97.5v130q-42 -77 -130 -77q-70 0 -116.5 48t-46.5 119t46.5 119t116.5 48q88 0 130 -77v69h91v-25h-61zM195 299q-58 0 -95 -39.5t-37 -100.5
t37 -100.5t95 -39.5t95 39.5t37 100.5t-37 100.5t-95 39.5zM224 537l-16 -59q17 -4 17 -24q0 -10 -7.5 -17.5t-17.5 -7.5q-9 0 -17 7.5t-8 17.5q0 7 3 13l29 70h17z" />
    <glyph glyph-name="gdotaccent.alt" horiz-adv-x="428" 
d="M355 293v-356q0 -72 -41 -115.5t-111 -43.5q-56 0 -97 26t-59 69l27 10q15 -36 49.5 -56.5t79.5 -20.5q57 0 89.5 35.5t32.5 97.5v130q-42 -77 -130 -77q-70 0 -116.5 48t-46.5 119t46.5 119t116.5 48q88 0 130 -77v69h91v-25h-61zM195 299q-58 0 -95 -39.5t-37 -100.5
t37 -100.5t95 -39.5t95 39.5t37 100.5t-37 100.5t-95 39.5zM201 430q-10 0 -17.5 7.5t-7.5 17.5t7.5 17.5t17.5 7.5t17.5 -7.5t7.5 -17.5t-7.5 -17.5t-17.5 -7.5z" />
    <glyph glyph-name="kcommaaccent.alt" horiz-adv-x="344" 
d="M186 292v26h140v-26h-48l-141 -131l155 -135h40v-26h-130v26h46l-143 127v-127h54v-26h-144v26h60v658h-60v26h90v-543l136 125h-55zM152 -157l16 59q-17 4 -17 24q0 10 7.5 17.5t17.5 7.5q9 0 17 -7.5t8 -17.5q0 -7 -3 -13l-29 -70h-17z" />
    <glyph glyph-name="f_b.alt" horiz-adv-x="621" 
d="M221 0v26h45v570q0 48 -24 71.5t-64 23.5q-39 0 -63 -23.5t-24 -71.5v-278h83v-26h-83v-266h75v-26h-150v26h45v266h-45v26h45v282q0 55 34.5 86.5t82.5 31.5q51 0 84.5 -31t33.5 -87v-351q42 77 130 77q70 0 116.5 -48t46.5 -119t-46.5 -119t-116.5 -48q-88 0 -130 77
v-69h-75zM426 19q58 0 95 39.5t37 100.5t-37 100.5t-95 39.5t-95 -39.5t-37 -100.5t37 -100.5t95 -39.5z" />
    <glyph glyph-name="f_f_b.alt" horiz-adv-x="826" 
d="M266 292h-175v-266h75v-26h-150v26h45v266h-45v26h45v311q0 43 21.5 66t56.5 23q43 0 67 -32l-20 -19q-19 24 -47 24q-48 0 -48 -66v-307h175v282q0 55 34.5 86.5t82.5 31.5q51 0 84.5 -31t33.5 -87v-351q42 77 130 77q70 0 116.5 -48t46.5 -119t-46.5 -119t-116.5 -48
q-88 0 -130 77v-69h-75v26h45v570q0 48 -24 71.5t-64 23.5q-39 0 -63 -23.5t-24 -71.5v-278h83v-26h-83v-266h75v-26h-150v26h45v266zM631 19q58 0 95 39.5t37 100.5t-37 100.5t-95 39.5t-95 -39.5t-37 -100.5t37 -100.5t95 -39.5z" />
    <glyph glyph-name="f_f_h.alt" horiz-adv-x="818" 
d="M266 292h-175v-266h75v-26h-150v26h45v266h-45v26h45v311q0 43 21.5 66t56.5 23q43 0 67 -32l-20 -19q-19 24 -47 24q-48 0 -48 -66v-307h175v282q0 55 34.5 86.5t82.5 31.5q51 0 84.5 -31t33.5 -87v-342q40 68 118 68q55 0 89.5 -32.5t34.5 -95.5v-172h60v-26h-150v26
h60v167q0 106 -95 106q-52 0 -84.5 -32t-32.5 -86v-155h60v-26h-135v26h45v570q0 48 -24 71.5t-64 23.5q-39 0 -63 -23.5t-24 -71.5v-278h83v-26h-83v-266h75v-26h-150v26h45v266z" />
    <glyph glyph-name="f_f_k.alt" horiz-adv-x="740" 
d="M598 0v26h46l-143 127v-127h54v-26h-129v26h45v570q0 48 -24 71.5t-64 23.5q-39 0 -63 -23.5t-24 -71.5v-278h83v-26h-83v-266h75v-26h-150v26h45v266h-175v-266h75v-26h-150v26h45v266h-45v26h45v311q0 43 21.5 66t56.5 23q43 0 67 -32l-20 -19q-19 24 -47 24
q-48 0 -48 -66v-307h175v282q0 55 34.5 86.5t82.5 31.5q51 0 84.5 -31t33.5 -87v-433l136 125h-55v26h140v-26h-48l-141 -131l155 -135h40v-26h-130z" />
    <glyph glyph-name="f_h.alt" horiz-adv-x="612" 
d="M448 0v26h60v167q0 106 -95 106q-52 0 -84.5 -32t-32.5 -86v-155h60v-26h-135v26h45v570q0 48 -24 71.5t-64 23.5q-39 0 -63 -23.5t-24 -71.5v-278h83v-26h-83v-266h75v-26h-150v26h45v266h-45v26h45v282q0 55 34.5 86.5t82.5 31.5q51 0 84.5 -31t33.5 -87v-342
q40 68 118 68q55 0 89.5 -32.5t34.5 -95.5v-172h60v-26h-150z" />
    <glyph glyph-name="f_k.alt" horiz-adv-x="535" 
d="M393 0v26h46l-143 127v-127h54v-26h-129v26h45v570q0 48 -24 71.5t-64 23.5q-39 0 -63 -23.5t-24 -71.5v-278h83v-26h-83v-266h75v-26h-150v26h45v266h-45v26h45v282q0 55 34.5 86.5t82.5 31.5q51 0 84.5 -31t33.5 -87v-433l136 125h-55v26h140v-26h-48l-141 -131
l155 -135h40v-26h-130z" />
    <glyph glyph-name="fl.alt" horiz-adv-x="371" 
d="M16 0v26h45v266h-45v26h45v282q0 55 34.5 86.5t82.5 31.5q51 0 84.5 -31t33.5 -87v-574h60v-26h-135v26h45v570q0 48 -24 71.5t-64 23.5q-39 0 -63 -23.5t-24 -71.5v-278h83v-26h-83v-266h75v-26h-150z" />
    <glyph glyph-name="space.up" horiz-adv-x="222" 
 />
    <glyph glyph-name="dollar.up" horiz-adv-x="516" 
d="M418 518h-29q-3 59 -36 94.5t-84 44.5v-285l26 -13q88 -43 125 -86.5t37 -110.5q0 -73 -50 -119t-138 -50v-109h-30v109q-57 4 -108.5 33.5t-72.5 77.5v-104h-29v180h29q10 -69 59.5 -111.5t121.5 -47.5v333l-19 9q-78 38 -113 76t-35 99q0 67 47.5 108.5t119.5 41.5v85
h30v-87q82 -11 120 -79v73h29v-162zM426 162q0 60 -34.5 97.5t-122.5 79.5v-318q74 4 115.5 42t41.5 99zM103 538q0 -53 29.5 -83.5t106.5 -68.5v274q-60 0 -98 -34.5t-38 -87.5z" />
    <glyph glyph-name="Euro.up" horiz-adv-x="779" 
d="M500 371h-352q-1 -10 -1 -31q0 -31 2 -45h351v-28h-346q23 -110 108 -178t200 -68q79 0 144.5 33t109.5 91l24 -18q-49 -64 -121 -99.5t-157 -35.5q-129 0 -223.5 76t-118.5 199h-99v28h95q-2 28 -2 45q0 21 1 31h-94v28h97q20 128 114 208.5t224 80.5q83 0 145 -30
t95 -84v106h29v-182h-29q-12 76 -80 118.5t-160 42.5q-117 0 -201 -72.5t-103 -187.5h348v-28z" />
    <glyph glyph-name="sterling.up" horiz-adv-x="517" 
d="M127 492q0 -70 35 -166h198v-28h-188q40 -109 40 -189v-5q1 -1 15.5 -14t17.5 -15t16.5 -13t19 -13.5t18.5 -10t22.5 -9.5t23 -4.5t27.5 -2.5q38 0 62 12.5t48 37.5l22 -20q-29 -30 -58 -45t-74 -15q-34 0 -68 15t-49.5 27l-48.5 39q-11 -34 -37 -57.5t-63 -23.5t-63 22
t-26 59t25 59t62 22q40 0 79 -27q-4 70 -43 171h-91v28h80q-35 92 -35 166q0 84 56.5 140t145.5 56q114 0 157 -81v73h29v-162h-29q-3 69 -47.5 105.5t-109.5 35.5q-76 0 -122.5 -47.5t-46.5 -119.5zM181 93q-42 33 -77 33q-24 0 -40.5 -14t-16.5 -39q0 -24 17 -38t42 -14
q29 0 49.5 22t25.5 50z" />
    <glyph glyph-name="yen.up" horiz-adv-x="627" 
d="M228 0v27h70v141h-206v28h206v66h-206v28h196l-212 363h-61v27h161v-27h-64l203 -348l202 348h-67v27h162v-27h-60l-212 -363h196v-28h-206v-66h206v-28h-206v-141h70v-27h-172z" />
    <glyph glyph-name="florin.up" horiz-adv-x="344" 
d="M130 271h-76v27h79l33 301q5 45 29.5 67t59.5 22q47 0 75 -39l-23 -18q-22 29 -52 29q-51 0 -59 -65l-33 -297h89v-27h-92l-54 -483h-30z" />
    <glyph glyph-name="zero.up" horiz-adv-x="616" 
d="M308 -8q-113 0 -188.5 86.5t-75.5 261.5t75.5 261.5t188.5 86.5t188.5 -86.5t75.5 -261.5t-75.5 -261.5t-188.5 -86.5zM308 21q46 0 86 18t73 54.5t52.5 100t19.5 146.5t-19.5 146.5t-52.5 100t-73 54.5t-86 18t-86 -18t-73 -54.5t-52.5 -100t-19.5 -146.5t19.5 -146.5
t52.5 -100t73 -54.5t86 -18z" />
    <glyph glyph-name="one.up" horiz-adv-x="276" 
d="M64 27h70v625h-94v28h126v-653h70v-27h-172v27z" />
    <glyph glyph-name="two.up" horiz-adv-x="507" 
d="M51 0v18l264 283q52 55 78.5 103t26.5 107q0 66 -41.5 107t-111.5 41q-64 0 -109 -37.5t-62 -98.5l-29 9q20 70 73 113t127 43q84 0 134.5 -49.5t50.5 -127.5q0 -65 -31.5 -118.5t-87.5 -113.5l-234 -251h351v81h27v-109h-426z" />
    <glyph glyph-name="three.up" horiz-adv-x="535" 
d="M459 680v-14l-228 -253q17 2 37 2q102 -2 163.5 -54.5t61.5 -148.5q0 -95 -66.5 -157.5t-173.5 -62.5q-78 0 -135 34t-87 88l25 16q62 -109 197 -109q97 0 152.5 52.5t55.5 138.5q0 88 -53.5 132.5t-144.5 44.5q-44 0 -80 -9l-5 12l234 260h-310v-81h-27v109h384z" />
    <glyph glyph-name="four.up" horiz-adv-x="526" 
d="M321 27h72v135h-371v18l386 512h16v-502h69v-28h-69v-135h69v-27h-172v27zM393 190v439l-331 -439h331z" />
    <glyph glyph-name="five.up" horiz-adv-x="521" 
d="M437 680v-109h-27v81h-291v-257q57 36 141 36q101 0 160 -57.5t59 -154.5q0 -98 -62 -162.5t-167 -64.5q-69 0 -128 30.5t-91 84.5l27 14q26 -46 78 -73t114 -27q91 0 144 56t53 142q0 85 -48 134t-139 49q-105 0 -166 -54l-4 2v330h347z" />
    <glyph glyph-name="six.up" horiz-adv-x="530" 
d="M267 -8q-97 0 -160 64.5t-63 158.5q0 77 51 147l227 318h35l-201 -280q49 39 114 39q95 0 157.5 -65t62.5 -159t-63 -158.5t-160 -64.5zM267 21q85 0 138 56.5t53 137.5q0 82 -52.5 138.5t-138.5 56.5q-85 0 -138 -56t-53 -139q0 -81 53 -137.5t138 -56.5z" />
    <glyph glyph-name="seven.up" horiz-adv-x="510" 
d="M477 680v-17l-331 -663h-33l325 652h-379v-81h-27v109h445z" />
    <glyph glyph-name="eight.up" horiz-adv-x="541" 
d="M271 -8q-99 0 -163.5 54t-64.5 139q0 71 43.5 118t112.5 63q-55 14 -87.5 52.5t-32.5 99.5q0 73 54.5 121.5t136.5 48.5t137 -48.5t55 -121.5q0 -60 -33.5 -99t-87.5 -53q70 -16 113.5 -63t43.5 -118q0 -85 -64.5 -139t-162.5 -54zM271 21q89 0 141.5 45t52.5 119
t-53 120.5t-141 46.5t-141.5 -46.5t-53.5 -120.5t53 -119t142 -45zM271 379q73 0 116.5 38.5t43.5 100.5t-44 101.5t-117 39.5q-72 0 -116 -39.5t-44 -101.5t44 -100.5t117 -38.5z" />
    <glyph glyph-name="nine.up" horiz-adv-x="539" 
d="M196 0l185 272q-51 -40 -117 -40q-97 0 -160.5 66.5t-63.5 162.5q0 95 64.5 161t162.5 66q99 0 163.5 -66t64.5 -161q0 -73 -52 -150l-212 -311h-35zM267 261q87 0 141.5 57.5t54.5 142.5q0 83 -53.5 140.5t-142.5 57.5q-88 0 -141.5 -57.5t-53.5 -140.5q0 -84 52.5 -142
t142.5 -58z" />
    <glyph glyph-name="percent.up" horiz-adv-x="649" 
d="M536 680l-390 -680h-33l390 680h33zM182 433q47 0 79 32t32 82t-32 82t-79 32t-79 -32t-32 -82t32 -82t79 -32zM182 406q-57 0 -99 40.5t-42 100.5t42 100.5t99 40.5t99 -40.5t42 -100.5t-42 -100.5t-99 -40.5zM467 -8q-57 0 -99 40.5t-42 100.5t42 100.5t99 40.5
t99 -40.5t42 -100.5t-42 -100.5t-99 -40.5zM467 19q47 0 79 32t32 82t-32 82t-79 32t-79 -32t-32 -82t32 -82t79 -32z" />
    <glyph glyph-name="perthousand.up" horiz-adv-x="976" 
d="M113 0l390 680h33l-390 -680h-33zM182 406q-57 0 -99 40.5t-42 100.5t42 100.5t99 40.5t99 -40.5t42 -100.5t-42 -100.5t-99 -40.5zM182 433q47 0 79 32t32 82t-32 82t-79 32t-79 -32t-32 -82t32 -82t79 -32zM467 -8q-57 0 -99 40.5t-42 100.5t42 100.5t99 40.5t99 -40.5
t42 -100.5t-42 -100.5t-99 -40.5zM467 19q47 0 79 32t32 82t-32 82t-79 32t-79 -32t-32 -82t32 -82t79 -32zM794 -8q-57 0 -99 40.5t-42 100.5t42 100.5t99 40.5t99 -40.5t42 -100.5t-42 -100.5t-99 -40.5zM794 19q47 0 79 32t32 82t-32 82t-79 32t-79 -32t-32 -82t32 -82
t79 -32z" />
    <glyph glyph-name="fraction.up" horiz-adv-x="423" 
d="M-20 0l431 680h32l-431 -680h-32z" />
    <glyph glyph-name="plus.up" horiz-adv-x="352" 
d="M191 309v-133h-30v133h-122v28h122v133h30v-133h122v-28h-122z" />
    <glyph glyph-name="minus.up" horiz-adv-x="332" 
d="M293 309h-254v28h254v-28z" />
    <glyph glyph-name="multiply.up" horiz-adv-x="324" 
d="M182 317l100 -100l-20 -20l-100 100l-100 -100l-20 20l100 100l-100 100l20 20l100 -100l100 100l20 -20z" />
    <glyph glyph-name="divide.up" horiz-adv-x="352" 
d="M176 409q-11 0 -19.5 8t-8.5 20t8.5 20t19.5 8t19.5 -8t8.5 -20t-8.5 -20t-19.5 -8zM176 181q-11 0 -19.5 8t-8.5 20t8.5 20t19.5 8t19.5 -8t8.5 -20t-8.5 -20t-19.5 -8zM313 309h-274v28h274v-28z" />
    <glyph glyph-name="equal.up" horiz-adv-x="372" 
d="M39 359v28h294v-28h-294zM39 259v28h294v-28h-294z" />
    <glyph glyph-name="less.up" horiz-adv-x="352" 
d="M313 179l-281 143v4l281 141v-31l-225 -113l225 -113v-31z" />
    <glyph glyph-name="greater.up" horiz-adv-x="352" 
d="M39 467l281 -143v-4l-281 -141v31l225 113l-225 113v31z" />
    <glyph glyph-name="degree.up" horiz-adv-x="317" 
d="M159 436q-53 0 -90 36.5t-37 88.5q0 54 37 90.5t90 36.5t89.5 -36.5t36.5 -90.5q0 -53 -36.5 -89t-89.5 -36zM159 464q43 0 69 27.5t26 69.5q0 43 -26 71t-69 28t-69.5 -28t-26.5 -71q0 -42 26.5 -69.5t69.5 -27.5z" />
    <glyph glyph-name="ordfeminine.up" horiz-adv-x="367" 
d="M271 552v10q0 57 -22.5 78t-66.5 21q-61 0 -102 -55l-21 15q41 67 123 67q119 0 119 -121v-176h52v-30h-82v43q-36 -50 -109 -50q-54 0 -89 26.5t-35 74.5t36 72.5t89 24.5h108zM271 526h-104q-43 0 -71 -17t-28 -54q0 -74 98 -74q43 0 74 22.5t31 64.5v58z" />
    <glyph glyph-name="ordmasculine.up" horiz-adv-x="396" 
d="M198 354q-68 0 -116 48.5t-48 118.5t48 118.5t116 48.5t116 -48.5t48 -118.5t-48 -118.5t-116 -48.5zM198 380q57 0 95 40.5t38 100.5t-38 100.5t-95 40.5t-95 -40.5t-38 -100.5t38 -100.5t95 -40.5z" />
    <glyph glyph-name="comma.up" horiz-adv-x="142" 
d="M44 -70l18 66q-19 4 -19 26q0 12 8.5 20t19.5 8t19.5 -8t8.5 -20q0 -8 -3 -14l-33 -78h-19z" />
    <glyph glyph-name="hyphen.up" horiz-adv-x="222" 
d="M39 300v26h144v-26h-144z" />
    <glyph glyph-name="endash.up" horiz-adv-x="422" 
d="M39 297v28h344v-28h-344z" />
    <glyph glyph-name="emdash.up" horiz-adv-x="647" 
d="M39 297v28h569v-28h-569z" />
    <glyph glyph-name="parenleft.up" horiz-adv-x="254" 
d="M203 -103q-163 177 -163 427t163 427l21 -19q-152 -172 -152 -408t152 -408z" />
    <glyph glyph-name="parenright.up" horiz-adv-x="254" 
d="M51 751q163 -177 163 -427t-163 -427l-21 19q152 172 152 408t-152 408z" />
    <glyph glyph-name="at.up" horiz-adv-x="759" 
d="M379 -8q-143 0 -239 102t-96 247q0 144 96 245.5t239 101.5q146 0 241 -97.5t95 -236.5q0 -91 -35.5 -140.5t-86.5 -49.5q-41 0 -66 24t-30 66q-40 -86 -129 -86q-66 0 -111 49t-45 118q0 71 45 120.5t111 49.5q43 0 76 -22.5t51 -61.5v75h31v-219q0 -37 16 -60.5
t51 -23.5q40 0 65.5 41.5t25.5 119.5q0 126 -84 216t-221 90q-132 0 -218 -93.5t-86 -225.5q0 -134 86 -227.5t218 -93.5q84 0 148 41l15 -25q-74 -44 -163 -44zM368 195q54 0 91 41t37 99q0 60 -37 101.5t-91 41.5q-53 0 -88.5 -41.5t-35.5 -101.5q0 -58 35.5 -99t88.5 -41
z" />
    <glyph glyph-name="section.up" horiz-adv-x="540" 
d="M85 -74v-98h-29v180h29q10 -74 63 -117.5t125 -43.5q65 0 102.5 34t37.5 91q0 49 -31 79t-89 56l-122 52q-71 30 -101.5 65.5t-30.5 94.5q0 79 80 121q-25 38 -25 88q0 70 50 115t124 45q106 0 150 -81v73h29v-162h-29q-3 69 -45 107t-105 37q-63 0 -102.5 -38t-39.5 -96
q0 -55 28.5 -86t83.5 -55l127 -54q73 -31 104 -68t31 -89q0 -39 -23 -69.5t-62 -47.5q30 -38 30 -87q0 -69 -46 -110.5t-127 -41.5q-69 0 -117 28t-70 78zM397 78q33 13 52.5 39.5t19.5 58.5q0 44 -26 73t-91 57l-127 54q-59 25 -91 60q-63 -33 -63 -101q0 -50 26 -78.5
t87 -54.5l122 -52q59 -25 91 -56z" />
    <glyph glyph-name="numbersign.up" horiz-adv-x="455" 
d="M157 535h-96v26h102l30 119h28l-30 -119h126l30 119h28l-30 -119h88v-26h-94l-42 -167h97v-26h-104l-28 -113h-28l28 113h-126l-28 -113h-28l28 113h-86v26h93zM311 535h-126l-42 -167h126z" />
    <glyph glyph-name="copyright.up" horiz-adv-x="786" 
d="M393 -8q-143 0 -246 100t-103 248t103 248t246 100t246 -100t103 -248t-103 -248t-246 -100zM393 20q133 0 225.5 91.5t92.5 228.5t-92.5 228.5t-225.5 91.5t-225.5 -91.5t-92.5 -228.5t92.5 -228.5t225.5 -91.5zM400 553q92 0 137 -58v52h28v-125h-25q-4 51 -44.5 77
t-95.5 26q-78 0 -131.5 -53.5t-53.5 -133.5t53.5 -133t131.5 -53q95 0 145 72l24 -16q-27 -40 -71.5 -62t-97.5 -22q-90 0 -153 61t-63 153t63 153.5t153 61.5z" />
    <glyph glyph-name="f_f_l.alt" horiz-adv-x="576" 
d="M266 292h-175v-266h75v-26h-150v26h45v266h-45v26h45v311q0 43 21.5 66t56.5 23q43 0 67 -32l-20 -19q-19 24 -47 24q-48 0 -48 -66v-307h175v282q0 55 34.5 86.5t82.5 31.5q51 0 84.5 -31t33.5 -87v-574h60v-26h-135v26h45v570q0 48 -24 71.5t-64 23.5q-39 0 -63 -23.5
t-24 -71.5v-278h83v-26h-83v-266h75v-26h-150v26h45v266z" />
    <glyph glyph-name="A.low" 
d="M669 27v-27h-167v27h71l-41 110h-385l-42 -110h72v-27h-167v27h63l234 626h-56v27h178v-27h-57l234 -626h63zM340 653l-182 -488h363z" />
    <glyph glyph-name="B.low" horiz-adv-x="605" 
d="M40 0v27h70v626h-70v27h277q88 0 136.5 -45t48.5 -116q0 -103 -91 -142q70 -17 110 -66t40 -118q0 -84 -55 -138.5t-157 -54.5h-309zM142 28h202q92 0 138.5 45.5t46.5 119.5t-47.5 119.5t-137.5 45.5h-202v-330zM142 386h192q69 0 102.5 36.5t33.5 96.5t-39 96.5
t-117 36.5h-172v-266z" />
    <glyph glyph-name="E.low" horiz-adv-x="558" 
d="M475 538v114h-333v-387h305v-28h-305v-209h347v114h29v-142h-478v27h70v626h-70v27h464v-142h-29z" />
    <glyph glyph-name="F.low" horiz-adv-x="537" 
d="M475 538v114h-333v-387h307v-28h-307v-210h71v-27h-173v27h70v626h-70v27h464v-142h-29z" />
    <glyph glyph-name="G.low" horiz-adv-x="724" 
d="M632 0v79q-89 -87 -241 -87q-147 0 -248 99t-101 249q0 149 100 248.5t242 99.5q78 0 138 -27t91 -77v96h29v-162h-29q-16 66 -75 103.5t-154 37.5q-132 0 -220.5 -91t-88.5 -228t90.5 -228t225.5 -91q147 0 241 88v128h-224v28h256v-265h-32z" />
    <glyph glyph-name="H.low" horiz-adv-x="690" 
d="M40 653v27h172v-27h-70v-388h406v388h-70v27h172v-27h-70v-626h70v-27h-172v27h70v210h-406v-210h70v-27h-172v27h70v626h-70z" />
    <glyph glyph-name="P.low" horiz-adv-x="535" 
d="M40 653v27h193q132 0 202 -71t70 -181t-70 -180.5t-202 -70.5h-91v-150h69v-27h-171v27h70v626h-70zM142 205h87q125 0 184.5 61.5t59.5 161.5t-59.5 162t-184.5 62h-87v-447z" />
    <glyph glyph-name="R.low" horiz-adv-x="562" 
d="M40 653v27h198q131 0 201.5 -71t70.5 -181q0 -87 -46 -152t-133 -88l135 -161h66v-27h-82l-152 182q-45 -5 -60 -5h-96v-150h71v-27h-173v27h70v626h-70zM142 205h92q124 0 184 62t60 161t-61 161.5t-183 62.5h-92v-447z" />
    <glyph glyph-name="Y.low" horiz-adv-x="660" 
d="M244 0v27h70v183l-243 443h-56v27h157v-27h-67l225 -411l226 411h-70v27h159v-27h-56l-243 -443v-183h70v-27h-172z" />
    <glyph glyph-name="AE.low" horiz-adv-x="931" 
d="M848 538v114h-333v-387h323v-28h-323v-209h347v114h29v-142h-477v27h69v110h-306l-73 -110h73v-27h-167v27h60l411 626h-67v27h463v-142h-29zM195 165h288v439z" />
    <glyph glyph-name="OE.low" horiz-adv-x="950" 
d="M867 538v114h-333v-387h313v-28h-313v-209h347v114h29v-142h-508q-168 0 -264 93.5t-96 246.5q0 154 95.5 247t264.5 93h494v-142h-29zM407 29h95v622h-95q-161 0 -246.5 -84.5t-85.5 -226.5t85.5 -226.5t246.5 -84.5z" />
    <glyph glyph-name="Eth.low" horiz-adv-x="661" 
d="M39 653v27h222q168 0 264 -93.5t96 -246.5q0 -154 -95.5 -247t-264.5 -93h-222v27h70v210h-78v28h78v388h-70zM141 29h115q161 0 246.5 84.5t85.5 226.5t-85.5 226.5t-246.5 84.5h-115v-386h188v-28h-188v-208z" />
    <glyph glyph-name="t.low" horiz-adv-x="221" 
d="M67 292h-45v26h45v191h30v-191h83v-26h-83v-223q0 -50 40 -50q21 0 41 16l15 -22q-23 -21 -56 -21t-51.5 20t-18.5 53v227z" />
    <glyph glyph-name="Aacute.low" 
d="M669 27v-27h-167v27h71l-41 110h-385l-42 -110h72v-27h-167v27h63l234 626h-56v27h178v-27h-57l234 -626h63zM340 653l-182 -488h363zM320 721l60 132h33l-68 -132h-25z" />
    <glyph glyph-name="Abreve.low" 
d="M669 27v-27h-167v27h71l-41 110h-385l-42 -110h72v-27h-167v27h63l234 626h-56v27h178v-27h-57l234 -626h63zM340 653l-182 -488h363zM336 717q-35 0 -57.5 19.5t-31.5 51.5l26 9q17 -52 63 -52t63 52l27 -9q-9 -32 -32 -51.5t-58 -19.5z" />
    <glyph glyph-name="Acircumflex.low" 
d="M669 27v-27h-167v27h71l-41 110h-385l-42 -110h72v-27h-167v27h63l234 626h-56v27h178v-27h-57l234 -626h63zM340 653l-182 -488h363zM244 724l92 112h3l92 -112h-26l-67 70l-68 -70h-26z" />
    <glyph glyph-name="Adieresis.low" 
d="M669 27v-27h-167v27h71l-41 110h-385l-42 -110h72v-27h-167v27h63l234 626h-56v27h178v-27h-57l234 -626h63zM340 653l-182 -488h363zM389 741q-9 0 -16.5 7t-7.5 17t7.5 17t16.5 7t16.5 -7t7.5 -17t-7.5 -17t-16.5 -7zM285 741q-9 0 -16.5 7t-7.5 17t7.5 17t16.5 7
t16.5 -7t7.5 -17t-7.5 -17t-16.5 -7z" />
    <glyph glyph-name="Agrave.low" 
d="M669 27v-27h-167v27h71l-41 110h-385l-42 -110h72v-27h-167v27h63l234 626h-56v27h178v-27h-57l234 -626h63zM340 653l-182 -488h363zM327 721l-68 132h33l60 -132h-25z" />
    <glyph glyph-name="Amacron.low" 
d="M669 27v-27h-167v27h71l-41 110h-385l-42 -110h72v-27h-167v27h63l234 626h-56v27h178v-27h-57l234 -626h63zM340 653l-182 -488h363zM258 748v26h158v-26h-158z" />
    <glyph glyph-name="Aogonek.low" 
d="M552 -217q-29 0 -47 17t-18 47q0 23 13 50.5t27.5 47t44.5 55.5h-70v27h71l-41 110h-385l-42 -110h72v-27h-167v27h63l234 626h-56v27h178v-27h-57l234 -626h63v-27h-69q-51 -66 -67.5 -94.5t-16.5 -58.5q0 -19 10.5 -29.5t25.5 -10.5q26 0 41 24l20 -14q-21 -34 -61 -34
zM340 653l-182 -488h363z" />
    <glyph glyph-name="Aring.low" 
d="M669 27v-27h-167v27h71l-41 110h-385l-42 -110h72v-27h-167v27h63l234 626h-56v27h178v-27h-57l234 -626h63zM340 653l-182 -488h363zM337 711q-30 0 -51 21t-21 50t21 50.5t51 21.5t51 -21.5t21 -50.5t-21 -50t-51 -21zM337 735q20 0 32.5 13t12.5 34t-12.5 34.5
t-32.5 13.5t-32.5 -13.5t-12.5 -34.5t12.5 -34t32.5 -13z" />
    <glyph glyph-name="Atilde.low" 
d="M669 27v-27h-167v27h71l-41 110h-385l-42 -110h72v-27h-167v27h63l234 626h-56v27h178v-27h-57l234 -626h63zM340 653l-182 -488h363zM380 731q-20 0 -48 21t-39 21q-12 0 -18 -9.5t-11 -30.5l-25 4q12 63 55 63q20 0 48 -21t39 -21q12 0 18 9.5t11 30.5l25 -4
q-12 -63 -55 -63z" />
    <glyph glyph-name="Dcroat.low" horiz-adv-x="661" 
d="M39 653v27h222q168 0 264 -93.5t96 -246.5q0 -154 -95.5 -247t-264.5 -93h-222v27h70v210h-78v28h78v388h-70zM141 29h115q161 0 246.5 84.5t85.5 226.5t-85.5 226.5t-246.5 84.5h-115v-386h188v-28h-188v-208z" />
    <glyph glyph-name="Eacute.low" horiz-adv-x="558" 
d="M475 538v114h-333v-387h305v-28h-305v-209h347v114h29v-142h-478v27h70v626h-70v27h464v-142h-29zM272 721l60 132h33l-68 -132h-25z" />
    <glyph glyph-name="Ebreve.low" horiz-adv-x="558" 
d="M475 538v114h-333v-387h305v-28h-305v-209h347v114h29v-142h-478v27h70v626h-70v27h464v-142h-29zM298 717q-35 0 -57.5 19.5t-31.5 51.5l26 9q17 -52 63 -52t63 52l27 -9q-9 -32 -32 -51.5t-58 -19.5z" />
    <glyph glyph-name="Ecaron.low" horiz-adv-x="558" 
d="M475 538v114h-333v-387h305v-28h-305v-209h347v114h29v-142h-478v27h70v626h-70v27h464v-142h-29zM298 719l-92 112h26l67 -70l68 70h26l-92 -112h-3z" />
    <glyph glyph-name="Ecircumflex.low" horiz-adv-x="558" 
d="M475 538v114h-333v-387h305v-28h-305v-209h347v114h29v-142h-478v27h70v626h-70v27h464v-142h-29zM206 724l92 112h3l92 -112h-26l-67 70l-68 -70h-26z" />
    <glyph glyph-name="Edieresis.low" horiz-adv-x="558" 
d="M475 538v114h-333v-387h305v-28h-305v-209h347v114h29v-142h-478v27h70v626h-70v27h464v-142h-29zM361 741q-9 0 -16.5 7t-7.5 17t7.5 17t16.5 7t16.5 -7t7.5 -17t-7.5 -17t-16.5 -7zM257 741q-9 0 -16.5 7t-7.5 17t7.5 17t16.5 7t16.5 -7t7.5 -17t-7.5 -17t-16.5 -7z
" />
    <glyph glyph-name="Edotaccent.low" horiz-adv-x="558" 
d="M475 538v114h-333v-387h305v-28h-305v-209h347v114h29v-142h-478v27h70v626h-70v27h464v-142h-29zM309 740q-10 0 -17.5 7.5t-7.5 17.5t7.5 17.5t17.5 7.5t17.5 -7.5t7.5 -17.5t-7.5 -17.5t-17.5 -7.5z" />
    <glyph glyph-name="Egrave.low" horiz-adv-x="558" 
d="M475 538v114h-333v-387h305v-28h-305v-209h347v114h29v-142h-478v27h70v626h-70v27h464v-142h-29zM299 721l-68 132h33l60 -132h-25z" />
    <glyph glyph-name="Emacron.low" horiz-adv-x="558" 
d="M475 538v114h-333v-387h305v-28h-305v-209h347v114h29v-142h-478v27h70v626h-70v27h464v-142h-29zM220 748v26h158v-26h-158z" />
    <glyph glyph-name="Eogonek.low" horiz-adv-x="558" 
d="M475 538v114h-333v-387h305v-28h-305v-209h347v114h29v-142h-47l-19.5 -22.5l-17.5 -20.5l-14 -17.5t-12.5 -16.5t-10 -13.5t-9 -13.5l-6 -12t-4.5 -12.5l-2 -11.5t-1 -13q0 -19 10.5 -29.5t25.5 -10.5q26 0 41 24l20 -14q-21 -34 -61 -34q-29 0 -47 17t-18 47
q0 22 15.5 50t31.5 47t50 56h-403v27h70v626h-70v27h464v-142h-29z" />
    <glyph glyph-name="Gbreve.low" horiz-adv-x="724" 
d="M632 0v79q-89 -87 -241 -87q-147 0 -248 99t-101 249q0 149 100 248.5t242 99.5q78 0 138 -27t91 -77v96h29v-162h-29q-16 66 -75 103.5t-154 37.5q-132 0 -220.5 -91t-88.5 -228t90.5 -228t225.5 -91q147 0 241 88v128h-224v28h256v-265h-32zM384 717q-35 0 -57.5 19.5
t-31.5 51.5l26 9q17 -52 63 -52t63 52l27 -9q-9 -32 -32 -51.5t-58 -19.5z" />
    <glyph glyph-name="Gcircumflex.low" horiz-adv-x="724" 
d="M632 0v79q-89 -87 -241 -87q-147 0 -248 99t-101 249q0 149 100 248.5t242 99.5q78 0 138 -27t91 -77v96h29v-162h-29q-16 66 -75 103.5t-154 37.5q-132 0 -220.5 -91t-88.5 -228t90.5 -228t225.5 -91q147 0 241 88v128h-224v28h256v-265h-32zM292 724l92 112h3l92 -112
h-26l-67 70l-68 -70h-26z" />
    <glyph glyph-name="Gcommaaccent.low" horiz-adv-x="724" 
d="M632 0v79q-89 -87 -241 -87q-147 0 -248 99t-101 249q0 149 100 248.5t242 99.5q78 0 138 -27t91 -77v96h29v-162h-29q-16 66 -75 103.5t-154 37.5q-132 0 -220.5 -91t-88.5 -228t90.5 -228t225.5 -91q147 0 241 88v128h-224v28h256v-265h-32zM361 -157l16 59
q-17 4 -17 24q0 10 7.5 17.5t17.5 7.5q9 0 17 -7.5t8 -17.5q0 -7 -3 -13l-29 -70h-17z" />
    <glyph glyph-name="Gdotaccent.low" horiz-adv-x="724" 
d="M632 0v79q-89 -87 -241 -87q-147 0 -248 99t-101 249q0 149 100 248.5t242 99.5q78 0 138 -27t91 -77v96h29v-162h-29q-16 66 -75 103.5t-154 37.5q-132 0 -220.5 -91t-88.5 -228t90.5 -228t225.5 -91q147 0 241 88v128h-224v28h256v-265h-32zM385 740q-10 0 -17.5 7.5
t-7.5 17.5t7.5 17.5t17.5 7.5t17.5 -7.5t7.5 -17.5t-7.5 -17.5t-17.5 -7.5z" />
    <glyph glyph-name="Hbar.low" horiz-adv-x="690" 
d="M40 653v27h172v-27h-70v-158h406v158h-70v27h172v-27h-70v-158h80v-28h-80v-440h70v-27h-172v27h70v210h-406v-210h70v-27h-172v27h70v440h-80v28h80v158h-70zM142 265h406v202h-406v-202z" />
    <glyph glyph-name="Hcircumflex.low" horiz-adv-x="690" 
d="M40 653v27h172v-27h-70v-388h406v388h-70v27h172v-27h-70v-626h70v-27h-172v27h70v210h-406v-210h70v-27h-172v27h70v626h-70zM252 724l92 112h3l92 -112h-26l-67 70l-68 -70h-26z" />
    <glyph glyph-name="Lslash.low" horiz-adv-x="515" 
d="M40 653v27h172v-27h-70v-408l198 64v-27l-198 -64v-190h311v114h29v-142h-441v27h69v180l-78 -25v27l78 25v419h-70z" />
    <glyph glyph-name="Racute.low" horiz-adv-x="562" 
d="M40 653v27h198q131 0 201.5 -71t70.5 -181q0 -87 -46 -152t-133 -88l135 -161h66v-27h-82l-152 182q-45 -5 -60 -5h-96v-150h71v-27h-173v27h70v626h-70zM142 205h92q124 0 184 62t60 161t-61 161.5t-183 62.5h-92v-447zM247 722l60 132h33l-68 -132h-25z" />
    <glyph glyph-name="Rcaron.low" horiz-adv-x="562" 
d="M40 653v27h198q131 0 201.5 -71t70.5 -181q0 -87 -46 -152t-133 -88l135 -161h66v-27h-82l-152 182q-45 -5 -60 -5h-96v-150h71v-27h-173v27h70v626h-70zM142 205h92q124 0 184 62t60 161t-61 161.5t-183 62.5h-92v-447zM251 719l-92 112h26l67 -70l68 70h26l-92 -112h-3
z" />
    <glyph glyph-name="Rcommaaccent.low" horiz-adv-x="562" 
d="M40 653v27h198q131 0 201.5 -71t70.5 -181q0 -87 -46 -152t-133 -88l135 -161h66v-27h-82l-152 182q-45 -5 -60 -5h-96v-150h71v-27h-173v27h70v626h-70zM142 205h92q124 0 184 62t60 161t-61 161.5t-183 62.5h-92v-447zM271 -157l16 59q-17 4 -17 24q0 10 7.5 17.5
t17.5 7.5q9 0 17 -7.5t8 -17.5q0 -7 -3 -13l-29 -70h-17z" />
    <glyph glyph-name="Thorn.low" horiz-adv-x="535" 
d="M40 653v27h172v-27h-70v-62h91q132 0 202 -68.5t70 -177.5t-70 -177t-202 -68h-91v-74h70v-26h-172v26h70v627h-70zM142 128h87q125 0 184.5 59t59.5 158t-59.5 158.5t-184.5 59.5h-87v-435z" />
    <glyph glyph-name="Yacute.low" horiz-adv-x="660" 
d="M244 0v27h70v183l-243 443h-56v27h157v-27h-67l225 -411l226 411h-70v27h159v-27h-56l-243 -443v-183h70v-27h-172zM312 721l60 132h33l-68 -132h-25z" />
    <glyph glyph-name="Ydieresis.low" horiz-adv-x="660" 
d="M244 0v27h70v183l-243 443h-56v27h157v-27h-67l225 -411l226 411h-70v27h159v-27h-56l-243 -443v-183h70v-27h-172zM381 741q-9 0 -16.5 7t-7.5 17t7.5 17t16.5 7t16.5 -7t7.5 -17t-7.5 -17t-16.5 -7zM277 741q-9 0 -16.5 7t-7.5 17t7.5 17t16.5 7t16.5 -7t7.5 -17
t-7.5 -17t-16.5 -7z" />
    <glyph glyph-name="tcaron.low" horiz-adv-x="221" 
d="M159 571l18 61q-19 4 -19 26q0 12 8.5 20t19.5 8t19.5 -8t8.5 -20q0 -6 -3 -14l-33 -73h-19zM67 292h-45v26h45v191h30v-191h83v-26h-83v-223q0 -50 40 -50q21 0 41 16l15 -22q-23 -21 -56 -21t-51.5 20t-18.5 53v227z" />
    <glyph glyph-name="uni021B.low" horiz-adv-x="221" 
d="M125 -186q-53 0 -72 45l22 12q14 -32 50 -32q17 0 28.5 10t11.5 29q0 44 -49 44h-9v75q-40 18 -40 68v227h-45v26h45v191h30v-191h83v-26h-83v-223q0 -50 40 -50q21 0 41 16l15 -22q-23 -21 -56 -21h-5v-47q26 -2 43.5 -20.5t17.5 -46.5q0 -30 -20 -47t-48 -17z" />
    <glyph glyph-name="tcommaaccent.low" horiz-adv-x="221" 
d="M67 292h-45v26h45v191h30v-191h83v-26h-83v-223q0 -50 40 -50q21 0 41 16l15 -22q-23 -21 -56 -21t-51.5 20t-18.5 53v227zM84 -157l16 59q-17 4 -17 24q0 10 7.5 17.5t17.5 7.5q9 0 17 -7.5t8 -17.5q0 -7 -3 -13l-29 -70h-17z" />
    <glyph glyph-name="zero.low" horiz-adv-x="596" 
d="M298 -8q-108 0 -183.5 74t-75.5 184t75.5 184t183.5 74t183.5 -74t75.5 -184t-75.5 -184t-183.5 -74zM298 20q97 0 162 65.5t65 164.5t-65 164.5t-162 65.5t-162 -65.5t-65 -164.5t65 -164.5t162 -65.5z" />
    <glyph glyph-name="five.low" horiz-adv-x="418" 
d="M310 409v64h-221v-158q43 28 103 28q81 0 130.5 -48.5t49.5 -126.5t-49 -127t-125 -49q-58 0 -101.5 23.5t-65.5 60.5l25 17q42 -73 142 -73q63 0 102.5 41t39.5 107q0 67 -38.5 107t-109.5 40q-74 0 -129 -47l-3 1v231h277v-91h-27z" />
    <glyph glyph-name="three.low" horiz-adv-x="415" 
d="M50 409v91h295v-4l-154 -165q80 2 130 -44.5t50 -123.5t-50.5 -124t-126.5 -47q-59 0 -107.5 29.5t-70.5 80.5l27 13q46 -95 151 -95q64 0 104.5 39t40.5 104q0 66 -39 104t-108 38q-34 0 -72 -16l-2 3l170 181h-211v-64h-27z" />
    <glyph glyph-name="eight.low" horiz-adv-x="422" 
d="M148 291q-64 31 -64 101q0 49 36 82.5t91 33.5t91 -33.5t36 -82.5q0 -70 -64 -101q50 -16 80 -54.5t30 -89.5q0 -66 -48 -110.5t-125 -44.5t-125 44.5t-48 110.5q0 51 30 89.5t80 54.5zM211 302q43 0 69.5 24.5t26.5 64.5t-27 65t-69 25t-69 -25t-27 -65t26.5 -64.5
t69.5 -24.5zM211 19q61 0 101 36.5t40 92.5q0 57 -38.5 92.5t-102.5 35.5t-102.5 -35.5t-38.5 -92.5q0 -56 40 -92.5t101 -36.5z" />
    <glyph glyph-name="Euro.low" horiz-adv-x="614" 
d="M373 480q-88 0 -148.5 -55.5t-71.5 -142.5h277v-27h-279v-5q0 -41 10 -72h269v-27h-259q26 -59 80 -95t122 -36q54 0 101 23.5t77 63.5l22 -17q-76 -98 -200 -98q-81 0 -144.5 44t-91.5 115h-98v27h89q-9 34 -9 72v5h-80v27h82q12 96 81.5 161t170.5 65q113 0 169 -75v67
h27v-142h-24q-6 58 -57 90t-115 32z" />
    <glyph glyph-name="A.lowalt" 
d="M669 27v-27h-167v27h71l-41 110h-385l-42 -110h72v-27h-167v27h63l234 626h-56v27h111l244 -653h63zM340 653l-182 -488h363z" />
    <glyph glyph-name="G.lowalt" horiz-adv-x="753" 
d="M42 340q0 149 100 248.5t245 99.5q85 0 139.5 -25t89.5 -78v95h27v-168h-27q-13 68 -70.5 107.5t-158.5 39.5q-134 0 -223 -91t-89 -228t90.5 -228t225.5 -91q122 0 194 64t91 152h-283v28h318q-16 -119 -101 -196t-219 -77q-147 0 -248 98.5t-101 249.5z" />
    <glyph glyph-name="K.lowalt" horiz-adv-x="573" 
d="M40 653v27h171v-27h-69v-395l316 395h-71v27h169v-27h-63l-317 -396l315 -230h62v-27h-169v27h59l-301 220v-220h69v-27h-171v27h70v626h-70z" />
    <glyph glyph-name="AE.lowalt" horiz-adv-x="949" 
d="M675 548v104h-314l137 -387h275v-28h-265l74 -209h305v104h29v-132h-440v27h73l-38 110h-361l-44 -110h71v-27h-167v27h64l249 626h-57v27h438v-132h-29zM343 623l-182 -458h340z" />
    <glyph glyph-name="Aacute.lowalt" 
d="M669 27v-27h-167v27h71l-41 110h-385l-42 -110h72v-27h-167v27h63l234 626h-56v27h111l244 -653h63zM340 653l-182 -488h363zM324 721l60 132h33l-68 -132h-25z" />
    <glyph glyph-name="Abreve.lowalt" 
d="M669 27v-27h-167v27h71l-41 110h-385l-42 -110h72v-27h-167v27h63l234 626h-56v27h111l244 -653h63zM340 653l-182 -488h363zM336 717q-35 0 -57.5 19.5t-31.5 51.5l26 9q17 -52 63 -52t63 52l27 -9q-9 -32 -32 -51.5t-58 -19.5z" />
    <glyph glyph-name="Acircumflex.lowalt" 
d="M669 27v-27h-167v27h71l-41 110h-385l-42 -110h72v-27h-167v27h63l234 626h-56v27h111l244 -653h63zM340 653l-182 -488h363zM244 724l92 112h3l92 -112h-26l-67 70l-68 -70h-26z" />
    <glyph glyph-name="Adieresis.lowalt" 
d="M669 27v-27h-167v27h71l-41 110h-385l-42 -110h72v-27h-167v27h63l234 626h-56v27h111l244 -653h63zM340 653l-182 -488h363zM389 741q-9 0 -16.5 7t-7.5 17t7.5 17t16.5 7t16.5 -7t7.5 -17t-7.5 -17t-16.5 -7zM285 741q-9 0 -16.5 7t-7.5 17t7.5 17t16.5 7t16.5 -7
t7.5 -17t-7.5 -17t-16.5 -7z" />
    <glyph glyph-name="Agrave.lowalt" 
d="M669 27v-27h-167v27h71l-41 110h-385l-42 -110h72v-27h-167v27h63l234 626h-56v27h111l244 -653h63zM340 653l-182 -488h363zM327 721l-68 132h33l60 -132h-25z" />
    <glyph glyph-name="Amacron.lowalt" 
d="M669 27v-27h-167v27h71l-41 110h-385l-42 -110h72v-27h-167v27h63l234 626h-56v27h111l244 -653h63zM340 653l-182 -488h363zM248 748v26h158v-26h-158z" />
    <glyph glyph-name="Aogonek.lowalt" 
d="M559 -217q-29 0 -47 17t-18 47q0 23 13 50.5t27.5 47t44.5 55.5h-77v27h71l-41 110h-385l-42 -110h72v-27h-167v27h63l234 626h-56v27h111l244 -653h63v-27h-62q-51 -66 -67.5 -94.5t-16.5 -58.5q0 -19 10.5 -29.5t25.5 -10.5q26 0 41 24l20 -14q-21 -34 -61 -34z
M340 653l-182 -488h363z" />
    <glyph glyph-name="Aring.lowalt" 
d="M669 27v-27h-167v27h71l-41 110h-385l-42 -110h72v-27h-167v27h63l234 626h-56v27h111l244 -653h63zM340 653l-182 -488h363zM329 711q-30 0 -51 21t-21 50t21 50.5t51 21.5t51 -21.5t21 -50.5t-21 -50t-51 -21zM329 735q20 0 32.5 13t12.5 34t-12.5 34.5t-32.5 13.5
t-32.5 -13.5t-12.5 -34.5t12.5 -34t32.5 -13z" />
    <glyph glyph-name="Atilde.lowalt" 
d="M669 27v-27h-167v27h71l-41 110h-385l-42 -110h72v-27h-167v27h63l234 626h-56v27h111l244 -653h63zM340 653l-182 -488h363zM380 731q-20 0 -48 21t-39 21q-12 0 -18 -9.5t-11 -30.5l-25 4q12 63 55 63q20 0 48 -21t39 -21q12 0 18 9.5t11 30.5l25 -4q-12 -63 -55 -63z
" />
    <glyph glyph-name="Gbreve.lowalt" horiz-adv-x="753" 
d="M42 340q0 149 100 248.5t245 99.5q85 0 139.5 -25t89.5 -78v95h27v-168h-27q-13 68 -70.5 107.5t-158.5 39.5q-134 0 -223 -91t-89 -228t90.5 -228t225.5 -91q122 0 194 64t91 152h-283v28h318q-16 -119 -101 -196t-219 -77q-147 0 -248 98.5t-101 249.5zM392 717
q-35 0 -57.5 19.5t-31.5 51.5l26 9q17 -52 63 -52t63 52l27 -9q-9 -32 -32 -51.5t-58 -19.5z" />
    <glyph glyph-name="Gcircumflex.lowalt" horiz-adv-x="753" 
d="M42 340q0 149 100 248.5t245 99.5q85 0 139.5 -25t89.5 -78v95h27v-168h-27q-13 68 -70.5 107.5t-158.5 39.5q-134 0 -223 -91t-89 -228t90.5 -228t225.5 -91q122 0 194 64t91 152h-283v28h318q-16 -119 -101 -196t-219 -77q-147 0 -248 98.5t-101 249.5zM300 724l92 112
h3l92 -112h-26l-67 70l-68 -70h-26z" />
    <glyph glyph-name="Gcommaaccent.lowalt" horiz-adv-x="753" 
d="M42 340q0 149 100 248.5t245 99.5q85 0 139.5 -25t89.5 -78v95h27v-168h-27q-13 68 -70.5 107.5t-158.5 39.5q-134 0 -223 -91t-89 -228t90.5 -228t225.5 -91q122 0 194 64t91 152h-283v28h318q-16 -119 -101 -196t-219 -77q-147 0 -248 98.5t-101 249.5zM369 -157l16 59
q-17 4 -17 24q0 10 7.5 17.5t17.5 7.5q9 0 17 -7.5t8 -17.5q0 -7 -3 -13l-29 -70h-17z" />
    <glyph glyph-name="Gdotaccent.lowalt" horiz-adv-x="753" 
d="M42 340q0 149 100 248.5t245 99.5q85 0 139.5 -25t89.5 -78v95h27v-168h-27q-13 68 -70.5 107.5t-158.5 39.5q-134 0 -223 -91t-89 -228t90.5 -228t225.5 -91q122 0 194 64t91 152h-283v28h318q-16 -119 -101 -196t-219 -77q-147 0 -248 98.5t-101 249.5zM393 740
q-10 0 -17.5 7.5t-7.5 17.5t7.5 17.5t17.5 7.5t17.5 -7.5t7.5 -17.5t-7.5 -17.5t-17.5 -7.5z" />
    <glyph glyph-name="Kcommaaccent.lowalt" horiz-adv-x="573" 
d="M40 653v27h171v-27h-69v-395l316 395h-71v27h169v-27h-63l-317 -396l315 -230h62v-27h-169v27h59l-301 220v-220h69v-27h-171v27h70v626h-70zM274 -157l16 59q-17 4 -17 24q0 10 7.5 17.5t17.5 7.5q9 0 17 -7.5t8 -17.5q0 -7 -3 -13l-29 -70h-17z" />
    <glyph glyph-name="zero.uplow" horiz-adv-x="780" 
d="M390 -8q-146 0 -247 99.5t-101 248.5t101 248.5t247 99.5t247 -99.5t101 -248.5t-101 -248.5t-247 -99.5zM390 21q135 0 225 91t90 228t-90 228t-225 91t-225 -91t-90 -228t90 -228t225 -91z" />
    <glyph glyph-name="eight.uplow" horiz-adv-x="550" 
d="M204 380q-51 16 -81 54t-30 91q0 70 51.5 116.5t130.5 46.5t131 -46.5t52 -116.5q0 -53 -30.5 -91t-81.5 -54q75 -17 119.5 -66t44.5 -120q0 -88 -66.5 -145t-168.5 -57q-101 0 -168 57t-67 145q0 71 45 120t119 66zM275 393q69 0 110 36.5t41 95.5q0 58 -41.5 96
t-109.5 38t-109 -38t-41 -96q0 -59 40.5 -95.5t109.5 -36.5zM275 21q91 0 147 48.5t56 124.5t-55.5 123.5t-147.5 47.5q-91 0 -147 -47.5t-56 -123.5t56 -124.5t147 -48.5z" />
    <glyph glyph-name="Euro.uplow" horiz-adv-x="779" 
d="M500 341h-353v-1q0 -37 8 -75h345v-28h-338q30 -98 111.5 -157t188.5 -59q79 0 144.5 33t109.5 91l24 -18q-49 -64 -121 -99.5t-157 -35.5q-121 0 -212 67t-123 178h-106v28h100q-7 34 -7 75v1h-93v28h94q10 140 106.5 229.5t234.5 89.5q83 0 145 -30t95 -84v106h29v-182
h-29q-12 76 -80 118.5t-160 42.5q-125 0 -211.5 -82t-96.5 -208h352v-28z" />
    <glyph glyph-name="sterling.uplow" horiz-adv-x="517" 
d="M127 492q0 -30 6 -63.5t11.5 -52t19.5 -59l18 -51.5h178v-28h-168q20 -67 20 -129v-5q1 -1 15.5 -14t17.5 -15t16.5 -13t19 -13.5t18.5 -10t22.5 -9.5t23 -4.5t27.5 -2.5q38 0 62 12.5t48 37.5l22 -20q-29 -30 -58 -45t-74 -15q-34 0 -68 15t-49.5 27l-48.5 39
q-11 -34 -37 -57.5t-63 -23.5t-63 22t-26 59t25 59t62 22q40 0 79 -27q-3 55 -21 111h-113v28h103q-4 12 -15.5 42t-16.5 46l-12.5 41.5t-10.5 49t-3 47.5q0 84 56.5 140t145.5 56q114 0 157 -81v73h29v-162h-29q-3 69 -47.5 105.5t-109.5 35.5q-76 0 -122.5 -47.5
t-46.5 -119.5zM181 93q-42 33 -77 33q-24 0 -40.5 -14t-16.5 -39q0 -24 17 -38t42 -14q29 0 49.5 22t25.5 50z" />
    <glyph glyph-name="yen.uplow" horiz-adv-x="633" 
d="M231 0v27h69v116h-206v28h206v31l-18 35h-188v28h174l-193 388h-60v27h161v-27h-66l207 -414l206 414h-67v27h162v-27h-62l-193 -388h175v-28h-189l-17 -34v-32h206v-28h-206v-116h71v-27h-172z" />
    </font>
</defs>
</svg>
