<?xml version="1.0" encoding="UTF-8" standalone="no"?>
<svg width="300px" height="88px" viewBox="0 0 300 88" version="1.1" xmlns="http://www.w3.org/2000/svg" xmlns:xlink="http://www.w3.org/1999/xlink" xmlns:sketch="http://www.bohemiancoding.com/sketch/ns">
    <!-- Generator: Sketch 3.3.3 (12072) - http://www.bohemiancoding.com/sketch -->
    <title>Logo_PM_Badge09</title>
    <desc>Created with Sketch.</desc>
    <defs>
        <path id="path-1" d="M0,88 L299.396,88 L299.396,0.538 L0,0.538"></path>
    </defs>
    <g id="Page-1" stroke="none" stroke-width="1" fill="none" fill-rule="evenodd" sketch:type="MSPage">
        <g id="Logo_PM_Badge09" sketch:type="MSLayerGroup">
            <g id="Group-3">
                <mask id="mask-2" sketch:name="Clip 2" fill="white">
                    <use xlink:href="#path-1"></use>
                </mask>
                <g id="Clip-2"></g>
                <path d="M12.748,78.75 C21.972,79.938 31.194,81.051 40.44,82.079 C49.646,83.024 58.848,83.886 68.069,84.67 C77.26,85.371 86.438,85.986 95.639,86.519 C104.809,86.972 113.97,87.345 123.147,87.629 C132.296,87.838 141.437,87.962 150.592,88 C159.723,87.962 168.841,87.838 177.973,87.629 C187.086,87.345 196.186,86.972 205.292,86.519 C214.389,85.986 223.466,85.371 232.552,84.67 C241.626,83.886 250.682,83.024 259.744,82.079 C268.802,81.051 277.836,79.94 286.876,78.75 L299.396,76.981 L299.396,11.532 C289.198,10.092 279.014,8.717 268.797,7.461 C259.741,6.435 250.692,5.487 241.62,4.623 C232.546,3.838 223.476,3.143 214.386,2.528 C205.287,1.989 196.194,1.538 187.086,1.166 C177.963,0.881 168.851,0.676 159.725,0.552 C150.578,0.514 141.447,0.552 132.302,0.676 C123.131,0.881 113.978,1.166 104.816,1.538 C95.623,1.993 86.448,2.528 77.268,3.143 C68.053,3.844 58.856,4.623 49.657,5.487 C40.419,6.435 31.205,7.463 21.984,8.57 L0,11.521 L0,76.99 L12.748,78.75" id="Fill-1" fill="#DDB245" sketch:type="MSShapeGroup" mask="url(#mask-2)"></path>
            </g>
            <path d="M4.079,73.439 C102.349,87.418 199.427,87.418 295.316,73.439 L295.316,54.777 L4.079,54.777 L4.079,73.439" id="Fill-4" fill="#00653A" sketch:type="MSShapeGroup"></path>
            <path d="M4.079,15.073 C102.349,1.092 199.427,1.092 295.316,15.073 L295.316,54.777 L4.079,54.777 L4.079,15.073" id="Fill-5" fill="#AB3225" sketch:type="MSShapeGroup"></path>
            <path d="M128.675,68.388 L129.605,68.388 L129.605,64.681 L128.675,64.681 L128.675,68.388 Z M114.978,68.388 L115.907,68.388 L115.907,64.681 L114.978,64.681 L114.978,68.388 Z M222.697,70.005 L224.143,66.998 L225.526,70.005 L222.697,70.005 L222.697,70.005 Z M228.618,72.318 L225.348,65.68 C225.299,65.562 225.267,65.466 225.267,65.39 C225.267,65.208 225.38,65.124 225.672,65.026 L225.672,64.815 L222.775,64.815 L222.775,65.026 C223.07,65.11 223.23,65.238 223.23,65.433 C223.23,65.514 223.198,65.579 223.151,65.68 L219.977,72.318 C219.799,72.71 219.7,73.019 219.213,73.148 L219.213,73.359 L221.866,73.359 L221.866,73.148 C221.57,73.05 221.457,72.953 221.457,72.774 C221.457,72.693 221.489,72.594 221.538,72.479 L222.126,71.164 L226.046,71.164 L226.666,72.479 C226.715,72.594 226.744,72.693 226.744,72.774 C226.744,72.953 226.633,73.05 226.338,73.148 L226.338,73.359 L229.415,73.359 L229.415,73.148 C229.023,73.05 228.847,72.774 228.618,72.318 L228.618,72.318 Z M209.939,64.425 L209.729,64.425 L209.729,66.737 L209.939,66.737 C210.021,66.396 210.102,66.348 210.41,66.348 L214.821,66.348 L209.648,72.871 L209.648,73.342 L217.215,73.342 C217.507,73.342 217.606,73.439 217.686,73.766 L217.897,73.766 L217.897,71.44 L217.686,71.44 C217.606,71.798 217.523,71.83 217.215,71.83 L212.675,71.83 L217.897,65.173 L217.897,64.815 L210.41,64.815 C210.102,64.815 210.021,64.783 209.939,64.425 L209.939,64.425 Z M200.177,64.425 L199.965,64.425 L199.965,66.737 L200.177,66.737 C200.258,66.396 200.34,66.348 200.649,66.348 L205.058,66.348 L199.883,72.871 L199.883,73.342 L207.45,73.342 C207.742,73.342 207.84,73.439 207.921,73.766 L208.136,73.766 L208.136,71.44 L207.921,71.44 C207.84,71.798 207.759,71.83 207.45,71.83 L202.91,71.83 L208.136,65.173 L208.136,64.815 L200.649,64.815 C200.34,64.815 200.258,64.783 200.177,64.425 L200.177,64.425 Z M195.002,65.026 C195.328,65.092 195.394,65.189 195.394,65.498 L195.394,72.675 C195.394,72.986 195.328,73.065 195.002,73.148 L195.002,73.359 L197.672,73.359 L197.672,73.148 C197.328,73.065 197.279,72.986 197.279,72.675 L197.279,65.498 C197.279,65.189 197.344,65.092 197.672,65.026 L197.672,64.815 L195.002,64.815 L195.002,65.026 L195.002,65.026 Z M189.558,68.413 L187.035,68.413 L187.035,66.248 L189.49,66.248 C190.973,66.248 191.721,66.491 191.721,67.307 C191.721,68.086 191.005,68.413 189.558,68.413 L189.558,68.413 Z M190.013,64.815 L184.754,64.815 L184.754,65.026 C185.08,65.11 185.161,65.189 185.161,65.498 L185.161,72.675 C185.161,72.986 185.08,73.083 184.754,73.148 L184.754,73.359 L187.44,73.359 L187.44,73.148 C187.1,73.065 187.035,72.986 187.035,72.675 L187.035,69.862 L190.24,69.862 C192.274,69.862 193.526,68.867 193.526,67.29 C193.526,65.776 192.306,64.815 190.013,64.815 L190.013,64.815 Z M176.276,71.83 L170.794,71.83 L170.794,69.6 L174.227,69.6 C174.537,69.6 174.636,69.664 174.701,69.992 L174.91,69.992 L174.91,67.827 L174.701,67.827 C174.618,68.185 174.537,68.217 174.227,68.217 L170.794,68.217 L170.794,66.329 L176.179,66.329 C176.49,66.329 176.588,66.413 176.654,66.737 L176.864,66.737 L176.864,64.409 L176.654,64.409 C176.571,64.769 176.49,64.815 176.179,64.815 L168.515,64.815 L168.515,65.026 C168.841,65.092 168.922,65.189 168.922,65.498 L168.922,72.675 C168.922,72.986 168.841,73.065 168.515,73.148 L168.515,73.359 L176.276,73.359 C176.588,73.359 176.686,73.439 176.75,73.766 L176.961,73.766 L176.961,71.44 L176.75,71.44 C176.669,71.798 176.588,71.83 176.276,71.83 L176.276,71.83 Z M162.415,68.266 L165.229,66.001 C165.392,65.871 165.814,65.514 166.66,65.026 L166.66,64.815 L163.065,64.815 L163.065,65.026 C163.309,65.078 163.438,65.189 163.438,65.303 C163.438,65.466 163.325,65.549 163.162,65.68 L159.729,68.427 L159.729,65.498 C159.729,65.189 159.81,65.092 160.136,65.026 L160.136,64.815 L157.45,64.815 L157.45,65.026 C157.775,65.092 157.859,65.189 157.859,65.498 L157.859,72.675 C157.859,72.986 157.775,73.065 157.45,73.148 L157.45,73.359 L160.136,73.359 L160.136,73.148 C159.793,73.065 159.729,72.986 159.729,72.675 L159.729,70.382 L161.029,69.372 L163.586,72.382 C163.715,72.548 163.828,72.644 163.828,72.757 C163.828,72.905 163.7,73.019 163.472,73.05 L163.472,73.262 L166.842,73.262 L166.842,73.05 C166.366,72.805 166.042,72.548 165.782,72.236 L162.415,68.266 L162.415,68.266 Z M149.169,70.005 L150.615,66.998 L151.999,70.005 L149.169,70.005 L149.169,70.005 Z M155.091,72.318 L151.819,65.68 C151.772,65.562 151.738,65.466 151.738,65.39 C151.738,65.208 151.852,65.124 152.146,65.026 L152.146,64.815 L149.25,64.815 L149.25,65.026 C149.542,65.11 149.705,65.238 149.705,65.433 C149.705,65.514 149.672,65.579 149.624,65.68 L146.45,72.318 C146.271,72.71 146.172,73.019 145.685,73.148 L145.685,73.359 L148.336,73.359 L148.336,73.148 C148.045,73.05 147.931,72.953 147.931,72.774 C147.931,72.693 147.964,72.594 148.012,72.479 L148.598,71.164 L152.521,71.164 L153.141,72.479 C153.187,72.594 153.219,72.693 153.219,72.774 C153.219,72.953 153.108,73.05 152.812,73.148 L152.812,73.359 L155.887,73.359 L155.887,73.148 C155.497,73.05 155.318,72.774 155.091,72.318 L155.091,72.318 Z M140.462,71.913 L137.727,71.913 L137.727,69.583 L140.525,69.583 C141.975,69.583 142.707,69.895 142.707,70.753 C142.707,71.7 141.991,71.913 140.462,71.913 L140.462,71.913 Z M137.727,66.202 L140.739,66.202 C141.958,66.202 142.479,66.413 142.479,67.146 C142.479,67.777 141.991,68.069 140.966,68.069 L137.727,68.069 L137.727,66.202 L137.727,66.202 Z M143.114,68.77 C143.896,68.365 144.285,67.777 144.285,66.998 C144.285,65.698 143.243,64.815 141.226,64.815 L135.449,64.815 L135.449,65.026 C135.773,65.092 135.857,65.189 135.857,65.498 L135.857,72.675 C135.857,72.986 135.773,73.065 135.449,73.148 L135.449,73.359 L141.031,73.359 C143.326,73.359 144.548,72.399 144.548,70.855 C144.548,69.908 144.074,69.242 143.114,68.77 L143.114,68.77 Z M124.742,65.026 C125.099,65.11 125.149,65.189 125.149,65.498 L125.149,70.382 L120.51,65.66 C120.364,65.514 120.283,65.4 120.283,65.271 C120.283,65.157 120.382,65.06 120.559,65.026 L120.559,64.815 L117.5,64.815 L117.5,65.026 C117.825,65.092 117.909,65.189 117.909,65.498 L117.909,72.675 C117.909,72.986 117.825,73.065 117.5,73.148 L117.5,73.359 L119.94,73.359 L119.94,73.148 C119.6,73.065 119.551,72.986 119.551,72.675 L119.551,67.566 L124.416,72.513 C124.563,72.66 124.645,72.774 124.645,72.905 C124.645,73.019 124.547,73.116 124.368,73.148 L124.368,73.359 L127.184,73.359 L127.184,73.148 C126.856,73.083 126.794,72.986 126.794,72.675 L126.794,65.498 C126.794,65.189 126.873,65.11 127.2,65.026 L127.2,64.815 L124.742,64.815 L124.742,65.026 L124.742,65.026 Z M108.813,71.83 L103.328,71.83 L103.328,69.6 L106.76,69.6 C107.069,69.6 107.167,69.664 107.233,69.992 L107.444,69.992 L107.444,67.827 L107.233,67.827 C107.15,68.185 107.069,68.217 106.76,68.217 L103.328,68.217 L103.328,66.329 L108.712,66.329 C109.023,66.329 109.121,66.413 109.186,66.737 L109.397,66.737 L109.397,64.409 L109.186,64.409 C109.105,64.769 109.023,64.815 108.712,64.815 L101.048,64.815 L101.048,65.026 C101.375,65.092 101.456,65.189 101.456,65.498 L101.456,72.675 C101.456,72.986 101.375,73.065 101.048,73.148 L101.048,73.359 L108.813,73.359 C109.121,73.359 109.219,73.439 109.284,73.766 L109.495,73.766 L109.495,71.44 L109.284,71.44 C109.202,71.798 109.121,71.83 108.813,71.83 L108.813,71.83 Z M94.946,68.266 L97.762,66.001 C97.924,65.871 98.348,65.514 99.194,65.026 L99.194,64.815 L95.599,64.815 L95.599,65.026 C95.842,65.078 95.972,65.189 95.972,65.303 C95.972,65.466 95.858,65.549 95.696,65.68 L92.262,68.427 L92.262,65.498 C92.262,65.189 92.343,65.092 92.669,65.026 L92.669,64.815 L89.984,64.815 L89.984,65.026 C90.309,65.092 90.393,65.189 90.393,65.498 L90.393,72.675 C90.393,72.986 90.309,73.065 89.984,73.148 L89.984,73.359 L92.669,73.359 L92.669,73.148 C92.327,73.065 92.262,72.986 92.262,72.675 L92.262,70.382 L93.563,69.372 L96.118,72.382 C96.248,72.548 96.362,72.644 96.362,72.757 C96.362,72.905 96.232,73.019 96.005,73.05 L96.005,73.262 L99.373,73.262 L99.373,73.05 C98.901,72.805 98.575,72.548 98.316,72.236 L94.946,68.266 L94.946,68.266 Z M81.701,70.005 L83.149,66.998 L84.531,70.005 L81.701,70.005 L81.701,70.005 Z M87.624,72.318 L84.353,65.68 C84.304,65.562 84.271,65.466 84.271,65.39 C84.271,65.208 84.385,65.124 84.679,65.026 L84.679,64.815 L81.782,64.815 L81.782,65.026 C82.076,65.11 82.238,65.238 82.238,65.433 C82.238,65.514 82.206,65.579 82.157,65.68 L78.983,72.318 C78.804,72.71 78.707,73.019 78.218,73.148 L78.218,73.359 L80.871,73.359 L80.871,73.148 C80.578,73.05 80.462,72.953 80.462,72.774 C80.462,72.693 80.495,72.594 80.544,72.479 L81.13,71.164 L85.051,71.164 L85.671,72.479 C85.72,72.594 85.752,72.693 85.752,72.774 C85.752,72.953 85.639,73.05 85.346,73.148 L85.346,73.359 L88.422,73.359 L88.422,73.148 C88.031,73.05 87.852,72.774 87.624,72.318 L87.624,72.318 Z M77.359,64.815 L70.198,64.815 C69.888,64.815 69.79,64.733 69.726,64.409 L69.515,64.409 L69.515,66.722 L69.726,66.722 C69.807,66.381 69.888,66.329 70.198,66.329 L72.835,66.329 L72.835,72.675 C72.835,72.986 72.752,73.065 72.428,73.148 L72.428,73.359 L75.096,73.359 L75.096,73.148 C74.753,73.065 74.706,72.986 74.706,72.675 L74.706,66.329 L77.359,66.329 C77.668,66.329 77.765,66.413 77.83,66.737 L78.041,66.737 L78.041,64.409 L77.83,64.409 C77.748,64.769 77.668,64.815 77.359,64.815 L77.359,64.815 Z" id="Fill-6" fill="#FFFFFF" sketch:type="MSShapeGroup"></path>
            <path d="M269.548,30.613 C270.007,30.613 270.401,30.407 270.726,29.996 L271.269,29.249 C271.856,28.244 272.636,27.478 273.325,26.799 C274.247,25.889 275.554,24.707 275.347,22.93 C275.243,22.039 274.907,21.4 274.198,21.043 C273.757,20.821 273.333,20.73 272.903,20.71 C271.317,20.635 271.505,21.541 271.505,21.541 C272.237,23.113 271.106,24.232 270.122,25.519 C269.308,26.577 268.466,27.675 268.204,29.358 C268.224,29.765 268.351,30.08 268.581,30.29 C268.81,30.505 269.132,30.613 269.548,30.613 L269.548,30.613 Z M237.763,45.026 C237.628,42.887 239.849,38.297 244.36,31.377 C244.909,30.547 245.169,29.816 245.134,29.213 C245.106,28.529 244.774,27.908 244.147,27.373 C243.694,26.98 243.077,26.779 242.31,26.779 C241.769,26.779 241.134,26.881 240.427,27.082 C238.552,27.621 236.319,28.961 233.798,31.066 C232.233,32.352 230.905,33.623 229.825,34.869 C233.489,28.049 236.554,23.092 238.95,20.117 C240.37,18.369 241.208,17.391 241.433,17.203 C241.72,16.963 241.86,16.707 241.843,16.443 C241.833,16.185 241.657,15.908 241.296,15.596 C240.876,15.26 240.302,15.088 239.589,15.088 C239.466,15.088 239.333,15.092 239.2,15.102 C238.253,15.17 237.468,15.379 236.864,15.729 C236.56,15.9 236.112,16.262 235.538,16.799 C233.415,18.754 230.761,22.434 227.64,27.732 C223.276,35.162 220.985,40.004 220.636,42.527 C220.454,43.842 220.612,44.692 221.12,45.124 C221.599,45.53 222.206,45.737 222.915,45.737 C223.876,45.737 224.569,45.39 224.974,44.696 C227.091,41.025 229.024,38.227 230.722,36.383 C232.405,34.543 234.341,32.98 236.47,31.738 C237.017,31.426 237.337,31.31 237.554,31.31 C237.608,31.31 237.657,31.316 237.7,31.332 C237.706,31.412 237.657,31.643 237.286,32.26 C234.788,36.268 233.579,39.543 233.698,42.002 C233.796,44.058 234.638,45.276 236.21,45.634 C236.593,45.7 236.89,45.735 237.114,45.735 C237.554,45.688 237.784,45.436 237.763,45.026 L237.763,45.026 Z M197.675,31.074 C197.903,31.074 198.167,31.158 198.46,31.32 C198.823,31.527 199.089,31.621 199.29,31.621 C199.767,31.621 200.161,31.307 200.47,30.689 C200.755,30.119 200.888,29.574 200.864,29.072 C200.792,27.51 199.919,27.184 199.194,27.184 C198.005,27.184 196.54,28.088 194.72,29.939 C193.89,30.777 192.968,31.842 191.958,33.115 L192.778,31.775 C193.63,30.303 194.046,29.258 194.048,28.58 C194.052,27.943 193.644,27.365 192.835,26.861 C192.284,26.545 191.788,26.389 191.323,26.389 C190.628,26.389 190.021,26.789 189.519,27.586 C185.851,33.738 183.267,38.359 181.833,41.322 C181.458,42.125 181.286,42.762 181.313,43.26 C181.341,43.814 181.644,44.366 182.247,44.948 C182.728,45.378 183.382,45.593 184.192,45.593 C185.056,45.593 185.899,44.977 186.716,43.742 C187.229,42.781 187.745,41.834 188.255,40.912 C191.118,36.432 193.917,33.262 196.571,31.488 C196.978,31.219 197.351,31.078 197.675,31.074 L197.675,31.074 Z M265.077,27.193 C264.646,26.98 264.228,26.873 263.839,26.873 C262.899,26.873 261.909,27.691 260.812,29.373 C258.851,32.34 257.114,34.613 255.655,36.131 C251.749,40.207 250.362,41.135 249.899,41.135 L249.89,41.135 C249.839,40.119 251.647,36.684 255.255,30.928 C255.528,30.527 255.649,30.014 255.62,29.355 C255.569,28.348 255.134,27.639 254.313,27.236 C253.747,26.994 253.229,26.873 252.78,26.873 C251.89,26.873 251.091,27.424 250.401,28.514 C246.429,34.906 244.013,39.301 243.226,41.576 C243.017,42.158 242.923,42.734 242.948,43.295 C243.028,44.987 243.929,45.882 245.542,45.882 C247.571,45.882 250.149,44.507 253.216,41.793 C255.03,40.172 256.552,38.549 257.769,36.947 C256.905,38.809 256.046,40.658 255.183,42.502 C253.288,46.438 251.491,49.532 249.843,51.696 C247.567,54.653 242.034,57.909 239.862,57.972 C239.456,57.972 238.985,57.882 238.474,57.712 C237.649,57.427 237.503,57.427 237.454,57.427 C237.325,57.427 237.21,57.476 237.124,57.569 C236.948,57.755 236.878,58.11 236.913,58.681 C236.954,59.647 238.196,60.112 240.714,60.112 L240.735,60.112 C243.876,60.112 250.433,56.681 253.493,53.433 C255.788,50.962 258.163,47.413 260.558,42.879 C260.976,42.059 262.767,38.332 265.474,32.656 C266.14,31.207 266.46,30.049 266.419,29.217 C266.378,28.309 265.929,27.629 265.077,27.193 L265.077,27.193 Z M221.841,28.141 C221.608,27.07 220.718,26.527 219.198,26.527 C216.669,26.527 213.495,28.619 209.749,32.75 C210.569,31.426 211.147,30.504 211.483,29.979 C211.782,29.512 211.923,29.055 211.901,28.617 C211.866,27.953 211.493,27.381 210.8,26.918 C210.284,26.557 209.687,26.369 209.019,26.369 C208.651,26.369 208.253,26.426 207.841,26.537 C207.239,26.693 206.073,27.56 202.925,33.225 C201.089,36.535 199.444,39.848 198.019,43.158 C198.019,43.174 198.019,43.254 197.913,43.449 C197.813,43.625 197.749,43.773 197.724,43.87 C195.72,48.999 194.763,52.819 194.878,55.229 C194.911,55.915 195.011,56.534 195.171,57.067 C195.632,58.811 196.71,60.099 198.394,60.895 C198.474,60.923 198.55,60.936 198.628,60.936 C198.784,60.936 198.933,60.878 199.069,60.753 C199.255,60.579 199.343,60.36 199.331,60.091 C199.319,59.909 199.243,59.747 199.112,59.624 C198.876,59.36 198.714,59.104 198.614,58.841 C198.546,58.661 198.481,58.341 198.429,57.888 C198.278,56.726 198.772,54.612 199.897,51.597 C200.708,49.39 201.622,47.28 202.61,45.335 C204.046,42.533 205.95,39.641 208.272,36.732 C209.431,35.268 210.726,33.953 212.12,32.824 C213.478,31.727 214.511,31.172 215.188,31.172 C215.409,31.172 215.644,31.242 215.669,31.779 C215.681,31.996 215.646,32.281 215.569,32.623 C215.222,34.111 214.272,35.914 212.737,37.988 C210.759,40.73 207.685,42.912 205.468,43.297 C205.46,43.299 205.452,43.295 205.442,43.295 C205.179,43.321 204.61,43.43 204.456,43.882 C204.456,43.882 204.038,44.915 205.603,45.417 C206.013,45.536 206.192,45.589 206.753,45.589 C207.587,45.589 208.583,45.433 209.712,45.128 C213.136,44.181 216.149,41.844 218.667,38.178 C220.966,34.846 222.069,31.783 221.938,29.074 C221.925,28.732 221.894,28.418 221.841,28.141 L221.841,28.141 Z M283.53,47.981 C282.04,47.981 280.835,46.77 280.835,45.278 C280.835,43.789 282.04,42.582 283.53,42.582 C285.022,42.582 286.235,43.789 286.235,45.278 C286.235,46.77 285.022,47.981 283.53,47.981 L283.53,47.981 Z M283.53,41.918 C281.671,41.918 280.169,43.418 280.169,45.278 C280.169,47.136 281.671,48.64 283.53,48.64 C285.39,48.64 286.888,47.136 286.888,45.278 C286.888,43.418 285.39,41.918 283.53,41.918 L283.53,41.918 Z M283.62,45.046 L282.878,45.046 L282.878,44.065 L283.542,44.065 C284.026,44.065 284.276,44.237 284.276,44.554 C284.276,44.806 284.114,45.046 283.62,45.046 L283.62,45.046 Z M284.079,45.52 L284.079,45.503 C284.683,45.431 285.04,45.046 285.04,44.505 C285.04,43.942 284.683,43.508 283.917,43.508 L282.157,43.508 L282.157,47.073 L282.878,47.073 L282.878,45.612 L283.011,45.612 C283.325,45.612 283.448,45.647 283.595,45.79 C283.739,45.935 283.952,46.239 284.079,46.491 L284.366,47.073 L285.257,47.073 L284.843,46.356 C284.483,45.727 284.386,45.628 284.079,45.52 L284.079,45.52 Z M282.651,31.465 C282.915,31.465 283.122,31.387 283.271,31.232 C283.437,31.06 283.515,30.801 283.501,30.455 C283.478,30.016 283.296,29.574 282.952,29.143 C282.224,28.269 281.341,27.74 280.331,27.572 C279.864,27.498 279.421,27.461 278.987,27.461 C276.159,27.461 274.397,29.357 273.755,33.105 C273.347,35.828 272.956,38.557 272.587,41.269 C272.134,43.377 271.29,44.403 270.003,44.403 L269.808,44.397 C269.491,44.397 269.188,44.118 268.901,43.576 C268.542,42.896 268.071,42.533 267.483,42.5 C267.11,42.5 266.817,42.607 266.608,42.826 C266.353,43.094 266.237,43.523 266.267,44.101 C266.304,45.011 267.077,45.778 268.567,46.376 C269.724,46.817 270.808,47.042 271.794,47.048 L271.823,47.048 C273.942,47.048 275.62,46.409 276.808,45.159 C278.392,43.568 279.118,41.035 278.964,37.629 C278.841,34.832 278.835,32.916 278.946,31.771 C279.071,30.602 279.378,30.008 279.847,30.008 C280.089,30.01 280.554,30.172 281.401,30.918 C281.849,31.279 282.267,31.465 282.651,31.465 L282.651,31.465 Z M46.844,40.562 C46.66,40.562 46.486,40.506 46.466,40.109 C46.455,39.893 46.492,39.646 46.571,39.359 C47.084,37.166 48.421,34.853 50.552,32.482 C52.864,29.932 55.055,28.639 57.061,28.639 C57.798,28.639 58.401,28.857 58.51,29.396 C58.812,30.896 48.813,40.562 46.844,40.562 L46.844,40.562 Z M61.466,28.871 L61.401,28.715 C60.767,27.08 59.176,26.412 55.915,26.412 L55.681,26.414 C54.531,26.414 53.433,26.566 52.425,26.873 C49.007,27.813 45.931,30.227 43.282,34.055 C40.854,37.547 39.689,40.682 39.824,43.379 C39.835,43.689 39.866,43.987 39.92,44.27 C40.145,45.198 40.948,45.671 42.306,45.671 C45.131,45.671 48.609,43.492 52.414,39.352 C52.195,39.986 52.092,40.705 52.135,41.639 C52.252,44.122 53.188,45.624 54.913,46.108 C55.251,46.21 55.528,46.261 55.755,46.261 C56.248,46.261 56.535,46.009 56.54,45.573 C56.569,44.069 57.056,42.164 57.977,39.924 C59.116,37.695 60.013,36.008 60.778,34.756 C62.625,31.674 61.811,29.707 61.466,28.871 L61.466,28.871 Z M85.09,28.119 C84.857,27.049 83.966,26.506 82.447,26.506 C79.917,26.506 76.743,28.598 72.998,32.728 C73.818,31.404 74.395,30.482 74.732,29.957 C75.03,29.49 75.172,29.033 75.15,28.596 C75.116,27.932 74.743,27.359 74.048,26.896 C73.533,26.535 72.936,26.348 72.267,26.348 C71.9,26.348 71.501,26.404 71.089,26.516 C70.488,26.672 69.322,27.539 66.174,33.203 C64.338,36.514 62.693,39.826 61.268,43.137 C61.268,43.152 61.268,43.232 61.162,43.428 C61.062,43.603 60.998,43.752 60.972,43.848 C58.968,48.977 58.012,52.798 58.126,55.208 C58.16,55.894 58.259,56.513 58.419,57.046 C58.88,58.79 59.958,60.077 61.643,60.874 C61.723,60.901 61.799,60.915 61.876,60.915 C62.033,60.915 62.181,60.856 62.318,60.731 C62.503,60.558 62.591,60.339 62.579,60.069 C62.568,59.888 62.491,59.726 62.361,59.602 C62.124,59.339 61.962,59.083 61.862,58.819 C61.794,58.64 61.731,58.319 61.678,57.866 C61.527,56.704 62.021,54.591 63.145,51.575 C63.957,49.368 64.87,47.259 65.858,45.313 C67.295,42.512 69.199,39.619 71.521,36.711 C72.68,35.246 73.975,33.932 75.369,32.803 C76.727,31.705 77.76,31.15 78.436,31.15 C78.659,31.15 78.892,31.221 78.918,31.758 C78.929,31.975 78.895,32.26 78.818,32.602 C78.471,34.09 77.52,35.893 75.987,37.967 C74.008,40.709 70.933,42.891 68.717,43.275 C68.709,43.277 68.7,43.273 68.691,43.273 C68.427,43.3 67.859,43.408 67.705,43.859 C67.705,43.859 67.287,44.894 68.851,45.395 C69.261,45.515 69.441,45.567 70.002,45.567 C70.835,45.567 71.832,45.411 72.961,45.106 C76.385,44.159 79.399,41.822 81.915,38.156 C84.214,34.824 85.318,31.762 85.187,29.053 C85.173,28.711 85.142,28.396 85.09,28.119 L85.09,28.119 Z M46.068,23.316 C46.068,18.436 40.668,16.276 33.899,16.107 C27.514,15.948 22.153,18.184 18.571,20.562 C18.068,20.896 17.805,21.318 17.833,21.889 C17.842,22.121 17.91,22.334 18.038,22.539 C18.323,22.977 18.687,23.197 19.125,23.197 C19.439,23.197 19.78,23.072 20.159,22.848 C25.304,19.797 29.669,19.613 29.669,19.613 C26.644,23.061 24.305,26.072 22.33,29.053 C20.21,32.277 18.69,34.801 17.819,36.557 C16.481,39.24 15.85,41.525 15.935,43.346 C15.969,44.026 16.106,44.683 16.342,45.306 C16.53,45.753 16.883,46.245 17.415,46.813 C17.882,47.308 18.309,47.546 18.718,47.546 C18.798,47.546 18.878,47.538 18.955,47.517 L19.048,47.495 L19.088,47.407 C19.245,47.06 19.336,46.716 19.358,46.395 C19.421,45.751 19.752,44.767 20.335,43.465 C22.122,39.562 24.615,35.289 27.743,30.773 C31.462,25.381 34.248,21.729 36.027,19.92 C36.335,19.594 36.716,19.434 37.194,19.434 C38.332,19.434 39.098,20.057 39.533,21.336 C39.722,21.883 39.826,22.434 39.852,22.971 C39.975,25.508 38.68,27.877 36.007,30.01 C33.768,31.801 31.562,32.713 29.45,32.713 C29.148,32.713 28.85,32.691 28.551,32.656 C28.417,32.639 28.292,32.631 28.181,32.631 C27.831,32.631 27.569,32.719 27.407,32.889 C27.268,33.037 27.205,33.232 27.216,33.478 C27.256,34.357 28.625,34.768 31.525,34.768 C31.858,34.768 32.211,34.762 32.581,34.75 C35.842,34.65 38.964,33.35 41.867,30.885 C44.779,28.41 46.068,25.865 46.068,23.316 L46.068,23.316 Z M184.022,29.648 C184.089,28.73 183.604,27.994 182.583,27.461 C182.056,27.182 181.491,27.039 180.899,27.039 C180.608,27.039 180.306,27.074 180.007,27.141 C179.603,27.217 179.222,27.455 178.925,27.818 C178.843,27.873 178.702,27.998 178.313,28.508 L174.429,33.297 C171.921,36.365 169.495,38.719 167.22,40.299 C166.698,40.668 166.46,40.74 166.323,40.74 L166.302,40.74 C166.255,40.477 166.817,38.971 171.103,31.832 C171.774,30.725 172.085,29.854 172.052,29.178 C172.013,28.379 171.552,27.717 170.673,27.211 C170.153,26.928 169.694,26.789 169.269,26.789 C168.339,26.789 167.446,27.457 166.61,28.785 C163.823,33.297 161.618,37.144 160.058,40.217 C159.532,41.244 159.286,42.215 159.329,43.113 C159.415,44.86 160.39,45.745 162.224,45.745 C164.081,45.745 166.585,44.212 169.876,41.053 C170.759,40.211 172.392,38.471 174.741,35.869 C173.542,38.219 172.978,40.312 173.067,42.111 C173.149,43.793 173.749,45.089 174.858,45.96 C175.214,46.22 175.552,46.343 175.892,46.343 C176.085,46.343 176.181,46.343 177.63,42.424 C178.585,39.877 179.099,38.527 179.157,38.41 C181.31,34.646 182.728,32.25 183.372,31.289 C183.757,30.695 183.976,30.146 184.022,29.648 L184.022,29.648 Z M164.96,22.006 C165.583,21.031 165.788,20.027 165.577,19.027 C165.271,17.588 164.493,16.859 163.269,16.859 C163.028,16.859 162.763,16.889 162.491,16.945 C160.759,17.289 158.147,18.865 154.503,21.764 C151.696,24 149.397,26.066 147.676,27.898 L146.393,29.273 C146.687,28.713 146.932,28.246 147.131,27.871 C148.631,24.559 149.305,22.424 149.19,21.342 C149.034,19.943 148.224,19.203 146.84,19.203 C146.753,19.203 146.664,19.207 146.575,19.211 C143.504,19.404 138.385,23.82 130.923,32.713 C132.662,29.525 133.754,27.449 134.262,26.359 C136.067,22.441 136.843,19.596 136.63,17.664 C136.434,15.881 135.378,14.979 133.496,14.979 C133.368,14.979 133.239,14.982 133.106,14.99 C130.37,15.162 127.431,16.34 124.367,18.5 C122.103,20.084 120.212,21.809 118.755,23.627 C118.126,24.379 117.847,25 117.902,25.527 C118.005,26.439 118.574,26.637 119.15,26.637 L119.162,26.637 C119.796,26.602 120.286,26.254 120.624,25.596 C121.187,24.445 122.204,22.682 124.565,20.676 C127.131,18.477 129.407,17.615 130.687,17.543 C130.958,17.543 131.157,17.611 131.298,17.756 C131.485,17.949 131.578,18.289 131.566,18.768 C131.535,20.559 129.707,24.572 126.128,30.695 C121.163,39.215 118.957,43.049 118.758,43.498 C118.574,43.844 118.504,44.241 118.551,44.679 C118.671,45.784 119.26,46.513 120.307,46.849 C120.635,46.946 120.976,46.991 121.318,46.991 L121.535,46.985 C122.72,46.915 123.553,46.477 124.009,45.698 C125.708,42.809 128.7,38.662 132.905,33.381 C135.43,30.215 138.366,27.289 141.635,24.68 C141.949,24.434 142.146,24.334 142.292,24.334 C142.347,24.334 142.397,24.348 142.443,24.377 C142.463,24.549 142.411,24.922 142.065,25.693 C139.386,31.43 137.021,36.162 135.041,39.756 C134.744,40.301 134.628,40.902 134.701,41.537 C134.795,42.426 135.179,43.092 135.843,43.527 C136.287,43.785 136.765,43.919 137.264,43.919 L137.442,43.913 C138.331,43.859 139,43.486 139.432,42.81 C142.498,37.951 145.055,34.271 147.036,31.871 C151.159,26.902 154.938,23.506 158.263,21.783 C158.476,21.691 158.61,21.648 158.735,21.648 C158.788,21.648 158.837,21.654 158.888,21.668 C158.894,21.725 158.884,21.848 158.771,22.055 C152.472,32.721 150.263,37.902 150.332,41.857 C150.387,44.255 151.214,45.847 152.757,46.565 C152.94,46.698 153.169,46.761 153.571,46.761 L153.599,46.761 C153.831,46.751 154.009,46.677 154.118,46.548 C154.185,46.47 154.259,46.331 154.235,46.108 L154.144,45.313 C154.241,44.427 154.378,43.727 154.552,43.225 C156.8,36.228 159.524,30.676 164.96,22.006 L164.96,22.006 Z M91.583,40.562 C91.399,40.562 91.226,40.506 91.205,40.109 C91.194,39.893 91.231,39.646 91.311,39.359 C91.823,37.166 93.161,34.853 95.291,32.482 C97.603,29.932 99.794,28.639 101.8,28.639 C102.538,28.639 103.141,28.857 103.249,29.396 C103.551,30.896 93.553,40.562 91.583,40.562 L91.583,40.562 Z M106.141,28.715 C105.506,27.08 103.915,26.412 100.654,26.412 L100.42,26.414 C99.27,26.414 98.172,26.566 97.165,26.873 C93.747,27.813 90.67,30.227 88.021,34.055 C85.593,37.547 84.429,40.682 84.563,43.379 C84.575,43.689 84.605,43.987 84.66,44.27 C84.884,45.198 85.687,45.671 87.045,45.671 C89.871,45.671 93.349,43.492 97.153,39.352 C96.934,39.986 96.831,40.705 96.874,41.639 C96.991,44.122 97.927,45.624 99.652,46.108 C99.991,46.21 100.267,46.261 100.494,46.261 C100.987,46.261 101.274,46.009 101.28,45.573 C101.309,44.069 101.795,42.164 102.717,39.924 C103.855,37.695 104.752,36.008 105.518,34.756 C107.364,31.674 106.55,29.707 106.206,28.871 L106.141,28.715 L106.141,28.715 Z" id="Fill-7" fill="#FFFFFF" sketch:type="MSShapeGroup"></path>
        </g>
    </g>
</svg>