<?xml version="1.0" encoding="UTF-8" standalone="no"?>
<svg width="230px" height="40px" viewBox="0 0 230 40" version="1.1" xmlns="http://www.w3.org/2000/svg" xmlns:xlink="http://www.w3.org/1999/xlink" xmlns:sketch="http://www.bohemiancoding.com/sketch/ns">
    <!-- Generator: Sketch 3.3.3 (12081) - http://www.bohemiancoding.com/sketch -->
    <title>Imported Layers</title>
    <desc>Created with Sketch.</desc>
    <defs></defs>
    <g id="Cowboy" stroke="none" stroke-width="1" fill="none" fill-rule="evenodd" sketch:type="MSPage">
        <g id="7-copy-3" sketch:type="MSArtboardGroup" transform="translate(-31.000000, -134.000000)" fill="#FFFFFF">
            <g id="Group-Copy-2" sketch:type="MSLayerGroup" transform="translate(-1.000000, 0.000000)">
                <path d="M108.366846,146.121529 C107.829247,144.738621 106.482575,144.173371 103.722185,144.173371 L103.524339,144.175016 C102.551148,144.175016 101.621558,144.303687 100.768473,144.563085 C97.875226,145.358134 95.2711389,147.400432 93.0281936,150.639003 C90.9732229,153.593922 89.9872813,156.245867 90.1012178,158.527831 C90.1110895,158.790518 90.1370029,159.042516 90.1826598,159.282182 C90.3731024,160.066954 91.0526083,160.466945 92.2022566,160.466945 C94.5941009,160.466945 97.5383523,158.623615 100.759013,155.120712 C100.573506,155.657597 100.486717,156.2656 100.522502,157.055716 C100.621631,159.156388 101.414251,160.42748 102.874037,160.836926 C103.160729,160.922844 103.394772,160.965598 103.58686,160.965598 C104.003941,160.965598 104.247033,160.752653 104.251969,160.384316 C104.276649,159.11199 104.687972,157.500104 105.468663,155.604566 C106.432394,153.718894 107.191285,152.291587 107.83953,151.232618 C109.402558,148.625071 108.713592,146.960976 108.421964,146.25349 L108.366846,146.121529 L108.366846,146.121529 Z M96.0440152,156.14515 C95.8877123,156.14515 95.74087,156.097052 95.7235944,155.761603 C95.714134,155.578256 95.7453945,155.369833 95.8128515,155.126879 C96.2467975,153.271627 97.3787589,151.315247 99.1828224,149.309125 C101.139487,147.1509 102.994554,146.056988 104.692496,146.056988 C105.316885,146.056988 105.827337,146.241979 105.919062,146.697878 C106.174905,147.966915 97.711108,156.14515 96.0440152,156.14515 L96.0440152,156.14515 Z M158.158341,140.445191 C158.685657,139.620955 158.859235,138.771642 158.680721,137.925617 C158.420765,136.707556 157.763059,136.091331 156.726113,136.091331 C156.52292,136.091331 156.297926,136.115997 156.068408,136.164094 C154.601629,136.454735 152.391178,137.788313 149.306254,140.240468 C146.930452,142.132718 144.98407,143.880675 143.526752,145.430486 L142.440448,146.593872 C142.68971,146.119885 142.897428,145.724827 143.065659,145.407876 C144.335414,142.605061 144.905508,140.79914 144.808847,139.883642 C144.676812,138.700523 143.991136,138.074021 142.819276,138.074021 C142.746061,138.074021 142.670377,138.077721 142.594694,138.080599 C139.995131,138.244213 135.662253,141.980614 129.345563,149.503982 C130.817689,146.807228 131.741932,145.05105 132.172176,144.128563 C133.700241,140.81394 134.356302,138.406593 134.176142,136.772097 C134.010379,135.263806 133.116985,134.5 131.523108,134.5 C131.415341,134.5 131.305518,134.503289 131.193638,134.509866 C128.877477,134.655392 126.389383,135.651876 123.795579,137.479584 C121.878813,138.819328 120.278355,140.278289 119.045208,141.817 C118.512955,142.452958 118.276445,142.978742 118.322924,143.424364 C118.410536,144.196392 118.891373,144.363295 119.379613,144.363295 L119.389485,144.363295 C119.926673,144.333286 120.341287,144.039767 120.627157,143.482739 C121.103469,142.509277 121.964368,141.017018 123.963399,139.320037 C126.135597,137.459441 128.061823,136.730988 129.145248,136.669736 C129.375178,136.669736 129.543821,136.727289 129.663104,136.849794 C129.821464,137.013408 129.900027,137.30076 129.890155,137.705684 C129.863419,139.220964 128.31561,142.616983 125.286626,147.797134 C121.082903,155.004785 119.215907,158.2487 119.047264,158.628548 C118.891373,158.921244 118.832965,159.257105 118.872041,159.627498 C118.974049,160.562729 119.472572,161.178954 120.358563,161.463017 C120.636617,161.546057 120.925366,161.583878 121.214937,161.583878 L121.398388,161.578945 C122.401605,161.519337 123.106613,161.149355 123.492434,160.489966 C124.93042,158.04521 127.463759,154.537375 131.022939,150.069232 C133.160585,147.390566 135.6458,144.914979 138.413594,142.707423 C138.679309,142.499 138.845072,142.415137 138.969703,142.415137 C139.016182,142.415137 139.058137,142.426648 139.097213,142.451313 C139.114077,142.596839 139.070066,142.912146 138.777204,143.564957 C136.509579,148.418292 134.50808,152.421903 132.830704,155.46274 C132.580208,155.923572 132.481902,156.432502 132.543189,156.969798 C132.623397,157.721682 132.948343,158.284876 133.51021,158.653213 C133.885748,158.871502 134.290902,158.984552 134.712919,158.984552 L134.864286,158.979619 C135.616185,158.934399 136.182577,158.619093 136.548243,158.046855 C139.143281,153.935949 141.308486,150.822761 142.985451,148.791562 C146.475117,144.588162 149.6748,141.714228 152.488662,140.256912 C152.669233,140.179627 152.783169,140.14304 152.888879,140.14304 C152.933302,140.14304 152.974846,140.147973 153.018035,140.159483 C153.022559,140.20717 153.014744,140.311587 152.918495,140.486711 C147.586923,149.51056 145.716637,153.894429 145.775045,157.240706 C145.821936,159.268616 146.522419,160.61576 147.827959,161.223351 C147.983439,161.33599 148.176761,161.389021 148.517337,161.389021 L148.540782,161.389021 C148.737394,161.380388 148.887939,161.317902 148.980486,161.208552 C149.036838,161.142778 149.099359,161.025617 149.079615,160.836926 L149.001875,160.164382 C149.084551,159.414142 149.200133,158.822172 149.347387,158.397104 C151.250579,152.478222 153.556868,147.78028 158.158341,140.445191 L158.158341,140.445191 Z M174.294549,146.911234 C174.3509,146.134684 173.941223,145.511882 173.07621,145.060505 C172.629924,144.824539 172.151967,144.703678 171.650975,144.703678 C171.405004,144.703678 171.148749,144.733277 170.895374,144.789596 C170.553154,144.854137 170.230676,145.055572 169.979769,145.363067 C169.910255,145.409521 169.790972,145.51476 169.461913,145.946405 L166.173384,149.998113 C164.050545,152.593739 161.99722,154.585061 160.070993,155.921928 C159.629644,156.234357 159.428095,156.295198 159.312102,156.295198 L159.294004,156.295198 C159.254517,156.072387 159.730418,154.798006 163.357877,148.758675 C163.926737,147.8218 164.189573,147.084715 164.161191,146.512888 C164.128285,145.837466 163.73794,145.277149 162.993856,144.848793 C162.554152,144.609538 162.165862,144.491967 161.805543,144.491967 C161.018682,144.491967 160.263081,145.057216 159.555194,146.181138 C157.195844,149.998113 155.32926,153.253539 154.008501,155.852454 C153.563449,156.721499 153.35532,157.542858 153.391516,158.302964 C153.463909,159.781246 154.289023,160.529842 155.841768,160.529842 C157.414257,160.529842 159.533394,159.232851 162.319697,156.55994 C163.06666,155.84752 164.449117,154.375405 166.438276,152.174427 C165.423131,154.16246 164.945173,155.933438 165.021268,157.455296 C165.09037,158.87808 165.597943,159.974458 166.537405,160.711133 C166.838083,160.931477 167.124363,161.035072 167.411878,161.035072 C167.575585,161.035072 167.656616,161.035072 168.883593,157.719627 C169.691843,155.565101 170.126611,154.423092 170.17597,154.324019 C171.998132,151.139712 173.198784,149.112213 173.744199,148.299487 C174.069967,147.797134 174.255062,147.332602 174.294549,146.911234 L174.294549,146.911234 Z M57.5141384,141.554314 C57.5141384,137.425731 52.9431039,135.598023 47.2133719,135.454963 C41.8081739,135.320537 37.2704566,137.211553 34.2377707,139.224252 C33.8124625,139.507083 33.5891141,139.863909 33.6133821,140.346119 C33.6207859,140.543031 33.6783712,140.723089 33.7869605,140.896569 C34.0275846,141.26655 34.336077,141.453596 34.7070905,141.453596 C34.9723939,141.453596 35.2611428,141.347946 35.5819749,141.157611 C39.9378874,138.576785 43.6328036,138.421393 43.6328036,138.421393 C41.0723168,141.337669 39.0917956,143.886019 37.4197669,146.407237 C35.6251638,149.135645 34.3385449,151.270027 33.6010424,152.75612 C32.469081,155.026162 31.9347722,156.95952 32.0063424,158.499466 C32.0355464,159.075814 32.1511282,159.630787 32.3510313,160.158216 C32.5102133,160.536008 32.808834,160.952443 33.2588215,161.433419 C33.6545144,161.851909 34.0156562,162.053343 34.3624016,162.053343 C34.43027,162.053343 34.497727,162.046355 34.562716,162.028267 L34.6421014,162.010179 L34.6758299,161.935771 C34.808276,161.641842 34.8851934,161.350789 34.9045256,161.079881 C34.9579976,160.534775 35.2376974,159.701905 35.7312852,158.600183 C37.2441319,155.298715 39.3546311,151.683173 42.0019072,147.862909 C45.1505861,143.301037 47.508702,140.21087 49.0149675,138.680791 C49.275335,138.404949 49.5978124,138.269289 50.0029658,138.269289 C50.9662847,138.269289 51.61453,138.796307 51.9826642,139.878709 C52.1422576,140.341185 52.2306921,140.807362 52.2524923,141.262028 C52.3561457,143.407921 51.2599694,145.412398 48.9981032,147.217086 C47.1019033,148.732365 45.2349074,149.503982 43.4472968,149.503982 C43.1918651,149.503982 42.9393127,149.485894 42.6859376,149.455885 C42.5732351,149.441086 42.4671137,149.434919 42.3729207,149.434919 C42.0763567,149.434919 41.8550648,149.508915 41.7180942,149.652797 C41.5996331,149.778591 41.5465724,149.943438 41.5564442,150.151861 C41.5901727,150.895113 42.7492814,151.242073 45.2036468,151.242073 C45.4854032,151.242073 45.7840238,151.23714 46.0970408,151.227274 C48.8582533,151.143411 51.5010048,150.042511 53.9582495,147.95746 C56.4233094,145.863776 57.5141384,143.710895 57.5141384,141.554314 L57.5141384,141.554314 Z M90.5475034,145.617121 C90.3504796,144.7119 89.5961129,144.252712 88.309494,144.252712 C86.1681455,144.252712 83.4813824,146.022457 80.3113146,149.517137 C81.0056282,148.396916 81.4938688,147.617077 81.7789158,147.172688 C82.0314682,146.77763 82.1515746,146.390794 82.133065,146.020812 C82.1038611,145.458852 81.7879649,144.974587 81.2001841,144.583229 C80.7641815,144.277377 80.258254,144.118696 79.6926846,144.118696 C79.3821356,144.118696 79.0444392,144.166794 78.6952259,144.260934 C78.1864191,144.392894 77.1992434,145.12669 74.5342805,149.918773 C72.9807128,152.719533 71.5879725,155.521937 70.3811503,158.323108 C70.3811503,158.336263 70.3811503,158.403681 70.2918932,158.56894 C70.2075719,158.717755 70.1524546,158.843137 70.1306545,158.924533 C68.4343577,163.264416 67.6256963,166.49641 67.7215346,168.535419 C67.7503272,169.115879 67.8346485,169.639608 67.9695625,170.090574 C68.3599082,171.566389 69.2730457,172.654957 70.6991031,173.329557 C70.7669715,173.352167 70.8315492,173.364088 70.8965383,173.364088 C71.0289843,173.364088 71.1544379,173.314346 71.2700197,173.208696 C71.4267339,173.061526 71.5011833,172.876535 71.4913116,172.64838 C71.4822625,172.494632 71.4168621,172.357327 71.3066275,172.253322 C71.1063131,172.030099 70.9689311,171.813866 70.8846099,171.591055 C70.8266133,171.438951 70.7731413,171.168043 70.7283071,170.784495 C70.6003856,169.801578 71.0195239,168.013334 71.9709144,165.462106 C72.6578241,163.594933 73.4307004,161.810389 74.2673318,160.164382 C75.4840257,157.794445 77.0951787,155.346812 79.0608922,152.886435 C80.041898,151.646997 81.1376629,150.534997 82.3177491,149.580034 C83.4673974,148.651381 84.3418705,148.182326 84.9148437,148.182326 C85.1028184,148.182326 85.3006649,148.241523 85.322465,148.696189 C85.3319254,148.879536 85.3031328,149.120435 85.2381438,149.409843 C84.944459,150.669013 84.1394995,152.194159 82.8413636,153.949104 C81.1660442,156.268888 78.5631911,158.114685 76.6875574,158.440268 C76.6801536,158.441913 76.6731611,158.438624 76.6657573,158.438624 C76.4419974,158.460823 75.9611606,158.552496 75.8303599,158.934399 C75.8303599,158.934399 75.4766219,159.8092 76.8002599,160.233856 C77.1474167,160.334574 77.3000176,160.379383 77.7746846,160.379383 C78.4805152,160.379383 79.324139,160.247011 80.2800541,159.989258 C83.1786486,159.188042 85.729675,157.211108 87.8595064,154.10943 C89.8054764,151.290171 90.740414,148.699478 90.6293567,146.407237 C90.6174284,146.118241 90.5906924,145.852265 90.5475034,145.617121 L90.5475034,145.617121 Z M70.5493815,146.25349 L70.4942642,146.121529 C69.9570761,144.738621 68.610404,144.173371 65.8496028,144.173371 L65.6521677,144.175016 C64.6785657,144.175016 63.7489753,144.303687 62.895891,144.563085 C60.0026437,145.358134 57.3985566,147.400432 55.1560226,150.639003 C53.101052,153.593922 52.1151103,156.245867 52.2286355,158.527831 C52.2385073,158.790518 52.2644206,159.042516 52.3104888,159.282182 C52.5005201,160.066954 53.180026,160.466945 54.3296743,160.466945 C56.7215187,160.466945 59.66577,158.623615 62.8864306,155.120712 C62.7009238,155.657597 62.6141346,156.2656 62.6499197,157.055716 C62.7494599,159.156388 63.5416684,160.42748 65.0014544,160.836926 C65.2881466,160.922844 65.5221895,160.965598 65.7146888,160.965598 C66.1317705,160.965598 66.3748625,160.752653 66.3797984,160.384316 C66.4040664,159.11199 66.8158009,157.500104 67.596081,155.604566 C68.5602226,153.718894 69.3187025,152.291587 69.9669479,151.232618 C71.5303873,148.625071 70.8410096,146.960976 70.5493815,146.25349 L70.5493815,146.25349 Z M58.1714329,156.14515 C58.0155414,156.14515 57.868699,156.097052 57.8510121,155.761603 C57.8415517,155.578256 57.8732236,155.369833 57.9406806,155.126879 C58.3746265,153.271627 59.5065879,151.315247 61.3106514,149.309125 C63.2673158,147.1509 65.1223834,146.056988 66.8203255,146.056988 C67.4443028,146.056988 67.9547548,146.241979 68.0464799,146.697878 C68.3027343,147.966915 59.8385258,156.14515 58.1714329,156.14515 L58.1714329,156.14515 Z M257.785752,148.447891 C258.008689,148.447891 258.183913,148.382116 258.309778,148.25139 C258.450039,148.105863 258.516262,147.886341 258.504745,147.593645 C258.485001,147.222019 258.331167,146.848749 258.040361,146.483289 C257.423376,145.744559 256.676002,145.296882 255.821272,145.154645 C255.425991,145.092159 255.050864,145.060505 254.683553,145.060505 C252.289652,145.060505 250.798194,146.664991 250.254424,149.836144 C249.908913,152.139484 249.578209,154.448168 249.266015,156.743287 C248.88225,158.526186 248.168193,159.39441 247.078187,159.39441 L246.913246,159.389888 C246.645475,159.389888 246.38922,159.153099 246.146128,158.694734 C245.841338,158.119618 245.443177,157.812122 244.945476,157.784168 C244.62958,157.784168 244.381963,157.875019 244.204683,158.06001 C243.988327,158.286521 243.890432,158.650336 243.915523,159.1383 C243.946783,159.908273 244.60161,160.557796 245.863138,161.063437 C246.842087,161.436707 247.759749,161.627042 248.594735,161.631975 L248.619003,161.631975 C250.413195,161.631975 251.833494,161.091391 252.838768,160.034066 C254.179682,158.687745 254.79461,156.54473 254.66422,153.662985 C254.559744,151.296748 254.554808,149.675818 254.649413,148.707289 C254.754711,147.717794 255.014256,147.215441 255.411183,147.215441 C255.616022,147.217086 256.009658,147.353979 256.727006,147.985414 C257.105835,148.290854 257.459984,148.447891 257.785752,148.447891 L257.785752,148.447891 Z M258.994219,160.339507 L258.994219,160.324707 C259.504672,160.263455 259.807817,159.937871 259.807817,159.480328 C259.807817,159.004696 259.504672,158.63677 258.856838,158.63677 L257.367025,158.63677 L257.367025,161.653352 L257.977017,161.653352 L257.977017,160.417203 L258.08972,160.417203 C258.355846,160.417203 258.459911,160.447212 258.58413,160.567662 C258.706293,160.689756 258.886453,160.94751 258.994219,161.160866 L259.237311,161.653352 L259.991267,161.653352 L259.640408,161.046994 C259.33644,160.515042 259.253764,160.430769 258.994219,160.339507 L258.994219,160.339507 Z M258.605519,159.937871 L257.977017,159.937871 L257.977017,159.108702 L258.539707,159.108702 C258.949385,159.108702 259.160805,159.253817 259.160805,159.521848 C259.160805,159.734793 259.023835,159.937871 258.605519,159.937871 L258.605519,159.937871 Z M258.529424,157.291682 C256.95529,157.291682 255.68389,158.560718 255.68389,160.134784 C255.68389,161.705972 256.95529,162.978708 258.529424,162.978708 C260.103147,162.978708 261.371256,161.705972 261.371256,160.134784 C261.371256,158.560718 260.103147,157.291682 258.529424,157.291682 L258.529424,157.291682 Z M258.529424,162.42168 C257.267896,162.42168 256.247815,161.397243 256.247815,160.134784 C256.247815,158.874791 257.267896,157.853642 258.529424,157.853642 C259.792598,157.853642 260.819672,158.874791 260.819672,160.134784 C260.819672,161.397243 259.792598,162.42168 258.529424,162.42168 L258.529424,162.42168 Z M206.308655,145.63562 C206.112043,144.729988 205.358087,144.2708 204.07188,144.2708 C201.930531,144.2708 199.243768,146.040545 196.072467,149.535636 C196.767191,148.415004 197.256255,147.635165 197.54089,147.190776 C197.793854,146.795718 197.912726,146.408882 197.894628,146.0389 C197.865013,145.477351 197.549117,144.993086 196.961747,144.601317 C196.525745,144.295876 196.019406,144.136784 195.454248,144.136784 C195.143699,144.136784 194.806002,144.184882 194.457612,144.279022 C193.947982,144.411393 192.961218,145.144778 190.295844,149.936861 C188.741865,152.738032 187.349536,155.540025 186.142714,158.341196 C186.142714,158.354351 186.142714,158.42218 186.053456,158.587028 C185.969135,158.736254 185.914429,158.861636 185.89304,158.943032 C184.196332,163.282504 183.386848,166.514498 183.48392,168.553507 C183.51189,169.133967 183.596212,169.657696 183.73236,170.108662 C184.122294,171.584066 185.034609,172.673456 186.459844,173.347645 C186.527712,173.370666 186.592701,173.382176 186.658513,173.382176 C186.790959,173.382176 186.916412,173.332434 187.032406,173.226784 C187.189531,173.079614 187.263569,172.894623 187.253697,172.666468 C187.243826,172.51272 187.179248,172.375827 187.068602,172.27141 C186.868699,172.048598 186.730906,171.832365 186.646584,171.609143 C186.588999,171.457039 186.534705,171.186131 186.48987,170.802583 C186.36236,169.819666 186.781087,168.031833 187.7333,165.480194 C188.419387,163.613021 189.193086,161.828477 190.029718,160.18247 C191.244766,157.812122 192.856742,155.3649 194.822455,152.904523 C195.80305,151.665085 196.899226,150.553085 198.079724,149.598122 C199.228961,148.669469 200.103434,148.200414 200.67723,148.200414 C200.86397,148.200414 201.062228,148.259611 201.084028,148.714277 C201.093489,148.897624 201.063873,149.138934 200.999707,149.427931 C200.7052,150.68669 199.901885,152.212247 198.602515,153.967192 C196.927607,156.287387 194.324754,158.132773 192.448709,158.458356 C192.441717,158.460001 192.435547,158.456712 192.426909,158.456712 C192.203561,158.479322 191.722724,158.570584 191.592334,158.953309 C191.592334,158.953309 191.238596,159.827288 192.562646,160.251944 C192.909803,160.352662 193.061992,160.397471 193.536248,160.397471 C194.24249,160.397471 195.085702,160.265099 196.041206,160.007346 C198.939389,159.20613 201.490416,157.229196 203.621892,154.127518 C205.567862,151.308259 206.501977,148.717155 206.39092,146.425325 C206.379814,146.136329 206.353078,145.870353 206.308655,145.63562 L206.308655,145.63562 Z M242.909015,144.833994 C242.543349,144.654347 242.189611,144.563085 241.860552,144.563085 C241.065053,144.563085 240.226777,145.255773 239.297597,146.678557 C237.637908,149.188265 236.167839,151.111757 234.933047,152.395593 C231.62642,155.844232 230.452092,156.629415 230.060513,156.629415 L230.052286,156.629415 C230.009097,155.769824 231.540453,152.863003 234.594117,147.993636 C234.82528,147.654897 234.9277,147.220374 234.903432,146.663347 C234.860243,145.810745 234.491697,145.210964 233.796972,144.870581 C233.31737,144.665858 232.879722,144.563085 232.499248,144.563085 C231.745292,144.563085 231.068666,145.029262 230.48541,145.951338 C227.122431,151.359645 225.077332,155.077548 224.410989,157.002685 C224.23412,157.495171 224.154734,157.982725 224.176535,158.456712 C224.243992,159.88854 225.006173,160.645358 226.371766,160.645358 C228.089452,160.645358 230.272344,159.481972 232.867793,157.186031 C234.404086,155.814633 235.691938,154.44118 236.721892,153.086225 C235.99097,154.661113 235.263751,156.225724 234.53283,157.785812 C232.929081,161.116468 231.408007,163.733881 230.012388,165.564467 C228.086161,168.066364 223.402424,170.820671 221.56381,170.873702 C221.219943,170.873702 220.821371,170.79765 220.388659,170.654179 C219.690644,170.412869 219.566836,170.412869 219.525292,170.412869 C219.416291,170.412869 219.318808,170.453978 219.246003,170.533319 C219.097104,170.690355 219.037463,170.990863 219.067489,171.473483 C219.102452,172.291553 220.153382,172.684556 222.284859,172.684556 L222.302957,172.684556 C224.96175,172.684556 230.511734,169.781434 233.102659,167.033705 C235.045338,164.94331 237.055886,161.940704 239.082887,158.104407 C239.436625,157.410898 240.952762,154.257833 243.244243,149.455885 C243.808167,148.230013 244.079229,147.249973 244.044267,146.546186 C244.009716,145.777858 243.629242,145.202742 242.909015,144.833994 L242.909015,144.833994 Z M185.851908,148.117374 C186.044819,148.117374 186.268167,148.188493 186.516195,148.325797 C186.823865,148.500921 187.048859,148.580673 187.219146,148.580673 C187.622243,148.580673 187.956237,148.314286 188.217839,147.79179 C188.459286,147.309581 188.571577,146.848749 188.551422,146.423681 C188.490546,145.102025 187.751399,144.826183 187.138116,144.826183 C186.130785,144.826183 184.891057,145.591223 183.35024,147.157889 C182.6477,147.866198 181.867009,148.767308 181.012279,149.844365 L181.707004,148.710989 C182.427643,147.464973 182.779735,146.580718 182.78138,146.007657 C182.784671,145.468718 182.43916,144.979931 181.754718,144.55363 C181.288277,144.285599 180.868316,144.153639 180.475091,144.153639 C179.886488,144.153639 179.372334,144.491967 178.947437,145.166566 C175.842358,150.371383 173.654942,154.281266 172.441127,156.787685 C172.123997,157.467217 171.978388,158.005335 172.001422,158.427114 C172.024868,158.896168 172.281122,159.363167 172.791986,159.855242 C173.198784,160.219057 173.752425,160.400759 174.438924,160.400759 C175.169434,160.400759 175.883491,159.880319 176.574925,158.835326 C177.009694,158.022189 177.446107,157.220563 177.877585,156.441135 C180.301513,152.650058 182.670323,149.968104 184.917382,148.468034 C185.261248,148.239879 185.577144,148.120663 185.851908,148.117374 L185.851908,148.117374 Z M219.786893,159.921428 C219.672546,158.111396 221.552704,154.228235 225.37184,148.373895 C225.836224,147.671752 226.056281,147.053472 226.026666,146.542486 C226.003221,145.964493 225.721876,145.439119 225.191269,144.986097 C224.807916,144.654347 224.285124,144.484156 223.635645,144.484156 C223.177842,144.484156 222.640242,144.570074 222.041767,144.740265 C220.454471,145.196165 218.564852,146.329541 216.430496,148.111208 C215.106036,149.198131 213.981478,150.273955 213.067518,151.328402 C216.169306,145.557924 218.76311,141.36439 220.791756,138.847694 C221.993642,137.36859 222.703175,136.540653 222.893206,136.382384 C223.136298,136.178894 223.255171,135.96266 223.240363,135.739438 C223.232136,135.521149 223.083237,135.286827 222.777213,135.022496 C222.422241,134.738021 221.935646,134.592495 221.332646,134.592495 C221.228581,134.592495 221.115879,134.595784 221.003587,134.604006 C220.201507,134.66197 219.536809,134.838739 219.025946,135.134313 C218.768046,135.279839 218.389217,135.58569 217.903445,136.040356 C216.106374,137.694173 213.859726,140.807362 211.217386,145.290304 C207.523704,151.57629 205.584315,155.672396 205.288574,157.8076 C205.134739,158.9196 205.26883,159.639008 205.698663,160.004468 C206.103405,160.347729 206.617559,160.522853 207.21768,160.522853 C208.031277,160.522853 208.618235,160.228923 208.960456,159.642297 C210.752591,156.536508 212.389246,154.168627 213.825998,152.608538 C215.251233,151.052149 216.889944,149.730082 218.692362,148.679335 C219.155101,148.415004 219.426163,148.317575 219.609613,148.317575 C219.655681,148.317575 219.697225,148.322508 219.733833,148.335663 C219.738357,148.403493 219.697225,148.598761 219.382974,149.120435 C217.268773,152.511521 216.24499,155.282271 216.345764,157.3628 C216.428851,159.101713 217.141263,160.133139 218.471893,160.435291 C218.796016,160.49161 219.047746,160.521209 219.237777,160.521209 C219.609613,160.481744 219.804992,160.268388 219.786893,159.921428 L219.786893,159.921428 Z M246.693188,147.72766 C247.081477,147.72766 247.415883,147.553358 247.690236,147.205575 L248.149684,146.573729 C248.647385,145.723183 249.307147,145.075304 249.890815,144.500599 C250.671095,143.730627 251.777143,142.730855 251.601919,141.227086 C251.514307,140.473557 251.230083,139.932973 250.629551,139.630821 C250.25607,139.443364 249.897396,139.36649 249.533786,139.349224 C248.190816,139.285505 248.349587,140.052189 248.349587,140.052189 C248.969862,141.382478 248.012713,142.329219 247.178961,143.417376 C246.489995,144.313142 245.777172,145.241385 245.555468,146.665813 C245.571921,147.009485 245.679688,147.276694 245.874655,147.453874 C246.067977,147.635987 246.340684,147.72766 246.693188,147.72766 L246.693188,147.72766 Z" id="Imported-Layers" sketch:type="MSShapeGroup"></path>
            </g>
        </g>
    </g>
</svg>